SplineFontDB: 3.0
FontName: GoudyBookletter1911
FullName: Goudy Bookletter 1911
FamilyName: Goudy Bookletter 1911
Weight: Regular
Copyright: This font has been released into the public domain by its author, Barry Schwartz. This applies worldwide.\n\nIn some countries this may not be legally possible; if so:\n\nBarry Schwartz grants anyone the right to use this work for any purpose, without any conditions, unless such conditions are required by law.
Version: 2010.07.03
ItalicAngle: 0
UnderlinePosition: -90
UnderlineWidth: 45
Ascent: 737
Descent: 263
LayerCount: 2
Layer: 0 0 "Back"  1
Layer: 1 0 "Fore"  0
XUID: [1021 658 797806517 331928]
UniqueID: 4088483
FSType: 0
OS2Version: 3
OS2_WeightWidthSlopeOnly: 0
OS2_UseTypoMetrics: 1
CreationTime: 1199071125
ModificationTime: 1278190878
PfmFamily: 17
TTFWeight: 400
TTFWidth: 5
LineGap: 90
VLineGap: 0
Panose: 2 0 5 3 0 0 0 0 0 0
OS2TypoAscent: 0
OS2TypoAOffset: 1
OS2TypoDescent: 0
OS2TypoDOffset: 1
OS2TypoLinegap: 90
OS2WinAscent: 0
OS2WinAOffset: 1
OS2WinDescent: -1
OS2WinDOffset: 1
HheadAscent: 0
HheadAOffset: 1
HheadDescent: 1
HheadDOffset: 1
OS2SubXSize: 650
OS2SubYSize: 700
OS2SubXOff: 0
OS2SubYOff: 140
OS2SupXSize: 650
OS2SupYSize: 700
OS2SupXOff: 0
OS2SupYOff: 480
OS2StrikeYSize: 49
OS2StrikeYPos: 258
OS2Vendor: 'PfEd'
OS2CodePages: 00000092.0d940000
OS2UnicodeRanges: 8000002f.0000004a.00000000.00000000
Lookup: 1 0 0 "'ss01' Style Set 1 in Latin lookup 0"  {"'ss01' Style Set 1 in Latin lookup 0 subtable"  } ['aalt' ('DFLT' <'dflt' > 'latn' <'dflt' > ) 'ss01' ('DFLT' <'dflt' > 'latn' <'dflt' > ) ]
Lookup: 4 0 1 "'liga' Standard Ligatures in Latin lookup 1"  {"'liga' Standard Ligatures in Latin lookup 1 per glyph data 0"  "'liga' Standard Ligatures in Latin lookup 1 per glyph data 1"  "'liga' Standard Ligatures in Latin lookup 1 per glyph data 2"  "'liga' Standard Ligatures in Latin lookup 1 per glyph data 3"  } ['liga' ('DFLT' <'dflt' > 'latn' <'dflt' > ) ]

StartChar: .notdef
Encoding: 65536 -1 0
Width: 500
Flags: W
HStem: 0 50<100 400> 441 50<100 400>
VStem: 50 50<50 441> 400 50<50 441>
LayerCount: 2
Fore
SplineSet
50 0 m 1
 50 491 l 1
 450 491 l 1
 450 0 l 1
 50 0 l 1
100 50 m 1
 400 50 l 1
 400 441 l 1
 100 441 l 1
 100 50 l 1
EndSplineSet
EndChar

StartChar: exclam
Encoding: 33 33 2
Width: 325
GlyphClass: 2
Flags: W
HStem: -16 101<123.334 207.265>
VStem: 108 96<367.096 637.634> 114 103<-6.4071 75.7681> 127 32<195.064 282.718>
LayerCount: 2
Fore
SplineSet
194 674 m 0xc0
 203 674 204 667 204 648 c 2
 204 625 l 2xc0
 204 411 166 232 159 211 c 0
 157 205 152 195 142 195 c 0
 129 195 127 210 127 225 c 2
 127 242 l 1x90
 121 464 108 610 108 611 c 0
 108 625 113 629 121 634 c 0
 189 674 188 674 194 674 c 0xc0
166 85 m 0
 193 85 217 63 217 34 c 0
 217 7 195 -16 166 -16 c 0
 139 -16 114 5 114 35 c 0xa0
 114 65 139 85 166 85 c 0
EndSplineSet
EndChar

StartChar: quotedbl
Encoding: 34 34 3
Width: 389
GlyphClass: 2
Flags: W
HStem: 457 258
VStem: 38 314
LayerCount: 2
Fore
SplineSet
150 715 m 0
 173 715 187 697 187 677 c 0
 187 661 179 649 173 638 c 0
 141 581 79 471 76 467 c 0
 71 461 65 457 58 457 c 0
 46 457 38 468 38 479 c 2
 38 480 l 2
 38 487 39 488 97 659 c 0
 106 683 119 715 150 715 c 0
316 715 m 0
 338 715 352 697 352 677 c 0
 352 661 345 649 339 638 c 0
 306 581 245 471 241 467 c 0
 236 461 230 457 223 457 c 0
 211 457 203 468 203 479 c 2
 203 480 l 2
 203 487 204 488 263 659 c 0
 271 683 284 715 316 715 c 0
EndSplineSet
EndChar

StartChar: numbersign
Encoding: 35 35 4
Width: 552
GlyphClass: 2
Flags: W
HStem: 157 45<54.0142 152.998 206.138 318.839 372.236 497.98> 353 45<54.0204 179.998 234.002 345.999 400.001 497.891>
VStem: 153 45<-3.6207 156.771> 189 45<398 553.952> 319 44<-10.2178 157> 327 45<202 347.564> 355 45<398 558.829>
LayerCount: 2
Fore
SplineSet
346 348 m 0xd4
 346 351 345 353 339 353 c 2
 234 353 l 2
 227 353 226 350 225 346 c 0
 219 300 206 212 206 207 c 0
 206 203 209 202 214 202 c 2
 316 202 l 2
 320 202 326 202 327 210 c 0
 341 311 346 339 346 348 c 0xd4
404 615 m 1
 411 615 l 2
 421 615 427 612 427 604 c 0
 427 594 400 413 400 403 c 0xd2
 400 400 401 398 405 398 c 2
 479 398 l 2
 494 398 498 390 498 372 c 0
 498 356 492 353 482 353 c 2
 396 353 l 2
 392 353 392 350 391 347 c 0
 385 301 372 212 372 208 c 0xc4
 372 204 374 202 379 202 c 2
 480 202 l 2
 491 202 498 199 498 180 c 0
 498 164 494 157 480 157 c 2
 376 157 l 2
 366 157 364 152 363 146 c 0
 338 -32 340 -27 337 -33 c 0
 333 -41 325 -43 315 -43 c 0
 300 -43 295 -37 295 -29 c 0
 295 -22 319 146 319 151 c 0
 319 156 315 157 311 157 c 2
 242 157 l 2
 201 157 199 156 198 149 c 0
 173 -31 174 -29 172 -34 c 0
 168 -41 162 -43 147 -43 c 0
 137 -43 128 -40 128 -29 c 0
 128 -23 153 145 153 150 c 0xe8
 153 155 150 157 144 157 c 2
 70 157 l 2
 56 157 54 165 54 176 c 0
 54 193 54 202 70 202 c 2
 157 202 l 2
 159 202 160 202 160 204 c 0
 167 252 180 343 180 348 c 0
 180 352 177 353 173 353 c 2
 72 353 l 2
 61 353 54 356 54 375 c 0
 54 390 58 398 72 398 c 2
 180 398 l 2
 187 398 189 401 189 406 c 0
 217 604 215 602 218 607 c 0
 222 613 227 615 241 615 c 2
 242 615 l 2
 250 615 262 614 262 602 c 0
 262 595 234 409 234 403 c 0
 234 399 237 398 242 398 c 2
 346 398 l 2
 350 398 354 398 355 405 c 0xd2
 383 603 382 604 385 608 c 0
 389 614 397 615 401 615 c 2
 404 615 l 1
EndSplineSet
EndChar

StartChar: dollar
Encoding: 36 36 5
Width: 482
GlyphClass: 2
Flags: W
HStem: 1 41<126.287 185.998> 599 39<139.978 185.991 228 265.03>
VStem: 16 91<74.0898 178.771> 41 58<446.429 562.384> 186 41<-96.9934 1.49219 48.8126 294.997 409.001 594.467 636.303 684.991> 332 70<101.123 239.657>
LayerCount: 2
Fore
SplineSet
376 531 m 0xdc
 376 506 360 487 335 487 c 0
 272 487 297 586 235 599 c 1
 233 599 l 2
 231 599 228 598 228 594 c 2
 228 420 l 2
 228 414 227 407 227 404 c 0
 227 384 239 387 275 372 c 0
 361 335 383 283 393 250 c 0
 399 230 402 209 402 189 c 0
 402 77 319 17 235 3 c 0
 227 1 227 -3 227 -9 c 2
 227 -78 l 2
 227 -88 223 -97 207 -97 c 0
 192 -97 187 -89 187 -78 c 2
 187 -9 l 2
 187 -2 185 1 178 1 c 0
 79 4 16 80 16 133 c 0
 16 164 37 188 65 188 c 0
 88 188 107 171 107 142 c 0xec
 107 130 104 120 104 107 c 0
 104 55 158 42 181 42 c 0
 184 42 186 43 186 46 c 2
 186 306 l 2
 186 316 183 318 177 319 c 0
 84 339 41 419 41 484 c 0
 41 565 100 630 177 636 c 0
 183 637 186 638 186 644 c 2
 186 665 l 2
 186 672 187 685 206 685 c 2
 207 685 l 2
 224 685 228 675 228 665 c 2
 228 646 l 1
 228 644 l 2
 228 641 229 638 234 638 c 0
 322 628 376 573 376 531 c 0xdc
183 599 m 0
 166 599 99 571 99 504 c 0xdc
 99 433 177 409 181 409 c 0
 185 409 186 411 186 414 c 2
 186 489 l 1
 186 572 l 2
 186 597 186 599 183 599 c 0
234 295 m 0
 228 295 227 291 227 286 c 0
 227 165 226 105 226 75 c 0
 226 44 227 44 230 44 c 2
 232 44 l 2
 247 44 332 82 332 171 c 0
 332 259 245 295 234 295 c 0
EndSplineSet
EndChar

StartChar: percent
Encoding: 37 37 6
Width: 820
GlyphClass: 2
Flags: W
HStem: -93 39<596.026 686.047> 170 38<148.026 238.047> 252 38<583.686 671.302> 515 38<135.782 223.302>
VStem: 41 60<264.374 459.62> 271 60<265.244 456.628> 489 60<2.06218 116 118 196.557> 719 60<2.68817 193.628>
LayerCount: 2
Fore
SplineSet
213 -123 m 0
 201 -123 188 -115 188 -104 c 0
 188 -99 190 -96 192 -92 c 0
 587 582 586 581 590 585 c 0
 595 591 603 595 613 595 c 0
 621 595 643 591 643 577 c 0
 643 573 641 569 639 566 c 0
 238 -110 240 -107 235 -112 c 0
 230 -118 223 -123 213 -123 c 0
179 515 m 0
 115 515 101 427 101 379 c 0
 101 338 113 256 149 225 c 0
 166 211 184 208 193 208 c 0
 252 208 263 272 266 293 c 0
 269 311 271 330 271 348 c 0
 271 426 240 515 179 515 c 0
193 553 m 0
 248 553 331 513 331 375 c 0
 331 254 270 170 179 170 c 0
 124 170 41 209 41 346 c 0
 41 484 113 553 193 553 c 0
627 252 m 0
 563 252 548 165 548 118 c 1
 549 116 l 1
 549 76 561 -6 597 -37 c 0
 614 -52 632 -54 641 -54 c 0
 700 -54 711 10 714 30 c 0
 717 48 719 67 719 86 c 0
 719 163 688 252 627 252 c 0
641 290 m 0
 696 290 779 250 779 112 c 0
 779 -8 718 -93 627 -93 c 0
 572 -93 489 -54 489 83 c 0
 489 221 561 290 641 290 c 0
EndSplineSet
EndChar

StartChar: ampersand
Encoding: 38 38 7
Width: 828
GlyphClass: 2
Flags: W
HStem: -23 77<253.323 436.75> 154 35<392.292 467.569> 360 32<183.728 301.127> 384 62<131.409 174.589> 440 33<181.692 300.583> 645 56<151.444 248.706> 677 38<643.513 724.85>
VStem: 30 79<178.938 345.842> 58 44<460.076 594.439> 100 76<400.864 431.197> 303 35<395.011 436.183> 338 36<206.326 300.965> 468 53<191.42 247> 573 70<616.704 676.103> 586 33<156.893 293.79> 768 41<504.154 630.001>
LayerCount: 2
Fore
SplineSet
100 422 m 2xd249
 100 433 58 463 58 529 c 0
 58 619 140 701 233 701 c 0
 269 701 340 688 340 640 c 0
 340 614 317 595 295 595 c 0
 254 595 252 645 208 645 c 0
 166 645 102 601 102 529 c 0
 102 488 127 446 141 446 c 0xd489
 149 446 191 473 251 473 c 0
 300 473 338 451 338 417 c 0
 338 383 297 360 246 360 c 2
 245 360 l 2xe8a9
 190 360 156 384 149 384 c 0
 141 384 137 373 136 372 c 0
 118 340 109 304 109 268 c 0
 109 183 167 63 359 54 c 1
 377 54 l 2
 539 54 586 158 586 227 c 0xd12b
 586 294 545 347 482 347 c 0
 423 347 374 300 374 251 c 0
 374 219 397 189 432 189 c 0
 445 189 468 196 468 206 c 0
 468 217 446 210 431 230 c 0
 427 236 424 244 424 252 c 0
 424 271 440 288 463 288 c 0
 492 288 521 264 521 230 c 0
 521 191 484 154 435 154 c 0
 381 154 338 199 338 255 c 0
 338 308 375 358 435 388 c 0
 519 430 613 421 682 451 c 0
 724 470 768 509 768 570 c 0
 768 633 721 677 673 677 c 0
 664 677 643 675 643 668 c 0
 643 663 659 656 659 633 c 0
 659 611 642 592 618 592 c 0
 592 592 573 615 573 641 c 0xd21d
 573 684 615 715 661 715 c 0
 732 715 809 647 809 548 c 0
 809 440 712 354 600 352 c 0
 592 352 585 352 585 344 c 0
 585 337 619 301 619 232 c 2
 619 230 l 2
 619 96 485 -23 321 -23 c 0
 154 -23 30 102 30 245 c 0xd30b
 30 350 94 407 98 414 c 0
 99 416 100 419 100 421 c 2
 100 422 l 2xd249
261 392 m 0xe869
 281 392 303 396 303 415 c 0
 303 425 296 440 260 440 c 0
 210 440 176 426 176 417 c 0
 176 414 178 412 179 411 c 0
 203 393 228 392 261 392 c 0xe869
EndSplineSet
EndChar

StartChar: quotesingle
Encoding: 39 39 8
Width: 224
GlyphClass: 2
Flags: W
HStem: 457 258
VStem: 38 149
LayerCount: 2
Fore
SplineSet
150 715 m 0
 173 715 187 697 187 677 c 0
 187 662 179 649 173 638 c 0
 141 581 79 471 76 467 c 0
 71 461 65 457 58 457 c 0
 46 457 38 468 38 480 c 2
 38 481 l 2
 38 487 39 488 97 659 c 0
 106 683 119 715 150 715 c 0
EndSplineSet
EndChar

StartChar: parenleft
Encoding: 40 40 9
Width: 363
GlyphClass: 2
Flags: W
HStem: 698 20G<291 303>
VStem: 45 76<116.498 405.186>
LayerCount: 2
Fore
SplineSet
316 -174 m 0
 316 -186 306 -194 295 -194 c 0
 286 -194 278 -190 271 -184 c 0
 137 -79 45 84 45 262 c 0
 45 423 125 590 267 704 c 0
 275 710 285 718 297 718 c 0
 309 718 318 710 318 699 c 0
 318 687 309 679 304 675 c 0
 203 584 121 442 121 263 c 0
 121 101 188 -45 300 -147 c 0
 305 -152 316 -161 316 -174 c 0
EndSplineSet
EndChar

StartChar: parenright
Encoding: 41 41 10
Width: 363
GlyphClass: 2
Flags: W
HStem: 702 20G<63.5 73.5>
VStem: 242 76<121.91 410.739>
LayerCount: 2
Fore
SplineSet
48 701 m 0
 48 714 58 722 69 722 c 0
 78 722 85 717 93 711 c 0
 227 606 318 443 318 265 c 0
 318 104 238 -63 96 -177 c 0
 88 -183 78 -191 66 -191 c 0
 55 -191 45 -183 45 -171 c 0
 45 -160 55 -152 60 -147 c 0
 161 -56 242 85 242 264 c 0
 242 427 176 572 64 675 c 0
 58 680 48 688 48 701 c 0
EndSplineSet
EndChar

StartChar: asterisk
Encoding: 42 42 11
Width: 335
GlyphClass: 2
Flags: W
HStem: 448 21G<263.5 290.5> 497 109<106.146 135.998 198.001 226.26> 701 20G<159 183>
VStem: 129 78<389.462 485.336 613.573 717.469> 136 62<426.987 496.937 607.071 673.685>
LayerCount: 2
Fore
SplineSet
321 617 m 0xe8
 321 575 228 567 228 552 c 0
 228 534 319 544 319 487 c 0
 319 464 300 448 281 448 c 0
 246 448 216 501 205 501 c 0
 199 501 198 498 198 492 c 0xe8
 198 467 207 437 207 423 c 0
 207 392 175 384 165 384 c 0
 153 384 129 393 129 426 c 0xf0
 129 447 136 472 136 486 c 0xe8
 136 492 135 497 130 497 c 0
 114 497 83 453 46 453 c 0
 21 453 14 481 14 488 c 0
 14 533 105 542 105 560 c 0
 105 580 17 571 17 624 c 0
 17 645 38 659 55 659 c 0
 88 659 109 606 133 606 c 0
 136 606 138 607 138 613 c 0
 138 625 129 652 129 676 c 0xf0
 129 711 149 721 169 721 c 0
 197 721 208 701 208 675 c 0
 208 647 196 616 196 609 c 0
 196 608 197 607 198 607 c 0
 211 607 247 656 282 656 c 0
 301 656 321 639 321 617 c 0xe8
EndSplineSet
EndChar

StartChar: plus
Encoding: 43 43 12
Width: 701
GlyphClass: 2
Flags: W
HStem: 231 57<53 322 380 648.954>
VStem: 322 58<-38 231 288 556.954>
LayerCount: 2
Fore
SplineSet
76 231 m 2
 61 231 53 235 53 253 c 2
 53 266 l 2
 53 287 66 288 77 288 c 2
 322 288 l 1
 322 537 l 2
 322 550 326 557 342 557 c 2
 356 557 l 2
 378 557 380 543 380 531 c 2
 380 288 l 1
 629 288 l 2
 642 288 649 284 649 269 c 2
 649 255 l 2
 649 232 635 231 622 231 c 2
 380 231 l 1
 380 -16 l 2
 380 -31 375 -38 358 -38 c 2
 344 -38 l 2
 323 -38 322 -26 322 -15 c 2
 322 231 l 1
 76 231 l 2
EndSplineSet
EndChar

StartChar: comma
Encoding: 44 44 13
Width: 227
GlyphClass: 2
Flags: W
HStem: -147 247<77 108>
VStem: 137 51<-86.0814 -11.7099>
LayerCount: 2
Fore
SplineSet
100 100 m 0
 147 100 188 49 188 -15 c 0
 188 -104 108 -147 87 -147 c 0
 77 -147 68 -141 68 -130 c 0
 68 -113 88 -112 111 -91 c 0
 134 -70 137 -53 137 -44 c 0
 137 7 72 -18 47 19 c 0
 42 26 39 35 39 45 c 0
 39 77 69 100 100 100 c 0
EndSplineSet
EndChar

StartChar: hyphen
Encoding: 45 45 14
Width: 227
GlyphClass: 2
Flags: W
HStem: 154 181
VStem: 12 203
LayerCount: 2
Fore
SplineSet
199 335 m 0
 212 335 215 318 215 296 c 0
 215 283 207 276 197 268 c 0
 51 166 43 154 30 154 c 0
 15 154 12 168 12 180 c 2
 12 194 l 2
 12 208 15 211 31 222 c 0
 183 328 189 335 199 335 c 0
EndSplineSet
EndChar

StartChar: period
Encoding: 46 46 15
Width: 227
GlyphClass: 2
Flags: W
HStem: -17 118<68.3914 158.932>
VStem: 54 119<-2.99638 86.7526>
LayerCount: 2
Fore
SplineSet
113 101 m 0
 145 101 173 75 173 42 c 0
 173 11 148 -17 114 -17 c 0
 83 -17 54 8 54 43 c 0
 54 78 82 101 113 101 c 0
EndSplineSet
EndChar

StartChar: slash
Encoding: 47 47 16
Width: 435
GlyphClass: 2
Flags: W
LayerCount: 2
Fore
SplineSet
36 -187 m 0
 28 -187 6 -186 6 -173 c 0
 6 -168 6 -169 383 571 c 0
 386 576 389 580 398 580 c 0
 406 580 429 577 429 562 c 0
 429 556 427 554 258 234 c 1
 49 -181 52 -180 49 -183 c 0
 45 -186 41 -187 36 -187 c 0
EndSplineSet
EndChar

StartChar: zero
Encoding: 48 48 17
Width: 475
GlyphClass: 2
Flags: W
HStem: -18 60<162.468 311.127> 385 55<159.25 309.448>
VStem: 12 66<130.19 299.792> 394 62<126.916 295.427>
LayerCount: 2
Fore
SplineSet
235 440 m 0
 356 440 456 338 456 211 c 0
 456 85 356 -18 234 -18 c 0
 114 -18 12 82 12 211 c 0
 12 338 113 440 235 440 c 0
234 385 m 0
 148 385 78 308 78 215 c 0
 78 120 149 42 237 42 c 0
 317 42 394 109 394 211 c 0
 394 311 318 385 234 385 c 0
EndSplineSet
EndChar

StartChar: one
Encoding: 49 49 18
Width: 356
GlyphClass: 2
Flags: W
HStem: -6 40<41.0061 134.862 211.525 317.949> 381 43<26.298 135 211 299.99>
VStem: 135 76<39.854 381.18>
LayerCount: 2
Fore
SplineSet
164 421 m 0
 237 421 274 424 286 424 c 0
 298 424 300 416 300 402 c 0
 300 381 287 385 225 381 c 0
 213 380 211 375 211 365 c 2
 211 61 l 2
 211 49 214 41 229 40 c 0
 301 34 318 40 318 12 c 0
 318 1 312 -6 301 -6 c 0
 297 -6 243 0 177 0 c 0
 112 0 59 -6 55 -6 c 0
 43 -6 41 3 41 15 c 0
 41 30 49 33 59 34 c 0
 129 40 135 35 135 58 c 2
 135 365 l 2
 135 378 129 380 120 381 c 0
 41 385 26 378 26 408 c 0
 26 418 31 424 41 424 c 0
 53 424 90 421 164 421 c 0
EndSplineSet
EndChar

StartChar: two
Encoding: 50 50 19
Width: 450
GlyphClass: 2
Flags: W
HStem: -13 21G<65 80.5> 0 58<193.709 336.688> 362 62<84.85 216.758>
VStem: 25 36<265.197 333.097> 276 62<205.76 305.971> 389 30<119.161 154.717>
LayerCount: 2
Fore
SplineSet
76 -13 m 0xbc
 54 -13 49 -1 49 6 c 0
 49 24 67 22 128 69 c 0
 174 105 216 146 252 192 c 0
 261 204 276 224 276 250 c 0
 276 314 202 362 144 362 c 0
 92 362 63 326 61 291 c 0
 61 280 60 265 46 265 c 2
 45 265 l 2
 37 265 25 272 25 301 c 0
 25 373 84 424 163 424 c 0
 254 424 338 364 338 278 c 0
 338 197 266 149 194 73 c 0
 192 70 190 68 190 66 c 0
 190 62 192 58 201 58 c 0
 203 58 249 60 274 62 c 0
 316 65 356 75 389 145 c 0
 391 150 394 155 401 155 c 0
 403 155 419 154 419 143 c 0
 419 138 419 140 382 15 c 0
 377 -1 368 1 353 0 c 0x7c
 260 -4 85 -13 76 -13 c 0xbc
EndSplineSet
EndChar

StartChar: three
Encoding: 51 51 20
Width: 360
GlyphClass: 2
Flags: W
HStem: -182 43<135.253 239.111> 370 73<64.1018 173.42>
VStem: 26 35<298.009 363.51> 205 9<180 273> 285 54<-79.2107 66.58>
LayerCount: 2
Fore
SplineSet
119 443 m 0
 159 443 272 410 272 326 c 0
 272 266 214 185 214 180 c 0
 214 168 240 174 282 149 c 0
 308 134 339 103 339 35 c 0
 339 4 332 -71 296 -117 c 0
 261 -163 197 -182 143 -182 c 0
 63 -182 28 -132 28 -109 c 0
 28 -85 50 -69 72 -69 c 0
 123 -69 113 -139 194 -139 c 0
 262 -139 285 -71 285 -10 c 0
 285 52 261 104 163 104 c 0
 139 104 131 102 123 102 c 0
 111 102 106 110 106 115 c 0
 106 125 112 123 141 151 c 0
 174 183 205 224 205 273 c 0
 205 308 187 370 113 370 c 0
 66 370 61 350 61 332 c 0
 61 323 62 313 62 311 c 0
 62 301 48 298 44 298 c 0
 33 298 26 307 26 339 c 0
 26 392 58 443 119 443 c 0
EndSplineSet
EndChar

StartChar: four
Encoding: 52 52 21
Width: 447
GlyphClass: 2
Flags: W
HStem: 0 74<330.031 406.859> 0 66<109.001 270> 409 20G<313.5 320>
VStem: 270 60<-186 -1.19998e-07 74.157 299.997>
LayerCount: 2
Fore
SplineSet
40 0 m 2x70
 32 0 23 2 23 14 c 0
 23 26 33 36 40 46 c 0
 300 420 294 411 301 420 c 0
 305 425 310 429 317 429 c 0
 323 429 331 426 331 411 c 2
 330 85 l 2
 330 78 332 74 340 74 c 2
 356 74 l 2
 386 74 390 76 398 76 c 0
 413 76 418 71 418 63 c 0
 418 61 411 9 407 4 c 0
 404 1 401 0 395 0 c 2
 339 0 l 2xb0
 334 0 330 -1 330 -7 c 2
 330 -174 l 2
 330 -182 329 -186 320 -186 c 2
 280 -186 l 2
 271 -186 270 -181 270 -174 c 2
 270 -10 l 2
 270 -4 269 0 262 0 c 2
 40 0 l 2x70
260 66 m 2x70
 268 66 270 73 270 79 c 2
 270 292 l 2
 270 296 269 300 265 300 c 0
 261 300 260 297 259 296 c 0
 109 74 109 74 109 71 c 0
 109 69 110 66 115 66 c 2
 260 66 l 2x70
EndSplineSet
EndChar

StartChar: five
Encoding: 53 53 22
Width: 381
GlyphClass: 2
Flags: W
HStem: 191 66<98.135 170.388> 299 88<215.446 309.304> 347 88<113.76 191.234>
VStem: 235 61<-40.5996 120.982>
LayerCount: 2
Fore
SplineSet
117 257 m 2xb0
 208 257 296 183 296 61 c 0
 296 2 274 -51 249 -88 c 0
 212 -143 140 -194 114 -194 c 0
 106 -194 97 -189 97 -179 c 0
 97 -157 150 -156 199 -81 c 0
 218 -51 235 -10 235 38 c 0
 235 134 168 191 102 191 c 0
 74 191 57 181 51 181 c 0
 42 181 38 188 38 196 c 0
 38 203 101 421 101 422 c 0
 103 427 108 435 118 435 c 0xb0
 130 435 270 387 285 387 c 0
 303 387 320 423 327 430 c 0
 331 433 334 433 335 433 c 0
 341 433 351 428 351 419 c 0
 351 415 351 416 305 310 c 0
 303 304 300 299 292 299 c 0xd0
 280 299 137 346 129 347 c 1
 128 347 l 2
 117 347 117 337 98 268 c 0
 98 267 97 265 97 263 c 0
 97 261 99 257 104 257 c 2
 117 257 l 2xb0
EndSplineSet
EndChar

StartChar: six
Encoding: 54 54 23
Width: 483
GlyphClass: 2
Flags: W
HStem: -28 40<187.686 316.189> 365 36<149.312 263.195>
VStem: 33 64<112.246 315.477> 368 77<76.1476 246.159>
LayerCount: 2
Fore
SplineSet
368 142 m 0
 368 230 315 365 200 365 c 0
 118 365 97 284 97 217 c 0
 97 98 169 12 253 12 c 0
 317 12 368 61 368 142 c 0
204 401 m 0
 334 401 445 303 445 169 c 0
 445 63 369 -28 255 -28 c 0
 146 -28 33 63 33 227 c 0
 33 418 184 592 384 629 c 0
 386 630 388 630 391 630 c 0
 404 630 411 616 411 607 c 0
 411 596 402 592 395 589 c 0
 296 557 208 493 149 402 c 0
 149 401 148 400 148 399 c 0
 148 397 150 396 152 396 c 0
 153 396 176 401 204 401 c 0
EndSplineSet
EndChar

StartChar: seven
Encoding: 55 55 24
Width: 450
GlyphClass: 2
Flags: W
HStem: 330 82<91.4919 218.976> 337 75<112.548 348.999>
VStem: 35 33<217.026 286.324> 54 39<412 469.92>
LayerCount: 2
Fore
SplineSet
52 217 m 0xa0
 47 217 35 220 35 233 c 0xa0
 35 242 52 330 54 451 c 0
 54 462 57 470 72 470 c 0
 88 470 86 458 93 424 c 0
 95 413 100 412 107 412 c 2x90
 409 412 l 2
 421 412 431 409 431 394 c 2
 431 393 l 2
 431 386 430 385 373 215 c 0
 230 -219 252 -216 228 -218 c 0
 222 -219 215 -219 209 -219 c 2
 208 -219 l 1
 202 -219 l 2
 186 -219 174 -218 174 -205 c 0
 174 -199 174 -200 285 125 c 1
 329 246 350 301 350 308 c 0
 350 327 332 330 320 332 c 0
 287 335 255 337 221 337 c 0x50
 178 337 123 333 112 330 c 0
 93 326 95 321 68 232 c 0
 66 226 63 217 52 217 c 0xa0
EndSplineSet
EndChar

StartChar: eight
Encoding: 56 56 25
Width: 447
GlyphClass: 2
Flags: W
HStem: -22 47<146.258 291.197> 308 58<176.219 227.156> 621 47<141.339 256.162>
VStem: 16 74<81.6211 226.516> 33 69<439.759 579.141> 300 74<442.856 574.658> 342 83<85.8585 202.16>
LayerCount: 2
Fore
SplineSet
102 514 m 0xec
 102 415 202 366 226 366 c 0
 232 366 236 369 240 373 c 0
 274 404 300 451 300 503 c 0
 300 566 258 621 198 621 c 2
 197 621 l 1
 143 620 102 572 102 514 c 0xec
220 25 m 0
 285 25 342 72 342 136 c 0
 342 203 278 262 198 302 c 0
 193 305 188 308 183 308 c 0
 169 308 90 239 90 151 c 0xf2
 90 76 151 25 220 25 c 0
209 -22 m 0
 101 -22 16 60 16 153 c 0xf2
 16 212 50 249 85 277 c 0
 144 323 145 322 145 326 c 0
 145 328 143 330 140 332 c 0
 81 372 33 434 33 502 c 0
 33 581 104 668 209 668 c 0
 295 668 374 621 374 526 c 0xec
 374 458 329 391 268 357 c 0
 266 356 265 354 265 352 c 0
 265 350 267 349 268 348 c 0
 361 306 425 236 425 161 c 0
 425 64 322 -22 209 -22 c 0
EndSplineSet
EndChar

StartChar: nine
Encoding: 57 57 26
Width: 509
GlyphClass: 2
Flags: W
HStem: -5 39<209.335 352.072> 383 45<154.45 294.59>
VStem: 32 73<148.813 316.685> 395 77<81.1 269.826>
LayerCount: 2
Fore
SplineSet
105 250 m 0
 105 154 166 34 284 34 c 0
 349 34 371 65 384 105 c 0
 391 128 395 152 395 176 c 0
 395 291 311 383 221 383 c 0
 169 383 105 346 105 250 c 0
275 -5 m 0
 140 -5 32 104 32 227 c 0
 32 342 127 428 238 428 c 0
 364 428 472 318 472 175 c 0
 472 24 348 -144 155 -204 c 0
 140 -208 130 -211 124 -211 c 0
 109 -211 105 -193 105 -187 c 0
 105 -177 112 -173 122 -170 c 0
 279 -121 359 1 359 5 c 0
 359 7 358 8 356 8 c 0
 354 8 318 -5 275 -5 c 0
EndSplineSet
EndChar

StartChar: colon
Encoding: 58 58 27
Width: 228
GlyphClass: 2
Flags: W
HStem: -17 118<78.9846 169.66> 293 118<78.9846 169.66>
VStem: 65 119<-2.99638 86.7526 307.004 396.622>
LayerCount: 2
Fore
SplineSet
124 411 m 0
 156 411 184 385 184 352 c 0
 184 321 158 293 124 293 c 0
 93 293 65 318 65 353 c 0
 65 387 93 411 124 411 c 0
124 101 m 0
 156 101 184 75 184 42 c 0
 184 11 158 -17 124 -17 c 0
 93 -17 65 8 65 43 c 0
 65 78 93 101 124 101 c 0
EndSplineSet
EndChar

StartChar: semicolon
Encoding: 59 59 28
Width: 227
GlyphClass: 2
Flags: W
HStem: 293 118<78.9846 169.66>
VStem: 65 119<307.004 396.622> 161 51<-85.0525 -12.0097>
LayerCount: 2
Fore
SplineSet
124 100 m 0xa0
 171 100 212 49 212 -15 c 0
 212 -104 132 -147 110 -147 c 0
 101 -147 92 -141 92 -130 c 0
 92 -113 112 -112 135 -91 c 0
 157 -70 161 -53 161 -44 c 2
 161 -43 l 1
 160 7 96 -18 71 19 c 1
 65 26 63 35 63 45 c 0
 63 77 93 100 124 100 c 0xa0
124 411 m 0
 156 411 184 385 184 352 c 0
 184 321 158 293 124 293 c 0
 93 293 65 318 65 353 c 0xc0
 65 387 93 411 124 411 c 0
EndSplineSet
EndChar

StartChar: less
Encoding: 60 60 29
Width: 672
GlyphClass: 2
Flags: W
LayerCount: 2
Fore
SplineSet
52 249 m 2
 52 260 62 264 70 267 c 0
 591 457 590 458 598 458 c 0
 610 458 621 447 621 420 c 0
 621 408 612 403 602 400 c 2
 161 239 l 1
 608 77 l 2
 616 74 621 69 621 60 c 0
 621 50 615 23 592 23 c 0
 584 23 587 23 69 212 c 0
 60 215 52 219 52 230 c 2
 52 249 l 2
EndSplineSet
EndChar

StartChar: equal
Encoding: 61 61 30
Width: 701
GlyphClass: 2
Flags: W
HStem: 156 58<54 648.954> 305 58<53 647.872>
LayerCount: 2
Fore
SplineSet
76 305 m 2
 61 305 53 309 53 327 c 2
 53 341 l 2
 53 362 65 363 76 363 c 2
 628 363 l 2
 641 363 648 359 648 343 c 2
 648 330 l 2
 648 307 634 305 622 305 c 2
 76 305 l 2
76 156 m 2
 61 156 54 161 54 178 c 2
 54 192 l 2
 54 213 66 214 77 214 c 2
 629 214 l 2
 642 214 649 210 649 194 c 2
 649 180 l 2
 649 157 635 156 623 156 c 2
 76 156 l 2
EndSplineSet
EndChar

StartChar: greater
Encoding: 62 62 31
Width: 672
GlyphClass: 2
Flags: W
LayerCount: 2
Fore
SplineSet
621 249 m 2
 621 230 l 2
 621 219 613 215 604 212 c 0
 88 24 88 23 81 23 c 0
 58 23 52 50 52 60 c 0
 52 69 57 74 65 77 c 2
 512 239 l 1
 71 400 l 2
 61 403 52 408 52 420 c 0
 52 447 63 458 75 458 c 0
 83 458 82 457 603 267 c 0
 611 264 621 260 621 249 c 2
EndSplineSet
EndChar

StartChar: question
Encoding: 63 63 32
Width: 380
GlyphClass: 2
Flags: W
HStem: -17 118<113.391 204.66> 577 103<31.9434 95.0571> 651 38<120.281 214.194>
VStem: 99 120<-2.99638 86.7526> 119 52<192.704 327.862> 252 85<470.93 612.194>
LayerCount: 2
Fore
SplineSet
159 101 m 0x94
 191 101 219 75 219 42 c 0
 219 11 193 -17 159 -17 c 0
 128 -17 99 8 99 43 c 0
 99 78 128 101 159 101 c 0x94
160 689 m 0xac
 288 689 337 601 337 542 c 0
 337 417 171 390 171 250 c 0
 171 241 172 235 172 228 c 0
 172 201 156 192 146 192 c 0
 135 192 119 200 119 247 c 0
 119 378 252 432 252 547 c 0
 252 604 214 651 165 651 c 0xac
 101 651 107 577 57 577 c 0
 33 577 15 597 15 621 c 0
 15 633 18 667 79 680 c 0xcc
 105 686 133 689 160 689 c 0xac
EndSplineSet
EndChar

StartChar: at
Encoding: 64 64 33
Width: 1000
GlyphClass: 2
Flags: W
HStem: -176 38<388.066 610.518> -14 66<382.487 465.106> -8 46<602.669 713.161> 363 33<534.747 597.381> 409 20G<644 651.5> 572 39<426.292 651.985>
VStem: 88 82<70.9096 316.808> 302 74<57.2769 161.388> 824 42<176.781 411.103>
LayerCount: 2
Fore
SplineSet
725 -71 m 0xbf80
 730 -71 737 -74 737 -83 c 0
 737 -107 658 -143 617 -156 c 0
 573 -170 528 -176 482 -176 c 2
 481 -176 l 1
 263 -175 88 -41 88 186 c 2
 88 187 l 2
 88 284 123 456 325 557 c 0
 379 584 455 611 542 611 c 0
 738 611 866 469 866 296 c 0
 866 126 749 -8 632 -8 c 0xbf80
 536 -8 538 66 531 66 c 0
 529 66 528 64 526 62 c 0
 497 26 448 -14 395 -14 c 0xdf80
 344 -14 302 25 302 83 c 0
 302 176 427 325 504 372 c 0
 527 386 552 396 579 396 c 0
 597 396 603 393 608 393 c 0
 621 393 626 419 633 425 c 0
 637 428 642 429 646 429 c 0
 657 429 669 423 669 412 c 0
 669 398 631 306 600 125 c 0
 598 116 595 100 595 86 c 0
 595 48 623 38 643 38 c 0
 684 38 741 67 773 112 c 0
 806 158 824 230 824 300 c 2
 824 301 l 2
 824 478 696 572 543 572 c 0
 349 572 170 425 170 198 c 0
 170 3 302 -138 500 -138 c 0
 597 -138 675 -105 706 -80 c 0
 711 -77 718 -71 725 -71 c 0xbf80
587 353 m 0
 587 359 583 363 576 363 c 0
 539 363 439 287 390 162 c 0
 382 143 376 122 376 102 c 0
 376 62 401 52 418 52 c 0xdf80
 438 52 486 70 516 105 c 0
 532 123 535 124 538 139 c 0
 587 351 587 349 587 353 c 0
EndSplineSet
EndChar

StartChar: A
Encoding: 65 65 34
Width: 821
GlyphClass: 2
Flags: W
HStem: -6 51<9.70312 96.8955 184.385 268.276 543.905 621.989> 300 52<298.001 517.997>
VStem: 622 195<9.5 73>
DStem2: 111 93 271 288 0.40364 0.914918<11.178 264.736 316.421 512.08> 485 668 430 565 0.391141 -0.920331<62.6289 296.73 353.02 608.612>
LayerCount: 2
Fore
SplineSet
137 0 m 0
 78 0 32 -6 29 -6 c 0
 13 -6 9 7 9 15 c 0
 9 42 24 41 54 45 c 0
 86 49 96 59 111 93 c 0
 159 200 210 307 264 413 c 1
 414 698 407 688 419 698 c 0
 426 703 434 706 443 706 c 0
 469 706 481 678 485 668 c 2
 629 336 l 1
 738 71 734 77 740 68 c 0
 765 31 809 53 815 29 c 0
 816 25 817 18 817 16 c 0
 817 3 810 -6 797 -6 c 0
 793 -6 743 0 682 0 c 0
 610 0 575 -6 563 -6 c 0
 549 -6 543 1 543 11 c 0
 543 42 554 39 602 45 c 0
 607 46 622 47 622 64 c 0
 622 82 586 201 547 290 c 0
 543 299 538 300 529 300 c 2
 294 300 l 2
 283 300 277 299 271 288 c 0
 222 197 184 92 184 72 c 0
 184 44 205 45 247 40 c 0
 256 39 269 36 269 16 c 0
 269 3 260 -6 247 -6 c 0
 236 -6 203 0 137 0 c 0
509 352 m 2
 514 352 518 353 518 359 c 0
 518 369 445 541 430 565 c 0
 427 570 424 572 419 572 c 0
 410 572 404 562 400 555 c 0
 338 439 298 362 298 356 c 0
 298 354 300 352 304 352 c 2
 509 352 l 2
EndSplineSet
EndChar

StartChar: B
Encoding: 66 66 35
Width: 564
GlyphClass: 2
Flags: MW
HStem: -6 47<17.3125 93.935 182.305 356.782> 355 43<180 347.133> 651 44<182.763 340.509>
VStem: 94 86<46.989 355 398 639.812> 402 89<461.932 592.593> 447 89<121.063 282.491>
LayerCount: 2
Fore
SplineSet
90 686 m 0xf4
 151 686 204 695 264 695 c 0
 305 695 378 691 430 655 c 0
 459 634 491 594 491 540 c 0xf8
 491 477 449 419 396 386 c 0
 395 385 394 384 394 383 c 0
 394 382 395 381 397 380 c 0
 474 365 536 295 536 206 c 0
 536 110 468 43 409 17 c 0
 398 12 361 -6 289 -6 c 0
 243 -6 198 0 152 0 c 0
 117 0 83 -2 38 -2 c 2
 36 -2 l 2
 26 -2 17 -1 17 22 c 0
 17 41 30 40 73 45 c 0
 84 47 94 48 94 65 c 2
 94 612 l 2
 94 640 76 641 42 644 c 0
 32 644 24 648 24 669 c 0
 24 680 30 687 42 687 c 0
 46 687 61 686 90 686 c 0xf4
402 519 m 0
 402 567 372 651 255 651 c 0
 235 651 195 648 185 640 c 0
 180 636 180 631 180 627 c 2
 180 625 l 1
 180 411 l 2
 180 403 181 398 190 398 c 2
 235 398 l 1
 248 398 l 2
 288 398 356 401 388 462 c 0
 397 480 402 499 402 519 c 0
257 41 m 0
 356 41 447 96 447 201 c 0xf4
 447 260 416 330 329 349 c 0
 302 355 273 355 245 355 c 2
 194 355 l 2
 181 355 180 348 180 340 c 2
 180 82 l 2
 180 65 181 50 210 45 c 0
 225 43 241 41 257 41 c 0
EndSplineSet
EndChar

StartChar: C
Encoding: 67 67 36
Width: 700
GlyphClass: 2
Flags: W
HStem: -24 51<296.333 499.546> 439 21G<629 650.5> 650 46<283.328 486.406>
VStem: 19 96<225.341 451.697> 613 49<439.285 545.701>
LayerCount: 2
Fore
SplineSet
115 354 m 0
 115 170 240 27 396 27 c 0
 511 27 620 104 657 224 c 0
 658 227 660 237 672 237 c 0
 679 237 688 234 688 226 c 1
 688 226 666 70 663 63 c 1
 659 48 646 47 641 47 c 2
 640 47 l 1
 612 47 l 2
 588 47 586 39 565 26 c 0
 501 -11 436 -24 380 -24 c 0
 287 -24 194 14 127 79 c 0
 59 145 19 240 19 335 c 0
 19 436 65 531 130 594 c 0
 198 659 292 696 385 696 c 2
 386 696 l 2
 507 696 569 643 582 643 c 0
 599 643 592 674 611 679 c 0
 614 679 620 680 622 680 c 0
 632 680 634 674 635 668 c 0
 635 667 662 466 662 456 c 0
 662 449 659 439 642 439 c 0
 616 439 618 446 613 486 c 0
 609 513 605 529 587 552 c 0
 546 604 475 650 383 650 c 0
 246 650 115 539 115 354 c 0
EndSplineSet
EndChar

StartChar: D
Encoding: 68 68 37
Width: 709
GlyphClass: 2
Flags: W
HStem: 0 48<10.3898 109.178 205.353 418.413> 633 42<11.0095 108.044 200.812 393.155>
VStem: 111 89<58.0293 626.875> 595 100<233.039 436.012>
LayerCount: 2
Fore
SplineSet
300 48 m 0
 446 48 595 139 595 316 c 0
 595 412 554 512 475 571 c 1
 409 619 329 633 267 633 c 0
 209 633 200 627 200 602 c 2
 200 93 l 2
 200 68 210 59 236 54 c 0
 257 50 278 48 300 48 c 0
11 654 m 0
 11 673 24 675 33 675 c 2
 215 675 l 2
 313 675 416 672 505 631 c 0
 604 585 695 485 695 343 c 0
 695 166 548 32 405 6 c 0
 376 1 346 0 316 0 c 2
 33 0 l 2
 24 0 10 2 10 28 c 0
 10 53 31 49 84 52 c 0
 107 53 111 66 111 88 c 2
 111 594 l 2
 111 633 88 629 29 631 c 0
 14 631 11 640 11 654 c 0
EndSplineSet
EndChar

StartChar: E
Encoding: 69 69 38
Width: 578
GlyphClass: 2
Flags: W
HStem: -12 73<27.9152 103.47> 0 62<197.782 319.547> 0 55<229.453 464.01> 369 58<198.975 407.8> 638 53<15.3204 107 199.183 454.471>
VStem: 107 89<64.3716 365.73 427 636.673> 409 55<271.454 368.907 428.208 512.546>
LayerCount: 2
Fore
SplineSet
436 513 m 0x9e
 462 513 464 495 464 484 c 2
 464 300 l 2
 464 289 462 271 436 271 c 0
 411 271 409 284 409 293 c 2
 409 347 l 2
 409 367 397 369 383 369 c 2
 245 369 l 2
 222 369 196 367 196 329 c 2
 196 100 l 2
 196 82 199 66 228 62 c 0x5e
 259 57 290 55 321 55 c 0
 353 55 445 61 465 76 c 0
 483 90 518 173 534 183 c 0
 538 185 541 186 544 186 c 0
 551 186 562 180 562 163 c 2
 562 162 l 2
 562 156 561 154 531 20 c 0
 528 5 522 0 501 0 c 2
 157 0 l 2x3e
 82 0 51 -12 33 -12 c 0
 14 -12 9 13 9 18 c 0
 9 36 19 36 85 61 c 0
 104 68 107 78 107 100 c 2
 107 621 l 2
 107 636 102 637 80 641 c 0
 41 647 14 640 14 669 c 0
 14 689 24 691 33 691 c 2
 493 691 l 2
 507 691 512 685 515 675 c 0
 524 630 544 547 544 542 c 0
 544 536 540 527 523 527 c 0
 506 527 500 538 495 545 c 0
 445 634 448 638 417 638 c 2
 229 638 l 2
 200 638 198 619 198 600 c 2
 198 449 l 2
 198 439 199 427 218 427 c 2
 371 427 l 2
 388 427 409 428 409 460 c 2
 409 491 l 2
 409 501 412 513 436 513 c 0x9e
EndSplineSet
EndChar

StartChar: F
Encoding: 70 70 39
Width: 541
GlyphClass: 2
Flags: W
HStem: -6 53<11.5821 97.6384 193.251 320.983> 360 58<194.165 395.801> 636 51<10.3223 97.588 194.854 441.997>
VStem: 98 94<49.7348 360 418 634.561> 395 55<270.499 360> 403 47<418.264 503.907>
LayerCount: 2
Fore
SplineSet
450 483 m 0xf4
 450 473 446 446 446 390 c 0
 446 333 450 305 450 296 c 0
 450 275 434 270 423 270 c 0
 399 270 402 288 395 346 c 0xf8
 394 357 389 360 377 360 c 2
 214 360 l 2
 193 360 192 346 192 332 c 2
 192 84 l 2
 192 67 192 49 233 47 c 0
 298 45 321 51 321 24 c 2
 321 15 l 2
 321 4 317 -6 304 -6 c 0
 299 -6 241 0 169 0 c 0
 96 0 38 -6 34 -6 c 0
 19 -6 11 3 11 17 c 0
 11 46 25 41 68 45 c 0
 94 48 98 59 98 76 c 2
 98 606 l 2
 98 638 83 635 33 637 c 0
 28 637 10 637 10 658 c 0
 10 681 17 688 28 688 c 0
 37 688 62 684 112 684 c 0
 150 684 220 687 274 687 c 2
 464 687 l 1
 469 687 l 2
 481 687 496 686 502 662 c 0
 508 635 525 561 525 555 c 0
 525 541 516 532 505 532 c 0
 485 532 479 549 442 615 c 0
 432 631 427 636 407 636 c 2
 223 636 l 2
 196 636 194 619 194 600 c 2
 194 433 l 2
 194 423 197 418 209 418 c 2
 376 418 l 2
 397 418 394 427 403 477 c 0
 405 490 410 504 427 504 c 0
 440 504 450 496 450 483 c 0xf4
EndSplineSet
EndChar

StartChar: G
Encoding: 71 71 40
Width: 691
GlyphClass: 2
Flags: W
HStem: -24 53<280.988 476.936> 260 46<423.046 542.581> 441 21G<595 622> 658 48<250.345 437.146>
VStem: 16 100<226.103 480.292> 545 84<76.6719 251.789>
LayerCount: 2
Fore
SplineSet
366 -24 m 0
 179 -24 16 144 16 354 c 0
 16 557 168 706 352 706 c 0
 471 706 543 644 555 641 c 1
 559 641 l 2
 578 641 592 674 603 680 c 0
 606 682 610 683 615 683 c 0
 622 683 629 680 629 669 c 2
 629 642 l 2
 629 540 640 461 640 457 c 0
 640 447 633 441 611 441 c 0
 579 441 607 473 557 542 c 0
 508 609 427 658 340 658 c 0
 239 658 116 584 116 367 c 0
 116 103 273 29 377 29 c 0
 463 29 533 77 542 94 c 0
 545 100 545 106 545 111 c 2
 545 224 l 2
 545 257 524 253 451 260 c 0
 439 261 423 265 423 283 c 0
 423 295 430 306 445 306 c 0
 456 306 486 302 548 302 c 2
 550 302 l 2
 614 302 647 306 657 306 c 0
 676 306 683 294 683 285 c 0
 683 254 636 264 630 239 c 0
 629 236 629 233 629 229 c 2
 629 60 l 2
 629 49 626 40 615 40 c 0
 603 40 594 61 585 61 c 0
 579 61 574 56 571 53 c 0
 509 -1 433 -24 366 -24 c 0
EndSplineSet
EndChar

StartChar: H
Encoding: 72 72 41
Width: 762
GlyphClass: 2
Flags: W
HStem: -6 50<15.2519 108.504 199.068 294.781 466.413 565.843 655.964 744.797> 365 62<198 565.916> 636 51<14.6575 108.262 198.337 296.024 474.512 564.115 655.349 749.377>
VStem: 109 89<48.884 365 427 634.922> 567 88<45.9662 365 427 634.938>
LayerCount: 2
Fore
SplineSet
158 0 m 0
 91 0 39 -6 35 -6 c 0
 19 -6 15 6 15 21 c 0
 15 43 28 40 83 44 c 0
 107 46 109 59 109 76 c 2
 109 605 l 2
 109 637 88 635 58 639 c 0
 40 642 14 638 14 660 c 0
 14 667 18 687 37 687 c 0
 49 687 84 685 154 685 c 2
 157 685 l 2
 229 685 265 687 277 687 c 0
 292 687 294 678 296 666 c 0
 296 663 297 660 297 657 c 0
 297 637 282 640 221 636 c 0
 201 635 198 624 198 606 c 2
 198 441 l 2
 198 433 200 427 211 427 c 2
 549 427 l 2
 565 427 566 437 566 445 c 2
 566 593 l 2
 566 610 565 629 545 636 c 1
 519 647 474 631 474 663 c 0
 474 678 482 687 498 687 c 0
 508 687 539 685 601 685 c 0
 672 685 728 689 732 689 c 0
 744 689 751 681 751 669 c 0
 751 640 729 643 682 636 c 0
 657 633 655 620 655 607 c 2
 655 82 l 1
 655 77 l 2
 655 65 657 47 683 45 c 0
 721 42 745 46 745 20 c 0
 745 8 741 -6 725 -6 c 0
 721 -6 668 0 603 0 c 0
 538 0 486 -6 482 -6 c 0
 469 -6 466 4 466 14 c 0
 466 45 476 40 537 45 c 1
 565 46 567 61 567 83 c 2
 567 354 l 2
 567 363 563 365 554 365 c 2
 213 365 l 2
 200 365 198 358 198 348 c 2
 198 77 l 2
 198 63 198 49 246 44 c 0
 261 42 295 45 295 22 c 0
 295 5 292 -6 279 -6 c 0
 276 -6 223 0 158 0 c 0
EndSplineSet
EndChar

StartChar: I
Encoding: 73 73 42
Width: 323
GlyphClass: 2
Flags: W
HStem: -6 52<14.1856 117.673 209.024 305.574> 631 49<30.4961 118.99 209 287.661>
VStem: 118 91<48.0003 628.443>
LayerCount: 2
Fore
SplineSet
52 680 m 0
 56 680 105 675 167 675 c 0
 230 675 261 679 271 679 c 0
 279 679 288 676 288 660 c 0
 288 630 276 633 225 628 c 0
 211 627 209 619 209 611 c 2
 209 71 l 2
 209 61 209 48 227 46 c 0
 283 42 306 47 306 23 c 0
 306 11 303 -6 286 -6 c 0
 282 -6 227 0 159 0 c 0
 91 0 35 -6 31 -6 c 0
 16 -6 15 6 14 17 c 0
 13 20 13 23 13 26 c 0
 13 47 27 43 97 48 c 0
 115 49 118 59 118 76 c 2
 118 596 l 2
 118 602 119 607 119 610 c 0
 119 631 105 628 53 631 c 0
 41 632 30 635 30 652 c 0
 30 664 35 680 52 680 c 0
EndSplineSet
EndChar

StartChar: J
Encoding: 74 74 43
Width: 316
GlyphClass: 2
Flags: W
HStem: -212 60<-26 61.3199> 632 48<15.3288 115.409 210.754 298.798>
VStem: 118 91<-47.6 625.019>
LayerCount: 2
Fore
SplineSet
165 675 m 2
 235 675 270 679 282 679 c 0
 296 679 299 669 299 659 c 0
 299 627 282 632 235 627 c 0
 212 625 209 612 209 593 c 2
 209 56 l 2
 209 -25 171 -98 121 -146 c 0
 111 -156 47 -212 -2 -212 c 0
 -50 -212 -82 -170 -82 -135 c 0
 -82 -109 -64 -86 -37 -86 c 0
 12 -86 16 -152 59 -152 c 0
 93 -152 104 -110 109 -91 c 0
 116 -66 118 -52 118 -26 c 2
 118 595 l 2
 118 630 94 626 37 632 c 0
 28 633 15 636 15 653 c 0
 15 665 20 680 37 680 c 0
 41 680 95 675 161 675 c 2
 165 675 l 2
EndSplineSet
EndChar

StartChar: K
Encoding: 75 75 44
Width: 654
GlyphClass: 2
Flags: W
HStem: -6 50<14.4806 107.22 200.15 299.736> -5 38<587.122 647.484> 315 55<199.002 237.997> 630 57<502.154 616.167> 640 48<12.1716 106.871 200.3 290.377>
VStem: 111 88<49.4271 312.167 370.007 633.513>
LayerCount: 2
Back
SplineSet
280 -6 m 0
 276 -6 222 0 155 0 c 0
 89 0 35 -6 31 -6 c 0
 17 -6 14 6 14 17 c 0
 14 52.2721749951 59.964574957 40.0457152658 85 47 c 0
 105 53 111 62 111 93 c 2
 111 590 l 2
 111 638 93 635 40 640 c 0
 27 641 12 646 12 664 c 0
 12 673 19 688 41 688 c 0
 52 688 85 684 151 684 c 2
 152 684 l 2
 218 684 251 688 262 688 c 0
 285 688 291 670 291 662 c 0
 291 632 236 647 214 637 c 0
 200 630 199 614 199 604 c 2
 199 387 l 2
 199 380 201 370 212 370 c 0
 222 370 229 381 238 391 c 0
 299 459 415 588 420 596 c 0
 424 601 428 609 428 617 c 0
 428 660 362 630 362 666 c 0
 362 679 371 687 385 687 c 0
 396 687 427 685 490 685 c 2
 496 685 l 2
 556 685 586 687 596 687 c 0
 618 687 624 675 624 666 c 0
 624 638 571 645 535 630 c 0
 504 617 485 590 463 567 c 0
 284 374 284 377 284 368 c 0
 284 362 287 358 292 353 c 0
 571 59 559 69 574 59 c 0
 607 38 626 49 642 33 c 0
 645 29 648 23 648 18 c 0
 648 9 640 -5 619 -5 c 0
 605 -5 600 -1 572 -1 c 0
 498 0 499 -5 474 24 c 0
 224 311 225 315 213 315 c 2
 212 315 l 2
 199 315 198 303 198 295 c 2
 198 84 l 2
 198 45 213 49 278 44 c 0
 285 43 300 41 300 22 c 0
 300 7 296 -6 280 -6 c 0
EndSplineSet
Fore
SplineSet
280 -6 m 0xa4
 276 -6 222 0 155 0 c 0
 89 0 35 -6 31 -6 c 0
 17 -6 14 6 14 17 c 0
 14 45 41 42 66 44 c 0
 97 46 111 54 111 93 c 2
 111 590 l 2
 111 638 93 635 40 640 c 0
 27 641 12 646 12 664 c 0
 12 673 19 688 41 688 c 0
 52 688 85 684 151 684 c 2
 152 684 l 2
 218 684 251 688 262 688 c 0xac
 285 688 291 670 291 662 c 0
 291 632 236 647 214 637 c 0
 200 630 199 614 199 604 c 2
 199 387 l 2
 199 380 201 370 212 370 c 0
 222 370 229 381 238 391 c 0
 299 459 415 588 420 596 c 0
 424 601 428 609 428 617 c 0
 428 660 362 630 362 666 c 0
 362 679 371 687 385 687 c 0
 396 687 427 685 490 685 c 2
 496 685 l 2
 556 685 586 687 596 687 c 0
 618 687 624 675 624 666 c 0
 624 638 571 645 535 630 c 0
 504 617 485 590 463 567 c 0
 284 374 284 377 284 368 c 0
 284 362 287 358 292 353 c 0
 571 59 559 69 574 59 c 0
 607 38 626 49 642 33 c 0
 645 29 648 23 648 18 c 0
 648 9 640 -5 619 -5 c 0x74
 605 -5 600 -1 572 -1 c 0
 498 0 499 -5 474 24 c 0
 224 311 225 315 213 315 c 2
 212 315 l 2
 199 315 198 303 198 295 c 2
 198 84 l 2
 198 45 213 49 278 44 c 0
 285 43 300 41 300 22 c 0
 300 7 296 -6 280 -6 c 0xa4
EndSplineSet
EndChar

StartChar: L
Encoding: 76 76 45
Width: 563
GlyphClass: 2
Flags: W
HStem: 0 60<185.415 455.946> 0 45<14.7662 91.4135> 629 49<11.0815 91.9614 185.402 288.929>
VStem: 92 93<60.5237 626.364> 502 45<127.281 178.977>
LayerCount: 2
Fore
SplineSet
151 675 m 2x78
 223 675 260 678 272 678 c 0
 288 678 289 667 289 651 c 0
 289 631 278 628 267 628 c 0
 199 626 185 633 185 599 c 2
 185 92 l 2
 185 75 187 60 211 60 c 2
 402 60 l 1
 405 60 l 2xb8
 422 60 443 61 460 87 c 0
 470 102 496 165 502 172 c 0
 506 177 511 180 517 180 c 0
 523 180 547 177 547 157 c 0
 547 152 534 63 527 16 c 0
 525 5 523 -6 500 -6 c 0
 486 -6 307 0 83 0 c 2
 30 0 l 2
 17 0 14 8 14 16 c 0
 14 36 26 36 69 45 c 1
 91 51 92 64 92 77 c 2
 92 80 l 1
 92 605 l 2
 92 633 79 628 36 629 c 0
 23 630 11 634 11 653 c 0
 11 672 18 678 30 678 c 0
 41 678 75 676 144 675 c 1
 151 675 l 2x78
EndSplineSet
EndChar

StartChar: M
Encoding: 77 77 46
Width: 998
GlyphClass: 2
Flags: W
HStem: -15 21G<492.5 504> -6 59<198.424 290.543> -6 55<19.7654 120.397 703.77 805.323 899.654 995.52> 635 40<22.071 98.7458>
VStem: 124 70<53.3311 334.948> 149 51<334.948 477.998> 809 89<51.3681 476.999>
DStem2: 209 662 138 574 0.520486 -0.85387<-27.1884 64.7399 409.819 606.783>
LayerCount: 2
Back
SplineSet
721 -6 m 4xd8
 706 -6 702 9 702 18 c 4
 702 63 797 20 808 79 c 4
 809 85 809 92 809 98 c 6
 809 311 l 6
 809 380 807 468 806 471 c 4
 805 476 802 477 799 477 c 4
 792 477 788 470 785 465 c 4
 696 323 542 19 524 -3 c 4
 515 -14 506 -15 502 -15 c 4
 483 -15 474 7 467 21 c 4
 359 243 215 472 207 477 c 4
 206 478 205 478 204 478 c 4
 201 478 200 475 200 473 c 4
 196 403 194 335 194 265 c 4
 194 223 197 72 200 62 c 4
 210 29 294 65 294 17 c 4
 294 8 290 -6 276 -6 c 4
 272 -6 220 0 156 0 c 4
 92 0 40 -6 36 -6 c 4
 29 -6 18 -2 18 16 c 4
 18 46 42 43 92 49 c 4
 125 53 121 74 124 102 c 4
 139 280 149 504 149 549 c 4
 149 562 143 568 138 574 c 4
 123 590 100 634 42 635 c 4
 35 636 22 636 22 653 c 4
 22 674 33 675 40 675 c 6
 184 675 l 6
 198 675 203 672 209 662 c 6
 398 346 l 5
 515 160 l 6
 517 156 523 148 532 148 c 4
 539 148 543 152 546 159 c 4
 817 666 816 666 817 666 c 4
 821 673 826 675 835 675 c 6
 980 675 l 6xb8
 987 675 995 674 995 653 c 4
 995 626 971 633 917 616 c 4
 901 612 893 605 893 587 c 4
 897 199 898 150 898 101 c 6
 898 94 l 6
 898 69 899 49 933 45 c 4
 977 41 997 45 997 16 c 4
 997 3 989 -6 977 -6 c 4
 972 -6 917 0 848 0 c 4
 780 0 725 -6 721 -6 c 4xd8
EndSplineSet
Fore
SplineSet
721 -6 m 0x36
 706 -6 702 9 702 18 c 0
 702 39 723 41 747 43 c 0
 782 46 809 50 809 94 c 2
 809 311 l 2
 809 380 807 468 806 471 c 0
 805 476 802 477 799 477 c 0
 792 477 788 470 785 465 c 0
 696 323 542 19 524 -3 c 0
 515 -14 506 -15 502 -15 c 0
 483 -15 474 7 467 21 c 0
 359 243 215 472 207 477 c 0
 206 478 205 478 204 478 c 0
 201 478 200 475 200 473 c 0x96
 196 403 194 335 194 265 c 0
 194 232 196 133 198 86 c 0
 199 71 197 60 206 53 c 0
 231 35 294 60 294 17 c 0
 294 8 290 -6 276 -6 c 0x5a
 272 -6 220 0 156 0 c 0
 92 0 40 -6 36 -6 c 0
 29 -6 18 -2 18 16 c 0
 18 46 42 43 92 49 c 0
 125 53 121 74 124 102 c 0x3a
 139 280 149 504 149 549 c 0
 149 562 143 568 138 574 c 0
 123 590 100 634 42 635 c 0
 35 636 22 636 22 653 c 0
 22 674 33 675 40 675 c 2
 184 675 l 2
 198 675 203 672 209 662 c 2
 398 346 l 1
 515 160 l 2
 517 156 523 148 532 148 c 0
 539 148 543 152 546 159 c 0
 817 666 816 666 817 666 c 0
 821 673 826 675 835 675 c 2
 980 675 l 2
 987 675 995 674 995 653 c 0
 995 626 971 633 917 616 c 0
 901 612 893 605 893 587 c 0
 897 199 898 150 898 101 c 2
 898 94 l 2
 898 69 899 49 933 45 c 0
 977 41 997 45 997 16 c 0
 997 3 989 -6 977 -6 c 0
 972 -6 917 0 848 0 c 0
 780 0 725 -6 721 -6 c 0x36
EndSplineSet
EndChar

StartChar: N
Encoding: 78 78 47
Width: 799
GlyphClass: 2
Flags: W
HStem: -23 21G<675 690> -6 52<188.519 290.647> -6 46<21.4455 113.656 230.63 303.774> 633 48<9.16241 90.8418 551.132 633.188 706.744 790.857>
VStem: 638 62<360.111 627.882> 647 49<172.004 504.224>
DStem2: 194 662 116 590 0.657753 -0.753234<-42.918 76.0834 189.311 648.432>
LayerCount: 2
Back
SplineSet
9 655 m 4xe0
 9 676 18 681 31 681 c 6
 154 681 l 6
 175 681 183 675 194 662 c 6
 351 480 l 5
 442 378 l 5
 623 182 631 172 638 172 c 4xe0
 644 172 645 177 645 182 c 4
 646 218 647 253 647 289 c 4xd0
 647 391 644 489 638 587 c 4
 636 630 617 631 573 636 c 4
 566 637 551 640 551 657 c 4
 551 667 558 681 580 681 c 4
 589 681 618 678 676 678 c 4
 733 678 761 681 770 681 c 4
 781 681 791 675 791 658 c 4
 791 606 700 673 700 576 c 5xe0
 698 486 696 395 696 305 c 4xd0
 696 136 700 52 700 24 c 4
 700 10 700 -23 680 -23 c 4
 670 -23 659 -13 631 19 c 6
 424 255 l 5
 222 480 206 499 202 499 c 4
 200 499 199 496 198 495 c 4
 190 378 185 262 185 140 c 6
 185 111 l 6
 185 59 188 49 230 46 c 4
 243 46 284 41 291 39 c 4
 295 37 304 34 304 13 c 4
 304 2 298 -6 287 -6 c 4
 283 -6 230 0 165 0 c 4
 99 0 47 -6 42 -6 c 4
 30 -6 21 2 21 14 c 4
 21 17 23 36 36 40 c 4
 58 47 105 39 121 72 c 4
 126 84 125 81 149 542 c 5
 149 545 l 5
 149 546 l 6
 149 555 148 561 116 590 c 4
 109 597 82 629 27 633 c 4
 17 633 9 636 9 655 c 4xe0
EndSplineSet
Fore
SplineSet
149 542 m 1x38
 149 546 l 2
 149 555 148 561 116 590 c 0
 109 597 82 629 27 633 c 0
 17 633 9 636 9 655 c 0
 9 676 18 681 31 681 c 2
 154 681 l 2
 175 681 183 675 194 662 c 2
 351 480 l 1
 442 378 l 1
 623 182 631 172 638 172 c 0x38
 644 172 645 177 645 182 c 0
 646 218 647 253 647 289 c 0x34
 647 391 644 489 638 587 c 0
 636 630 617 631 573 636 c 0
 566 637 551 640 551 657 c 0
 551 667 558 681 580 681 c 0
 589 681 618 678 676 678 c 0
 733 678 761 681 770 681 c 0
 781 681 791 675 791 658 c 0
 791 631 769 636 745 634 c 0
 713 631 701 620 700 564 c 0x38
 698 479 696 391 696 305 c 0x34
 696 136 700 52 700 24 c 0
 700 10 700 -23 680 -23 c 0x98
 670 -23 659 -13 631 19 c 2
 424 255 l 1
 222 480 206 499 202 499 c 0
 200 499 199 496 198 495 c 0
 190 378 185 262 185 140 c 2
 185 111 l 2
 185 59 188 49 230 46 c 0
 243 46 284 41 291 39 c 0
 295 37 304 34 304 13 c 0
 304 2 298 -6 287 -6 c 0x58
 283 -6 230 0 165 0 c 0
 99 0 47 -6 42 -6 c 0
 30 -6 21 2 21 14 c 0
 21 17 23 36 36 40 c 0
 58 47 105 39 121 72 c 0
 126 84 125 81 149 542 c 1x38
EndSplineSet
EndChar

StartChar: O
Encoding: 79 79 48
Width: 778
GlyphClass: 2
Flags: W
HStem: -24 58<292.823 500.654> 667 53<268.469 476.398>
VStem: 18 95<247.435 473.525> 661 99<215.912 458.255>
LayerCount: 2
Fore
SplineSet
760 337 m 0
 760 127 596 -24 401 -24 c 0
 303 -24 205 16 134 84 c 0
 62 153 19 252 18 353 c 1
 18 556 186 720 387 720 c 0
 602 720 760 541 760 337 c 0
113 384 m 0
 113 211 208 34 397 34 c 0
 511 34 661 109 661 319 c 0
 661 415 632 529 551 600 c 0
 502 643 437 667 371 667 c 0
 247 667 113 582 113 384 c 0
EndSplineSet
EndChar

StartChar: P
Encoding: 80 80 49
Width: 572
GlyphClass: 2
Flags: W
HStem: -6 53<14.3235 103.74 191.169 329.729> 301 35<192.058 346.108> 635 48<22.1854 103.916> 648 45<192.498 376.489>
VStem: 104 88<48.1758 301 336.165 634.629> 476 84<428.095 566.357>
LayerCount: 2
Fore
SplineSet
476 498 m 0xdc
 476 581 395 648 253 648 c 0
 198 648 192 645 192 633 c 2
 192 348 l 2
 192 337 195 336 229 336 c 0
 376 336 476 401 476 498 c 0xdc
69 683 m 2xec
 164 683 235 693 307 693 c 0xdc
 390 693 454 676 502 633 c 0
 538 600 560 552 560 503 c 2
 560 502 l 1
 559 427 513 371 458 342 c 0
 420 321 357 301 233 301 c 2
 203 301 l 2
 193 301 190 295 190 285 c 2
 190 82 l 2
 190 60 196 49 222 47 c 0
 317 43 330 49 330 19 c 2
 330 18 l 2
 330 6 327 -6 311 -6 c 0
 306 -6 246 0 173 0 c 0
 98 0 39 -6 34 -6 c 0
 18 -6 14 7 14 18 c 0
 14 46 24 42 76 47 c 0
 99 50 104 58 104 74 c 2
 104 609 l 2
 104 621 103 635 82 635 c 2
 46 635 l 2
 36 635 22 636 22 661 c 0
 22 676 29 683 44 683 c 2
 69 683 l 2xec
EndSplineSet
EndChar

StartChar: Q
Encoding: 81 81 50
Width: 752
GlyphClass: 2
Flags: W
HStem: -203 49<721.771 814.451> -16 48<309.028 497.125> 675 49<275.167 480.352>
VStem: 20 97<261.525 474.605> 655 89<231.95 470.122>
LayerCount: 2
Fore
SplineSet
407 32 m 0
 542 32 655 146 655 329 c 0
 655 422 628 542 543 615 c 0
 497 654 437 675 376 675 c 0
 248 675 117 579 117 392 c 0
 117 218 229 32 407 32 c 0
456 -11 m 0
 448 -11 425 -16 389 -16 c 0
 286 -16 191 28 126 94 c 0
 58 163 20 258 20 354 c 0
 20 452 61 551 132 620 c 0
 199 686 293 724 388 724 c 0
 471 724 564 693 634 624 c 0
 705 554 744 455 744 356 c 0
 744 218 668 87 562 15 c 0
 561 14 559 13 559 10 c 0
 559 8 560 7 562 6 c 0
 635 -45 661 -94 711 -127 c 0
 736 -144 766 -154 796 -154 c 0
 809 -154 813 -153 817 -153 c 0
 824 -153 829 -157 829 -163 c 0
 829 -179 782 -203 740 -203 c 0
 660 -203 609 -142 565 -98 c 0
 564 -97 478 -11 456 -11 c 0
EndSplineSet
EndChar

StartChar: R
Encoding: 82 82 51
Width: 696
GlyphClass: 2
Flags: W
HStem: -13 62<594.041 660.287> -6 55<24.5925 112.643 202.643 317.523> 330 36<202.309 305.766> 640 35<14.0265 102.122> 648 39<200.592 346.517>
VStem: 113 89<49.7219 330 366.549 627.863> 438 78<431.776 566.374>
DStem2: 399 338 398 202 0.585268 -0.81084<-4.33804 371.1>
LayerCount: 2
Fore
SplineSet
438 496 m 0x2e
 438 576 364 648 263 648 c 0
 250 648 212 645 203 638 c 0
 198 635 197 629 197 622 c 0
 197 621 198 620 198 619 c 2
 198 384 l 2
 198 366 205 366 264 366 c 0
 300 366 328 369 356 380 c 0
 398 397 438 436 438 496 c 0x2e
283 687 m 0
 463 687 516 583 516 513 c 0
 516 413 429 357 402 347 c 0
 400 346 397 345 397 342 c 0
 397 340 398 339 399 338 c 0
 522 194 546 126 584 81 c 0
 598 65 617 49 638 49 c 0
 664 49 668 71 681 71 c 0
 687 71 691 66 691 60 c 0
 691 45 662 -13 604 -13 c 0xae
 551 -13 510 44 498 60 c 2
 398 202 l 1
 309 326 312 322 306 326 c 0
 301 330 296 330 289 330 c 2
 216 330 l 2
 207 330 202 327 202 315 c 2
 202 84 l 1
 202 81 l 2
 202 69 203 52 228 49 c 0
 295 43 319 47 319 16 c 0
 319 3 312 -6 299 -6 c 0
 295 -6 239 0 170 0 c 0
 101 0 46 -6 42 -6 c 0
 27 -6 24 9 24 21 c 0
 24 43 40 41 86 45 c 0
 110 48 113 60 113 80 c 2
 113 597 l 2
 113 629 98 628 29 640 c 0
 19 642 14 646 14 656 c 0
 14 671 18 675 27 675 c 2
 62 675 l 2x76
 151 675 217 687 283 687 c 0
EndSplineSet
EndChar

StartChar: S
Encoding: 83 83 52
Width: 492
GlyphClass: 2
Flags: W
HStem: -17 56<173.564 329.398> 635 50<138.512 269.954>
VStem: 32 72<479.18 595.956> 48 50<112.089 247.636> 398 73<105.026 250.11>
LayerCount: 2
Fore
SplineSet
32 516 m 0xe8
 32 605 106 685 211 685 c 0
 292 685 327 645 340 645 c 0
 355 645 358 685 382 685 c 0
 391 685 398 677 398 666 c 0
 398 658 394 633 394 583 c 0
 394 534 398 510 398 502 c 0
 398 492 391 487 381 487 c 2
 380 487 l 1
 348 488 359 524 311 579 c 0
 284 609 245 635 201 635 c 0
 145 635 104 593 104 541 c 0xe8
 104 504 124 472 155 450 c 0
 209 411 281 412 345 385 c 0
 417 354 471 289 471 198 c 0
 471 79 375 -17 252 -17 c 0
 194 -17 138 5 100 38 c 0
 90 47 83 52 69 52 c 0
 59 52 52 49 43 49 c 0
 29 49 25 58 25 64 c 0
 25 76 39 113 48 227 c 0
 49 238 53 248 70 248 c 0
 91 248 92 239 98 190 c 1xd8
 105 120 94 145 124 105 c 0
 149 71 194 39 253 39 c 0
 332 39 398 100 398 178 c 0
 398 222 376 262 340 288 c 0
 282 330 218 327 151 354 c 0
 69 386 32 451 32 516 c 0xe8
EndSplineSet
EndChar

StartChar: T
Encoding: 84 84 53
Width: 692
GlyphClass: 2
Flags: W
HStem: -6 53<202.22 307.561 402.04 510.545> 622 66<95.0021 308.605 402.112 608.482>
VStem: 309 93<49.375 621.698>
LayerCount: 2
Fore
SplineSet
494 -6 m 0
 489 -6 431 0 358 0 c 0
 286 0 226 -6 222 -6 c 0
 206 -6 202 6 202 20 c 0
 202 45 213 41 275 47 c 0
 305 50 309 64 309 84 c 2
 309 591 l 2
 309 605 308 622 282 622 c 2
 133 622 l 2
 106 622 102 616 95 602 c 0
 54 521 53 509 34 509 c 0
 21 509 12 520 12 534 c 2
 12 535 l 2
 12 541 13 544 41 673 c 0
 44 687 54 688 62 688 c 2
 645 688 l 2
 661 688 663 678 665 665 c 0
 685 563 689 543 689 537 c 0
 689 525 681 515 670 515 c 0
 657 515 651 527 647 534 c 0
 600 616 602 622 571 622 c 2
 424 622 l 2
 403 622 402 608 402 595 c 2
 402 71 l 2
 402 45 415 49 493 42 c 0
 509 40 511 34 511 14 c 0
 511 4 507 -6 494 -6 c 0
EndSplineSet
EndChar

StartChar: U
Encoding: 85 85 54
Width: 756
GlyphClass: 2
Flags: W
HStem: -15 57<289.866 527.494> 641 48<17.1222 85.4336 179.027 269.862>
VStem: 86 90<149.926 634.586> 618 56<128.982 634.348>
LayerCount: 2
Fore
SplineSet
742 663 m 0
 742 619 675 677 675 572 c 0
 675 569 674 565 674 562 c 2
 674 335 l 2
 674 319 675 304 675 288 c 2
 675 256 l 2
 675 187 669 92 586 34 c 0
 537 0 473 -15 397 -15 c 0
 158 -15 110 117 98 156 c 0
 86 198 85 237 85 284 c 0
 85 309 86 335 86 360 c 2
 86 612 l 2
 86 639 70 638 44 641 c 0
 36 642 17 645 17 665 c 0
 17 674 21 689 37 689 c 0
 47 689 77 687 138 686 c 1
 144 686 l 2
 208 686 240 689 251 689 c 0
 266 689 270 678 270 663 c 0
 270 636 249 643 208 637 c 0
 179 633 176 616 176 602 c 2
 176 289 l 2
 176 218 180 148 237 97 c 0
 287 51 362 42 417 42 c 0
 455 42 559 46 600 133 c 0
 618 170 619 215 619 244 c 2
 619 258 l 2
 619 279 618 299 618 320 c 2
 618 592 l 2
 618 641 597 640 551 645 c 0
 540 646 529 649 529 667 c 0
 529 684 538 689 548 689 c 0
 557 689 583 686 636 686 c 0
 689 686 715 689 724 689 c 0
 742 689 742 675 742 663 c 0
EndSplineSet
EndChar

StartChar: V
Encoding: 86 86 55
Width: 830
GlyphClass: 2
Flags: W
HStem: -20 21G<418 433.5> 632 57<22.8225 78.1183> 639 50<198.317 280.264 575.138 660.312>
VStem: 16 182<609 673> 662 161<603 670.5>
LayerCount: 2
Fore
SplineSet
45 689 m 0xd8
 56 689 90 686 157 686 c 0
 221 686 253 689 263 689 c 0
 277 689 281 679 281 670 c 0
 281 645 270 646 225 639 c 0
 216 638 198 634 198 613 c 0
 198 605 202 597 204 593 c 0
 308 361 429 153 436 145 c 0
 438 143 441 141 445 141 c 0
 452 141 455 147 456 149 c 0
 532 287 599 432 656 585 c 0
 658 591 662 599 662 607 c 0
 662 625 649 634 640 637 c 0
 615 646 575 630 575 664 c 0
 575 676 580 689 597 689 c 0
 607 689 638 686 699 686 c 0
 761 686 791 689 801 689 c 0xb8
 817 689 823 679 823 662 c 0
 823 628 779 651 747 617 c 0
 717 584 665 394 451 0 c 0
 448 -5 441 -20 426 -20 c 0
 410 -20 403 -5 400 0 c 0
 79 561 92 611 62 632 c 0
 50 641 16 647 16 669 c 0
 16 677 22 689 45 689 c 0xd8
EndSplineSet
EndChar

StartChar: W
Encoding: 87 87 56
Width: 1002
GlyphClass: 2
Flags: W
HStem: -22 21G<314 326.5 636 654.5> 644 45<302.026 383.24 474.172 547.97 764.009 849.396>
VStem: 850 150<605 675>
LayerCount: 2
Fore
SplineSet
38 689 m 0
 47 689 76 686 134 686 c 0
 190 686 219 689 228 689 c 0
 246 689 246 673 246 664 c 0
 246 627 195 655 177 633 c 0
 173 628 172 622 172 620 c 0
 172 615 173 611 175 607 c 0
 232 428 249 384 331 164 c 0
 334 156 340 146 346 146 c 0
 357 146 354 146 453 396 c 0
 454 400 455 404 455 408 c 2
 455 409 l 2
 455 417 454 418 389 606 c 0
 376 644 378 641 319 644 c 0
 309 644 302 648 302 666 c 0
 302 681 311 689 325 689 c 0
 335 689 366 686 428 686 c 2
 429 686 l 2
 490 686 521 689 531 689 c 0
 545 689 548 680 548 667 c 0
 548 647 538 648 505 644 c 0
 489 642 474 638 474 619 c 0
 474 615 475 611 476 606 c 0
 546 395 643 161 656 143 c 0
 659 139 663 134 668 134 c 2
 669 134 l 2
 678 134 683 146 685 152 c 0
 784 361 850 594 850 616 c 0
 850 641 827 639 784 644 c 0
 766 646 764 655 764 667 c 0
 764 679 767 689 782 689 c 0
 792 689 822 686 883 686 c 2
 884 686 l 2
 943 686 973 689 983 689 c 0
 993 689 1000 684 1000 666 c 0
 1000 627 948 658 927 620 c 0
 920 607 850 374 687 26 c 0
 674 -3 663 -22 646 -22 c 0
 626 -22 613 6 604 31 c 0
 485 332 486 334 481 334 c 0
 479 334 478 332 477 330 c 0
 341 -22 349 -12 334 -19 c 0
 331 -21 328 -22 325 -22 c 0
 303 -22 296 11 286 34 c 0
 150 367 84 600 76 621 c 0
 63 652 32 630 18 647 c 0
 17 648 13 653 13 661 c 0
 13 672 18 689 38 689 c 0
EndSplineSet
EndChar

StartChar: X
Encoding: 88 88 57
Width: 665
GlyphClass: 2
Flags: W
HStem: -6 48<5.24261 91.0269 167.505 255.734 365.283 446.731 562.391 657.668> 641 48<18.2314 104.749 392.766 472.357>
VStem: 5 162<8.5 74> 285 89<326.776 370.875> 473 185<597 676.5>
LayerCount: 2
Fore
SplineSet
156 686 m 2
 224 686 257 689 268 689 c 0
 280 689 287 685 287 660 c 0
 287 627 217 659 217 617 c 0
 217 605 226 593 229 587 c 0
 336 411 337 408 341 408 c 0
 343 408 344 409 345 410 c 0
 457 568 473 583 473 611 c 0
 473 643 448 641 418 643 c 0
 402 644 392 650 392 672 c 0
 392 680 395 689 408 689 c 0
 419 689 454 686 523 686 c 0
 593 686 628 689 640 689 c 0
 652 689 658 682 658 671 c 0
 658 619 609 657 566 625 c 0
 548 612 511 562 504 551 c 0
 375 368 374 369 374 363 c 0
 374 357 376 356 546 87 c 0
 572 46 575 49 632 43 c 0
 645 41 658 36 658 15 c 0
 658 -4 647 -6 641 -6 c 0
 637 -6 582 0 512 0 c 0
 444 0 388 -6 384 -6 c 0
 371 -6 365 3 365 15 c 0
 365 41 380 40 425 46 c 0
 444 49 447 59 447 68 c 2
 447 70 l 2
 447 82 444 84 318 285 c 0
 318 286 317 288 315 288 c 0
 311 288 312 288 178 95 c 0
 173 88 167 79 167 69 c 0
 167 47 186 47 229 42 c 0
 241 40 256 37 256 16 c 0
 256 7 253 -6 238 -6 c 0
 235 -6 187 0 129 0 c 0
 70 0 24 -6 20 -6 c 0
 8 -6 5 4 5 13 c 0
 5 42 13 40 54 47 c 0
 92 54 98 68 138 124 c 0
 285 330 285 328 285 333 c 0
 285 339 282 342 126 591 c 0
 95 640 85 637 43 641 c 0
 31 642 18 646 18 667 c 0
 18 678 22 689 38 689 c 0
 49 689 84 686 153 686 c 2
 156 686 l 2
EndSplineSet
EndChar

StartChar: Y
Encoding: 89 89 58
Width: 667
GlyphClass: 2
Flags: W
HStem: -6 51<166.486 272.828 358.093 489.951> 642 47<182.316 272.83 429.389 520.835>
VStem: 273 85<49.9095 315.178> 521 138<610 673>
DStem2: 346 353 462 427 0.61277 0.790262<-9.49858 313.684>
LayerCount: 2
Back
SplineSet
490 21 m 6
 490 13 l 6
 490 4 487 -6 474 -6 c 4
 469 -6 408 0 333 0 c 4
 256 0 195 -6 191 -6 c 4
 179 -6 166 0 166 22 c 4
 166 49 178 44 244 48 c 4
 258 49 273 48 273 70 c 6
 273 277 l 6
 273 301 267 307 252 332 c 4
 68 627 73 620 68 627 c 4
 49 651 26 632 15 653 c 4
 13 656 11 661 11 667 c 4
 11 676 16 689 36 689 c 4
 47 689 80 686 146 686 c 4
 212 686 244 689 255 689 c 4
 270 689 273 679 273 669 c 4
 273 639 259 643 208 639 c 4
 200 638 182 636 182 616 c 6
 182 614 l 6
 182 604 186 600 324 361 c 4
 330 351 332 347 338 347 c 4
 343 347 345 352 346 353 c 4
 495 558 521 589 521 617 c 4
 521 666 429 618 429 669 c 4
 429 677 434 689 450 689 c 4
 459 689 486 686 539 686 c 6
 542 686 l 5
 596 687 622 689 631 689 c 4
 652 689 659 677 659 669 c 4
 659 648 631 645 607 614 c 6
 462 427 l 5
 359 287 358 296 358 265 c 6
 358 70 l 6
 358 46 371 50 468 45 c 4
 486 44 490 35 490 21 c 6
EndSplineSet
Fore
SplineSet
474 642 m 4
 450 643 429 644 429 669 c 4
 429 677 434 689 450 689 c 4
 459 689 486 686 539 686 c 6
 542 686 l 5
 596 687 622 689 631 689 c 4
 652 689 659 677 659 669 c 4
 659 648 631 645 607 614 c 6
 462 427 l 5
 359 287 358 296 358 265 c 6
 358 70 l 6
 358 46 371 50 468 45 c 4
 486 44 490 35 490 21 c 6
 490 13 l 6
 490 4 487 -6 474 -6 c 4
 469 -6 408 0 333 0 c 4
 256 0 195 -6 191 -6 c 4
 179 -6 166 0 166 22 c 4
 166 49 178 44 244 48 c 4
 258 49 273 48 273 70 c 6
 273 277 l 6
 273 301 267 307 252 332 c 4
 68 627 73 620 68 627 c 4
 49 651 26 632 15 653 c 4
 13 656 11 661 11 667 c 4
 11 676 16 689 36 689 c 4
 47 689 80 686 146 686 c 4
 212 686 244 689 255 689 c 4
 270 689 273 679 273 669 c 4
 273 639 259 643 208 639 c 4
 200 638 182 636 182 616 c 6
 182 614 l 6
 182 604 186 600 324 361 c 4
 330 351 332 347 338 347 c 4
 343 347 345 352 346 353 c 4
 438 480 483 540 504 574 c 4
 512 588 521 604 521 616 c 4
 521 640 507 640 474 642 c 4
EndSplineSet
EndChar

StartChar: Z
Encoding: 90 90 59
Width: 629
GlyphClass: 2
Flags: W
HStem: 0 81<188.196 522.299> 600 75<76.6612 459.999> 706 20G<40.5 53>
VStem: 16 41<486.018 580.65> 24 47<681.217 725.616> 577 43<149.472 255.763>
LayerCount: 2
Fore
SplineSet
16 511 m 0xf4
 16 526 24 571 24 661 c 2
 24 698 l 2
 24 720 36 726 45 726 c 0
 61 726 67 711 71 702 c 1xec
 76 686 98 675 126 675 c 2
 562 675 l 2
 582 675 586 664 586 657 c 0
 586 647 579 640 496 531 c 1
 351 349 l 1
 293 279 236 207 191 127 c 0
 189 124 186 118 186 112 c 0
 186 90 209 89 286 84 c 0
 318 82 351 81 384 81 c 2
 405 81 l 2
 478 81 528 83 553 142 c 0
 565 171 570 232 577 246 c 0
 579 249 585 256 596 256 c 0
 605 256 620 248 620 228 c 2
 620 227 l 2
 620 185 613 165 608 123 c 0
 601 51 609 5 569 0 c 1
 46 0 l 1
 44 0 l 2
 37 0 16 1 16 21 c 0xf4
 16 29 20 35 24 40 c 0xec
 154 224 296 401 446 567 c 0
 460 583 460 585 460 589 c 0
 460 593 458 600 446 600 c 2
 123 600 l 2
 73 600 77 586 57 508 c 0
 55 500 51 486 36 486 c 0
 28 486 16 492 16 511 c 0xf4
EndSplineSet
EndChar

StartChar: bracketleft
Encoding: 91 91 60
Width: 378
GlyphClass: 2
Flags: W
HStem: -185 25<131.75 150.983> 223 77<25.5738 74.811> 233 60<52.6504 78.9392>
VStem: 23 102<233.178 292.875> 80 45<-159.999 232.998 293.002 678.999> 192 42<-138.954 654.033>
LayerCount: 2
Fore
SplineSet
125 -155 m 2x8c
 125 -158 126 -160 129 -160 c 0
 134 -160 148 -143 188 -137 c 0
 192 -136 192 -134 192 -131 c 2
 192 649 l 2
 192 662 170 653 132 677 c 0
 131 678 130 679 128 679 c 0
 126 679 125 677 125 674 c 2
 125 -155 l 2x8c
104 744 m 0
 127 744 145 708 222 708 c 0
 288 708 338 737 343 737 c 0
 350 737 355 726 355 721 c 0
 355 709 309 654 239 653 c 0
 234 653 233 651 233 646 c 2
 234 -127 l 2
 234 -147 253 -127 307 -159 c 1
 332 -175 354 -197 354 -207 c 0
 354 -213 349 -220 342 -220 c 0
 333 -220 287 -185 211 -185 c 0
 142 -185 107 -210 96 -210 c 0
 83 -210 80 -200 80 -188 c 2
 80 226 l 2
 80 230 79 233 76 233 c 0xac
 72 233 66 223 52 223 c 0
 29 223 23 246 23 264 c 0
 23 293 40 300 52 300 c 0xd4
 65 300 71 293 75 293 c 0xb4
 78 293 79 296 79 300 c 2xd4
 79 710 l 2
 79 723 81 744 104 744 c 0
EndSplineSet
EndChar

StartChar: backslash
Encoding: 92 92 61
Width: 235
GlyphClass: 2
Flags: W
HStem: -226 21G<196.5 204>
VStem: 3 229
LayerCount: 2
Fore
SplineSet
232 -200 m 0
 232 -214 207 -226 201 -226 c 0
 192 -226 190 -217 190 -215 c 0
 26 493 3 592 3 596 c 0
 3 608 26 618 34 618 c 0
 45 618 47 610 49 603 c 0
 141 144 232 -181 232 -200 c 0
EndSplineSet
EndChar

StartChar: bracketright
Encoding: 93 93 62
Width: 378
GlyphClass: 2
Flags: W
HStem: -185 25<227.017 246.25> 223 77<303.189 352.426> 233 60<299.061 325.35>
VStem: 144 42<-138.954 654.033> 253 102<233.178 292.875> 253 45<-159.999 232.998 293.002 678.999>
LayerCount: 2
Fore
SplineSet
253 -155 m 2x94
 253 674 l 2
 253 677 252 679 250 679 c 0
 248 679 247 678 246 677 c 0
 208 653 186 662 186 649 c 2
 186 -131 l 2
 186 -134 186 -136 190 -137 c 0
 230 -143 244 -160 249 -160 c 0
 252 -160 253 -158 253 -155 c 2x94
274 744 m 0
 297 744 299 723 299 710 c 2
 299 300 l 2xd4
 299 296 300 293 303 293 c 0xb4
 307 293 313 300 326 300 c 0
 338 300 355 293 355 264 c 0
 355 246 349 223 326 223 c 0xd8
 312 223 306 233 302 233 c 0xb8
 299 233 298 230 298 226 c 2
 298 -188 l 2
 298 -200 295 -210 282 -210 c 0
 271 -210 236 -185 167 -185 c 0
 91 -185 45 -220 36 -220 c 0
 29 -220 24 -213 24 -207 c 0
 24 -197 46 -175 71 -159 c 1
 125 -127 144 -147 144 -127 c 2
 145 646 l 2
 145 651 144 653 139 653 c 0
 69 654 23 709 23 721 c 0
 23 726 28 737 35 737 c 0
 40 737 90 708 156 708 c 0
 233 708 251 744 274 744 c 0
EndSplineSet
EndChar

StartChar: asciicircum
Encoding: 94 94 63
Width: 423
GlyphClass: 2
Flags: W
HStem: 606 110<188.927 234.747>
VStem: 51 322<472 492>
LayerCount: 2
Fore
SplineSet
73 462 m 0
 60 462 51 472 51 484 c 0
 51 492 55 499 58 504 c 0
 172 697 172 703 194 713 c 0
 199 715 204 716 209 716 c 0
 233 716 248 691 259 675 c 0
 368 500 373 498 373 483 c 0
 373 469 362 460 349 460 c 0
 328 460 312 485 299 502 c 0
 219 605 221 606 212 606 c 1
 204 605 208 608 120 500 c 0
 103 480 92 462 73 462 c 0
EndSplineSet
EndChar

StartChar: underscore
Encoding: 95 95 64
Width: 527
GlyphClass: 2
Flags: W
HStem: -76 55<27.0354 500.941>
LayerCount: 2
Fore
SplineSet
27 -50 m 2
 27 -46 l 2
 27 -34 28 -21 41 -21 c 2
 487 -21 l 2
 499 -21 501 -34 501 -46 c 2
 501 -48 l 2
 501 -61 501 -76 487 -76 c 2
 41 -76 l 2
 27 -76 27 -62 27 -50 c 2
EndSplineSet
EndChar

StartChar: grave
Encoding: 96 96 65
Width: 227
GlyphClass: 2
Flags: W
HStem: 474 227
VStem: 8 198
LayerCount: 2
Fore
SplineSet
8 664 m 0
 8 686 26 701 45 701 c 2
 46 701 l 2
 74 701 92 673 101 659 c 0
 201 510 206 507 206 494 c 0
 206 484 198 474 187 474 c 2
 185 474 l 2
 173 474 173 477 33 619 c 0
 26 626 8 642 8 664 c 0
EndSplineSet
EndChar

StartChar: a
Encoding: 97 97 66
Width: 423
GlyphClass: 2
Flags: W
HStem: -12 59<333.638 390.033> 193 37<161.154 258.94> 387 47<123.78 229.046>
VStem: 33 74<48.7656 154.201> 260 70<76.3281 192.996 230.096 353.167>
LayerCount: 2
Fore
SplineSet
29 345 m 0
 29 381 100 434 183 434 c 0
 221 434 318 422 328 324 c 0
 329 312 330 300 330 288 c 2
 330 91 l 2
 330 52 354 47 364 47 c 0
 395 47 393 80 408 80 c 0
 412 80 417 76 417 67 c 0
 417 44 392 -12 340 -12 c 0
 295 -12 271 28 269 29 c 0
 268 29 268 30 267 30 c 0
 262 30 265 25 240 8 c 0
 217 -7 184 -20 147 -20 c 0
 78 -20 33 31 33 92 c 2
 33 93 l 2
 33 131 51 163 75 182 c 0
 129 225 249 229 251 230 c 0
 258 232 259 237 259 244 c 2
 259 280 l 2
 259 312 255 337 235 360 c 0
 223 373 203 387 177 387 c 0
 120 387 93 324 91 320 c 0
 88 316 82 309 69 309 c 0
 50 309 29 322 29 345 c 0
171 35 m 0
 220 35 249 69 254 76 c 0
 259 83 260 90 260 99 c 2
 260 123 l 1
 260 164 l 2
 260 188 259 193 250 193 c 0
 232 193 164 188 131 157 c 0
 118 146 107 128 107 103 c 0
 107 87 112 62 128 48 c 0
 140 37 158 35 171 35 c 0
EndSplineSet
EndChar

StartChar: b
Encoding: 98 98 67
Width: 486
GlyphClass: 2
Flags: W
HStem: -19 41<151.529 329.336> 377 53<183.706 323.906> 693 20G<129 134>
VStem: 69 69<2.73671 330.126> 72 70<65.0945 353.728 389.001 621.937> 414 63<104.331 284.133>
LayerCount: 2
Fore
SplineSet
142 395 m 0xec
 142 390 144 389 146 389 c 0
 155 389 197 430 282 430 c 0
 399 430 477 341 477 209 c 0
 477 146 455 43 344 1 c 0
 302 -15 254 -19 232 -19 c 0
 184 -19 165 0 135 0 c 0
 105 0 100 -21 85 -21 c 0
 71 -21 69 -5 69 9 c 0xf4
 69 126 72 477 72 594 c 0
 72 606 69 610 60 616 c 0
 16 643 4 648 4 656 c 0
 4 664 12 667 17 669 c 0
 118 709 127 713 131 713 c 0
 137 712 145 709 145 693 c 0
 145 634 142 425 142 395 c 0xec
414 192 m 0
 414 304 333 377 247 377 c 0
 201 377 139 349 139 328 c 2
 139 72 l 2
 139 70 138 67 138 65 c 0
 138 53 140 46 152 41 c 0
 181 29 212 22 244 22 c 0
 346 22 414 91 414 192 c 0
EndSplineSet
EndChar

StartChar: c
Encoding: 99 99 68
Width: 381
GlyphClass: 2
Flags: W
HStem: -18 64<167.358 299.435> 376 52<142.345 251.426>
VStem: 17 66<134.62 305.205>
LayerCount: 2
Fore
SplineSet
209 -18 m 0
 94 -18 17 74 17 197 c 0
 17 333 103 428 231 428 c 0
 303 428 358 392 358 354 c 0
 358 331 339 316 318 316 c 0
 272 316 255 376 197 376 c 0
 136 376 83 306 83 222 c 0
 83 129 149 46 241 46 c 0
 319 46 340 100 363 100 c 0
 372 100 380 93 380 83 c 0
 380 77 377 71 374 67 c 0
 342 23 284 -18 209 -18 c 0
EndSplineSet
EndChar

StartChar: d
Encoding: 100 100 69
Width: 494
GlyphClass: 2
Flags: W
HStem: -21 52<181.137 326.745> 383 40<159.841 319.221> 694 20G<412 418>
VStem: 17 67<127.427 307.105> 355 71<69.2324 354.672 408.003 610.663>
LayerCount: 2
Fore
SplineSet
238 383 m 0
 136 383 84 317 84 216 c 0
 84 92 189 31 258 31 c 0
 296 31 344 48 352 74 c 0
 354 82 355 89 355 97 c 2
 355 321 l 2
 355 328 355 335 345 345 c 0
 315 373 275 383 238 383 c 0
240 423 m 2
 305 423 343 408 348 408 c 0
 353 408 355 412 355 417 c 2
 355 585 l 2
 355 605 348 605 295 626 c 0
 288 628 276 632 276 642 c 0
 276 648 282 651 285 653 c 0
 391 705 410 714 414 714 c 0
 422 714 426 708 426 700 c 0
 426 667 423 570 423 376 c 0
 423 277 425 91 426 82 c 0
 427 67 437 70 473 68 c 0
 474 68 492 68 492 54 c 0
 492 39 473 39 433 16 c 1
 387 -9 374 -28 364 -28 c 0
 361 -28 356 -27 356 -18 c 2
 356 15 l 2
 356 17 355 18 354 18 c 0
 351 18 313 -21 235 -21 c 0
 104 -21 17 81 17 207 c 0
 17 311 81 423 239 423 c 2
 240 423 l 2
EndSplineSet
EndChar

StartChar: e
Encoding: 101 101 70
Width: 409
GlyphClass: 2
Flags: W
HStem: -19 57<165.729 309.105> 376 55<130.468 248.721>
VStem: 22 71<115.769 316.359> 290 97<292.942 337.386>
LayerCount: 2
Fore
SplineSet
22 206 m 0
 22 346 107 431 207 431 c 0
 276 431 342 386 379 335 c 0
 383 330 387 322 387 313 c 2
 387 312 l 2
 387 282 335 272 306 262 c 0
 99 191 93 192 93 183 c 0
 93 171 115 38 241 38 c 0
 285 38 329 57 360 87 c 0
 365 92 373 101 383 101 c 0
 392 101 399 95 399 86 c 0
 399 82 397 76 392 70 c 0
 351 17 286 -19 215 -19 c 0
 133 -19 22 35 22 206 c 0
290 310 m 0
 290 322 241 376 185 376 c 0
 127 376 89 322 89 233 c 0
 89 227 92 226 94 226 c 0
 97 226 279 297 281 298 c 0
 287 301 290 306 290 310 c 0
EndSplineSet
EndChar

StartChar: f
Encoding: 102 102 71
Width: 292
GlyphClass: 2
Flags: W
HStem: -6 45<18.0677 79.8315 153 229.988> 359 52<10.824 82.4098 153.06 281.154> 653 67<224.432 344.919>
VStem: 84 69<38.7292 358.944 411.182 564.612>
LayerCount: 2
Fore
SplineSet
33 -6 m 0
 20 -6 18 8 18 19 c 0
 18 35 28 33 65 39 c 0
 80 41 79 51 80 63 c 0
 82 88 84 156 84 350 c 0
 84 362 79 359 31 360 c 0
 25 360 10 360 10 378 c 0
 10 401 18 408 31 408 c 0
 81 410 82 406 82 418 c 2
 82 419 l 1
 83 458 88 546 125 611 c 1
 165 679 247 720 308 720 c 0
 362 720 380 689 380 668 c 0
 380 649 365 629 338 629 c 0
 310 629 286 653 255 653 c 0
 184 653 152 553 152 436 c 2
 152 427 l 2
 152 414 153 411 162 411 c 2
 260 411 l 2
 272 411 282 407 282 391 c 2
 282 390 l 2
 282 381 280 359 256 359 c 2
 162 359 l 2
 156 359 153 358 153 351 c 2
 153 64 l 1
 153 61 l 2
 153 51 154 38 173 37 c 0
 219 33 230 39 230 16 c 0
 230 4 226 -6 214 -6 c 0
 211 -6 172 0 124 0 c 0
 75 0 36 -6 33 -6 c 0
EndSplineSet
EndChar

StartChar: g
Encoding: 103 103 72
Width: 440
GlyphClass: 2
Flags: W
HStem: -234 47<142.754 341.117> -30 44<132.457 326.557> 112 35<153.211 252.627> 351 101<362.723 402.419> 399 34<138.823 236.686>
VStem: 22 78<200.871 354.327> 27 56<-139.464 -47.0017> 44 51<19.8401 100.604> 292 72<197.295 342.215> 373 58<-158.727 -67.4462>
LayerCount: 2
Fore
SplineSet
187 399 m 0xecc0
 137 399 100 355 100 289 c 0
 100 214 141 147 203 147 c 0
 257 147 292 196 292 258 c 0
 292 328 251 399 187 399 c 0xecc0
83 -88 m 0xe2c0
 83 -148 154 -187 246 -187 c 0
 349 -187 373 -143 373 -114 c 0
 373 -78 344 -60 333 -55 c 0
 288 -32 226 -41 122 -30 c 1
 119 -30 l 2
 112 -30 109 -34 102 -41 c 0
 90 -53 83 -71 83 -88 c 0xe2c0
22 277 m 0xf4c0
 22 361 91 433 184 433 c 0xecc0
 256 433 288 397 310 397 c 0
 329 397 349 410 362 429 c 0
 367 437 375 452 391 452 c 0
 410 452 429 431 429 411 c 0
 429 372 366 358 357 351 c 0
 355 349 353 346 353 343 c 0
 353 337 364 318 364 280 c 0
 364 188 292 112 198 112 c 0
 165 112 153 121 140 121 c 0
 122 121 95 92 95 70 c 0xf1c0
 95 10 262 37 340 14 c 0
 403 -4 431 -53 431 -97 c 0
 431 -152 388 -234 223 -234 c 0
 59 -234 27 -154 27 -108 c 0xf2c0
 27 -47 78 -22 79 -21 c 0
 80 -20 81 -19 81 -17 c 0
 81 -11 44 -2 44 43 c 0xf1c0
 44 94 100 136 101 137 c 0
 102 138 102 139 102 140 c 0
 102 150 69 153 41 204 c 0
 28 226 22 251 22 277 c 0xf4c0
EndSplineSet
EndChar

StartChar: h
Encoding: 104 104 73
Width: 514
GlyphClass: 2
Flags: W
HStem: -6 42<21.0267 80.623 293.01 367.94 444.564 497.985> 371 51<192.054 305.085> 699 20G<139.5 147>
VStem: 87 66<39.8055 348.283 385.001 609.081> 370 74<38.0009 293.71>
LayerCount: 2
Fore
SplineSet
293 8 m 2
 293 15 l 2
 293 36 306 32 350 38 c 0
 370 41 370 49 370 125 c 0
 370 269 347 308 322 335 c 1
 302 355 273 371 241 371 c 0
 198 371 159 342 154 322 c 0
 153 318 153 314 153 309 c 0
 153 303 153 69 155 62 c 0
 163 19 230 51 230 15 c 0
 230 6 228 -6 219 -6 c 0
 216 -6 176 0 127 0 c 0
 76 0 36 -6 33 -6 c 0
 21 -6 21 5 21 14 c 0
 21 31 30 30 58 36 c 0
 81 40 81 56 82 70 c 0
 85 161 87 253 87 345 c 2
 87 349 l 2
 87 430 84 588 83 594 c 0
 78 619 12 610 12 636 c 0
 12 648 26 654 28 655 c 0
 135 717 136 719 143 719 c 2
 144 719 l 2
 150 719 159 716 159 700 c 2
 158 392 l 2
 158 386 161 385 163 385 c 0
 169 385 213 422 281 422 c 0
 347 422 392 384 415 331 c 0
 435 284 440 253 444 66 c 0
 444 38 456 37 481 34 c 0
 489 33 498 30 498 16 c 0
 498 -2 493 -6 485 -6 c 0
 482 -6 444 0 394 0 c 0
 346 0 307 -6 304 -6 c 0
 295 -6 293 1 293 8 c 2
EndSplineSet
EndChar

StartChar: i
Encoding: 105 105 74
Width: 243
GlyphClass: 2
Flags: W
HStem: -6 44<18.136 93.0582 163.719 228.991> 421 20<149.5 156> 571 94<112.016 191.668>
VStem: 94 67<39.1511 336.573> 104 96<579.719 656.984>
LayerCount: 2
Fore
SplineSet
104 618 m 0xe8
 104 644 126 665 152 665 c 0
 178 665 200 644 200 619 c 0
 200 592 177 571 151 571 c 0
 125 571 104 591 104 618 c 0xe8
EndSplineSet
Refer: 203 305 S 1 0 0 1 0 0 2
EndChar

StartChar: j
Encoding: 106 106 75
Width: 232
GlyphClass: 2
Flags: HW
HStem: -231 77<-30.0167 54.2285> 422 20<152.5 158> 558 93<111.688 191.668>
VStem: 95 71<-117.424 346.052> 104 96<566.659 643.248>
LayerCount: 2
Fore
SplineSet
104 604 m 0xe8
 104 631 126 651 152 651 c 0
 178 651 200 631 200 605 c 0
 200 579 177 558 151 558 c 0
 125 558 104 578 104 604 c 0xe8
EndSplineSet
Refer: 262 567 S 1 0 0 1 0 0 2
EndChar

StartChar: k
Encoding: 107 107 76
Width: 454
GlyphClass: 2
Flags: W
HStem: -4 38<135.229 201.909 375.977 444.993> 370 45<318.514 420.766> 698 20G<122 129>
VStem: 67 68<37.2274 171.859 225.001 625.327> 243 178<335 403.957>
LayerCount: 2
Fore
SplineSet
224 12 m 2
 224 50 271 22 271 52 c 0
 271 74 169 198 168 199 c 0
 168 200 166 201 164 201 c 0
 158 201 137 176 136 172 c 0
 135 169 135 165 135 161 c 2
 135 58 l 2
 135 38 143 39 181 34 c 0
 190 32 202 29 202 13 c 0
 202 -1 194 -4 188 -4 c 0
 181 -4 158 0 111 0 c 0
 64 0 41 -4 33 -4 c 0
 20 -4 16 7 16 14 c 0
 16 48 64 21 67 56 c 1
 67 595 l 2
 67 608 64 613 55 619 c 0
 39 630 10 650 9 651 c 0
 5 655 5 659 5 659 c 1
 5 670 19 674 25 676 c 0
 120 718 120 718 124 718 c 0
 134 718 135 708 135 701 c 2
 135 229 l 2
 135 227 135 225 138 225 c 0
 140 225 143 227 144 229 c 0
 233 320 243 323 243 347 c 0
 243 376 217 375 217 389 c 2
 217 399 l 2
 217 409 227 412 238 412 c 2
 296 412 l 2
 362 412 395 415 406 415 c 0
 417 415 421 408 421 396 c 0
 421 370 401 380 363 370 c 0
 318 358 283 320 218 253 c 0
 214 249 211 247 211 244 c 0
 211 239 211 241 327 102 c 0
 353 71 381 38 429 32 c 0
 436 31 445 29 445 15 c 0
 445 3 441 -6 429 -6 c 0
 426 -6 385 0 333 0 c 0
 282 0 240 -6 237 -6 c 0
 232 -6 224 -4 224 11 c 2
 224 12 l 2
EndSplineSet
EndChar

StartChar: l
Encoding: 108 108 77
Width: 239
GlyphClass: 2
Flags: W
HStem: -5 43<18.0052 85.7427 160.703 227.907> 703 20G<143.5 152>
VStem: 87 73<39.238 609.091>
LayerCount: 2
Fore
SplineSet
228 14 m 0
 228 2 226 -6 216 -6 c 0
 213 -6 172 0 122 0 c 0
 74 0 35 -5 32 -5 c 0
 19 -5 18 6 18 13 c 2
 18 16 l 2
 18 35 25 34 59 38 c 0
 85 41 87 56 87 76 c 2
 87 585 l 2
 87 600 81 600 64 610 c 0
 24 634 11 638 11 649 c 2
 11 650 l 2
 11 658 13 656 134 719 c 0
 137 721 141 723 146 723 c 0
 158 723 160 713 160 704 c 2
 160 71 l 2
 160 39 171 41 211 34 c 0
 223 32 228 27 228 14 c 0
EndSplineSet
EndChar

StartChar: m
Encoding: 109 109 78
Width: 723
GlyphClass: 2
Flags: MW
HStem: -6 43<140.259 206.883 242.009 320.739 387.139 454.994 509.206 575.944 647.643 708.974> 371 51<176.293 286.616 417.763 533.955> 414 20G<126 133>
VStem: 78 62<36.1465 331.765> 322 66<38.0512 337.462> 576 71<37.4201 324.172>
LayerCount: 2
Fore
SplineSet
142 378 m 0xdc
 147 378 190 422 250 422 c 0
 315 422 356 368 358 367 c 0
 359 366 360 366 362 366 c 0
 370 366 366 371 404 393 c 0
 447 418 482 422 501 422 c 0
 552 422 613 395 636 313 c 0
 647 275 647 236 647 196 c 2
 647 69 l 2
 647 37 657 40 695 32 c 0
 708 30 709 21 709 14 c 0
 709 5 707 -6 694 -6 c 0
 686 -6 660 0 610 0 c 0
 559 0 533 -6 525 -6 c 0
 519 -6 509 -2 509 11 c 0
 509 31 516 29 556 37 c 0
 576 40 576 50 576 64 c 2
 576 203 l 2
 576 255 573 316 535 349 c 0
 525 357 504 371 473 371 c 0
 429 371 382 340 382 325 c 0
 382 324 388 301 388 258 c 2
 388 65 l 2
 388 62 387 60 387 57 c 2
 387 56 l 2
 387 37 395 39 436 34 c 0
 449 32 455 26 455 15 c 0
 455 6 453 -6 442 -6 c 0
 439 -6 399 0 349 0 c 0
 299 0 258 -6 256 -6 c 0
 244 -6 242 3 242 16 c 0
 242 32 254 30 296 37 c 0
 318 41 322 51 322 75 c 2
 322 260 l 2
 322 293 318 326 290 347 c 0
 273 360 248 371 220 371 c 0xdc
 176 371 150 343 144 332 c 0
 142 327 140 321 140 306 c 2
 140 65 l 2
 140 36 149 38 193 31 c 0
 207 29 207 20 207 10 c 0
 207 1 203 -6 194 -6 c 0
 191 -6 155 0 109 0 c 0
 65 0 43 -4 36 -4 c 0
 24 -4 22 6 22 16 c 0
 22 47 74 20 78 60 c 1
 78 308 l 2
 78 328 75 327 38 355 c 0
 35 357 29 361 29 367 c 0
 29 376 29 373 110 425 c 0
 121 431 123 434 129 434 c 0xbc
 137 434 138 427 138 422 c 2
 138 384 l 2
 138 381 139 378 142 378 c 0xdc
EndSplineSet
EndChar

StartChar: n
Encoding: 110 110 79
Width: 499
GlyphClass: 2
Flags: W
HStem: -6 42<11.1138 75.251 145.568 220.772 294.036 361.915 427.242 488.974> 384 49<199.31 317.254>
VStem: 76 69<38.2075 347.206> 362 65<36.1777 339.27>
LayerCount: 2
Fore
SplineSet
141 377 m 0
 141 374 143 373 144 373 c 2
 145 373 l 2
 149 373 196 432 282 433 c 1
 284 433 l 2
 329 433 416 413 426 289 c 0
 428 272 428 255 428 238 c 0
 428 221 427 203 427 65 c 2
 427 63 l 2
 427 35 440 37 475 32 c 0
 488 30 489 21 489 14 c 0
 489 -3 480 -6 474 -6 c 0
 465 -6 440 0 390 0 c 0
 346 0 310 -6 308 -6 c 0
 296 -6 294 4 294 14 c 0
 294 32 306 30 346 37 c 0
 359 39 362 44 362 61 c 2
 362 216 l 2
 362 234 361 294 349 324 c 0
 327 375 272 384 249 384 c 0
 191 384 150 337 146 319 c 0
 145 315 145 310 145 306 c 2
 145 69 l 1
 145 66 l 2
 145 55 146 41 167 38 c 0
 209 31 221 33 221 11 c 0
 221 1 217 -7 208 -7 c 0
 205 -7 164 0 115 0 c 0
 67 0 30 -6 27 -6 c 0
 21 -6 11 -2 11 12 c 0
 11 32 19 31 50 36 c 0
 75 40 76 53 76 70 c 2
 76 309 l 2
 76 333 76 331 31 365 c 0
 28 368 25 371 25 375 c 2
 25 376 l 2
 25 384 27 383 120 433 c 0
 123 435 126 437 130 437 c 0
 139 437 142 430 142 422 c 2
 142 383 l 2
 142 381 141 378 141 377 c 0
EndSplineSet
EndChar

StartChar: o
Encoding: 111 111 80
Width: 467
GlyphClass: 2
Flags: W
HStem: -19 49<167.083 305.289> 385 47<165.676 296.741>
VStem: 21 78<107.025 304.389> 378 68<109.681 295.193>
LayerCount: 2
Fore
SplineSet
21 204 m 0
 21 343 125 432 237 432 c 0
 356 432 446 338 446 204 c 0
 446 61 345 -19 233 -19 c 0
 106 -19 21 81 21 204 c 0
236 30 m 0
 321 30 378 111 378 200 c 0
 378 307 306 385 230 385 c 0
 178 385 99 343 99 209 c 0
 99 105 154 30 236 30 c 0
EndSplineSet
EndChar

StartChar: p
Encoding: 112 112 81
Width: 494
GlyphClass: 2
Flags: W
HStem: -228 46<13.3345 91.7562> -220 42<166.185 266.758> -7 34<182.8 315.77> 372 59<202.772 321.179> 421 20G<134.5 140>
VStem: 93 73<-177.901 -1.00293> 93 65<45.2268 333.699> 408 67<117.256 282.885>
LayerCount: 2
Fore
SplineSet
250 27 m 0x33
 331 27 408 95 408 195 c 0
 408 292 333 372 253 372 c 0
 240 372 213 371 187 351 c 0
 165 335 158 318 158 289 c 2
 158 74 l 2
 158 65 158 55 184 43 c 0
 204 33 227 27 250 27 c 0x33
286 431 m 0
 397 431 475 331 475 215 c 0
 475 82 376 -7 237 -7 c 0
 203 -7 175 -1 173 -1 c 0
 167 -1 166 -5 166 -12 c 2
 166 -149 l 1
 166 -152 l 2
 166 -162 167 -176 188 -178 c 0
 248 -184 268 -178 268 -209 c 0
 268 -217 265 -224 256 -224 c 0
 247 -224 218 -220 162 -220 c 0x75
 89 -220 34 -228 29 -228 c 0
 23 -228 13 -225 13 -208 c 0
 13 -190 25 -192 71 -182 c 0
 87 -179 93 -171 93 -154 c 2xa5
 93 308 l 1
 93 310 l 2
 93 315 92 325 80 330 c 0
 15 359 13 358 13 365 c 2
 13 366 l 2
 13 372 15 371 120 433 c 0
 130 438 132 441 137 441 c 0xab
 143 441 145 436 145 430 c 2
 145 371 l 2
 145 368 146 365 148 365 c 0
 153 365 185 419 263 430 c 0
 271 431 278 431 286 431 c 0
EndSplineSet
EndChar

StartChar: q
Encoding: 113 113 82
Width: 525
GlyphClass: 2
Flags: W
HStem: -235 45<290.501 370.591> -225 36<452.956 515.684> -9 61<187.768 336.033> 401 33<185.131 334.656> 426 20G<429.5 439.5>
VStem: 16 72<150.894 302.179> 374 73<-182.941 28.9978 78.3765 371.626>
LayerCount: 2
Fore
SplineSet
259 401 m 0x36
 165 401 88 327 88 233 c 0
 88 131 174 52 273 52 c 0
 310 52 353 66 366 78 c 0
 374 86 375 96 375 108 c 0
 375 131 375 155 372 343 c 0
 372 358 369 364 358 372 c 0
 329 391 294 401 259 401 c 0x36
16 213 m 0
 16 308 86 434 283 434 c 0xb6
 345 434 383 421 397 421 c 0
 426 421 424 446 435 446 c 0
 444 446 446 434 446 391 c 0
 446 382 447 373 447 364 c 2
 447 -139 l 2
 447 -183 463 -184 502 -189 c 0
 511 -191 516 -195 516 -203 c 0
 516 -212 512 -225 498 -225 c 0x6e
 492 -225 476 -223 443 -223 c 0
 367 -223 312 -235 308 -235 c 0
 297 -235 290 -228 290 -217 c 0
 290 -197 308 -197 345 -190 c 0xa6
 373 -184 374 -166 374 -150 c 2
 374 22 l 2
 374 26 372 29 368 29 c 0
 359 29 319 -9 239 -9 c 0
 118 -9 16 90 16 213 c 0
EndSplineSet
EndChar

StartChar: r
Encoding: 114 114 83
Width: 358
GlyphClass: 2
Flags: W
HStem: -6 44<12.3504 75 147.448 244.95> 346 100<247.701 330.441>
VStem: 75 72<38.4622 329.719>
LayerCount: 2
Fore
SplineSet
145 377 m 0
 149 377 222 432 249 442 c 0
 258 445 267 446 278 446 c 0
 310 446 356 430 356 402 c 2
 356 401 l 1
 355 384 337 373 329 366 c 1
 318 359 305 346 288 346 c 0
 263 346 262 371 229 371 c 0
 197 371 157 339 151 330 c 0
 147 324 147 319 147 312 c 2
 147 72 l 1
 147 68 l 2
 147 57 148 40 172 38 c 0
 232 33 245 37 245 14 c 0
 245 6 244 -6 231 -6 c 0
 228 -6 184 0 130 0 c 0
 74 0 31 -6 28 -6 c 0
 18 -6 12 1 12 11 c 0
 12 35 30 29 57 36 c 0
 71 39 75 45 75 60 c 2
 75 325 l 2
 75 345 67 344 20 378 c 0
 19 379 17 381 16 385 c 1
 16 390 17 388 121 439 c 0
 124 440 127 442 130 442 c 0
 141 442 142 431 142 422 c 2
 142 382 l 2
 142 379 143 377 145 377 c 0
EndSplineSet
EndChar

StartChar: s
Encoding: 115 115 84
Width: 338
GlyphClass: 2
Flags: W
HStem: -19 54<106.18 240.638> 380 47<98.6701 211.868> 412 20G<244 256>
VStem: 26 41<71.0105 155.78> 31 54<283.553 367.539> 230 55<295.352 359.134> 262 67<56.0454 149.045>
LayerCount: 2
Fore
SplineSet
31 309 m 0xca
 31 369 85 427 175 427 c 0xca
 205 427 220 422 225 422 c 0
 234 422 238 432 250 432 c 0
 262 432 265 418 266 413 c 0
 272 378 285 312 285 308 c 0xac
 285 295 270 292 262 292 c 0xa2
 241 292 244 321 230 341 c 0
 217 359 181 380 148 380 c 0
 114 380 85 359 85 327 c 0xcc
 85 313 90 276 164 255 c 0
 215 241 262 238 299 195 c 0
 325 165 329 132 329 116 c 0
 329 52 276 -19 177 -19 c 0
 131 -19 68 -3 39 31 c 0
 29 42 27 50 27 65 c 0
 27 92 26 111 26 125 c 0
 26 151 29 156 44 156 c 0
 69 156 53 122 67 94 c 0xd2
 77 73 123 35 181 35 c 0
 226 35 262 62 262 102 c 0
 262 168 174 178 142 187 c 0
 61 210 31 260 31 309 c 0xca
EndSplineSet
EndChar

StartChar: t
Encoding: 116 116 85
Width: 333
GlyphClass: 2
Flags: W
HStem: -19 65<156.838 241.254> 363 54<156.006 290.812>
VStem: 75 70<56.8354 362.954>
LayerCount: 2
Fore
SplineSet
40 365 m 2
 31 365 20 366 20 378 c 0
 20 395 70 413 124 505 c 0
 127 510 133 523 144 523 c 0
 150 523 157 520 157 507 c 0
 157 493 156 451 156 437 c 0
 156 420 164 417 176 417 c 2
 266 417 l 2
 269 417 271 416 274 416 c 0
 283 416 300 416 300 397 c 0
 300 391 296 374 291 368 c 0
 287 364 282 363 273 363 c 2
 156 363 l 2
 149 363 146 361 146 354 c 0
 145 167 145 144 145 120 c 0
 145 85 154 46 196 46 c 0
 244 46 283 106 305 106 c 0
 316 106 323 97 323 88 c 0
 323 80 318 74 316 71 c 0
 281 31 232 -19 177 -19 c 0
 137 -19 83 9 76 103 c 0
 75 114 75 124 75 135 c 0
 75 179 79 334 79 356 c 0
 79 361 78 365 72 365 c 2
 40 365 l 2
EndSplineSet
EndChar

StartChar: u
Encoding: 117 117 86
Width: 505
GlyphClass: 2
Flags: W
HStem: -14 21G<370 378> 377 38<7.08487 63.9033 277.108 356.564>
VStem: 64 68<95.1389 375.136> 358 71<69.1563 373.706>
LayerCount: 2
Fore
SplineSet
359 33 m 0
 354 33 303 -18 220 -18 c 0
 139 -18 79 35 67 127 c 0
 65 147 64 167 64 188 c 0
 64 220 65 333 65 349 c 0
 65 358 65 367 38 377 c 1
 20 385 7 381 7 398 c 2
 7 401 l 2
 7 408 8 414 18 415 c 0
 101 420 112 421 122 421 c 0
 130 421 132 416 132 409 c 2
 132 204 l 2
 132 174 132 137 150 101 c 0
 166 70 203 34 256 34 c 0
 294 34 323 52 341 70 c 1
 356 87 358 88 358 100 c 2
 358 346 l 2
 358 374 343 373 292 382 c 0
 282 384 277 388 277 398 c 0
 277 411 283 414 291 415 c 0
 389 418 401 419 414 419 c 0
 428 419 429 409 429 399 c 2
 429 86 l 2
 429 74 435 77 479 56 c 0
 486 53 487 50 487 44 c 0
 487 14 473 37 387 -10 c 0
 384 -12 380 -14 376 -14 c 0
 364 -14 362 -4 362 6 c 2
 362 29 l 2
 362 33 360 33 359 33 c 0
EndSplineSet
EndChar

StartChar: v
Encoding: 118 118 87
Width: 490
GlyphClass: 2
Flags: W
HStem: -25 21G<252.5 264> 374 41<143.006 218.984 298.064 371.985>
VStem: 2 141<349.5 406> 372 113<351 401>
LayerCount: 2
Fore
SplineSet
298 396 m 2
 298 401 l 2
 298 408 301 415 310 415 c 0
 318 415 342 412 390 412 c 0
 438 412 462 415 470 415 c 0
 482 415 485 406 485 396 c 0
 485 363 443 388 430 366 c 0
 427 360 427 358 424 346 c 0
 372 157 291 -3 279 -16 c 0
 275 -21 268 -25 260 -25 c 0
 245 -25 236 -11 227 6 c 0
 99 233 63 345 49 363 c 0
 29 388 2 363 2 402 c 0
 2 410 6 415 14 415 c 0
 24 415 52 412 109 412 c 0
 167 412 195 415 205 415 c 0
 217 415 219 406 219 395 c 0
 219 370 197 380 163 374 c 1
 151 373 143 366 143 356 c 0
 143 343 191 209 262 87 c 0
 263 86 266 79 271 79 c 0
 274 79 276 83 276 84 c 0
 352 217 372 343 372 359 c 0
 372 378 351 376 313 379 c 0
 308 380 298 380 298 396 c 2
EndSplineSet
EndChar

StartChar: w
Encoding: 119 119 88
Width: 752
GlyphClass: 2
Flags: W
HStem: -25 109<234.747 265.221 515.394 546.266> 376 39<394.084 474.998 565.092 643.881 697.814 749.859>
LayerCount: 2
Fore
SplineSet
735 415 m 0
 745 415 750 408 750 398 c 0
 750 372 728 377 719 376 c 0
 676 367 709 300 548 0 c 0
 538 -19 531 -25 520 -25 c 0
 501 -25 490 0 443 87 c 1
 380 209 381 210 377 210 c 0
 374 210 374 210 337 131 c 1
 270 -4 270 -7 262 -16 c 0
 258 -21 252 -25 244 -25 c 0
 232 -25 224 -16 215 1 c 0
 108 204 57 350 50 362 c 0
 34 390 6 365 6 398 c 0
 6 407 9 415 24 415 c 0
 31 415 54 412 98 412 c 2
 101 412 l 2
 144 412 166 415 173 415 c 0
 180 415 185 410 185 398 c 0
 185 361 123 392 123 362 c 0
 123 357 126 349 129 343 c 0
 162 256 200 172 241 92 c 0
 242 90 245 84 251 84 c 0
 257 84 261 91 261 92 c 0
 300 152 351 252 352 267 c 1
 352 268 l 2
 352 276 318 346 314 352 c 0
 289 391 239 360 239 392 c 0
 239 406 242 415 255 415 c 0
 265 415 296 412 358 412 c 0
 420 412 451 415 461 415 c 0
 472 415 475 407 475 400 c 2
 475 394 l 2
 475 378 473 381 417 376 c 0
 407 375 394 371 394 355 c 0
 394 336 454 202 519 99 c 0
 524 90 529 85 535 85 c 0
 543 85 546 91 547 94 c 0
 619 221 644 343 644 354 c 0
 644 378 626 375 583 378 c 0
 573 379 565 382 565 398 c 0
 565 406 566 415 577 415 c 0
 584 415 608 411 655 411 c 0
 703 411 727 415 735 415 c 0
EndSplineSet
EndChar

StartChar: x
Encoding: 120 120 89
Width: 443
GlyphClass: 2
Flags: W
HStem: -4 42<245.243 306.998 387.004 433.968> -4 30<119.588 175.827> 376 39<11.0516 62.125 150.007 201.163 344.166 422.852>
VStem: 181 68<202.618 231.317>
DStem2: 64 53 129 76 0.613452 0.789732<29.9269 185.508 264.054 389.539> 164 338 177 216 0.630781 -0.775961<-27.1583 95.9275 152.083 312.756>
LayerCount: 2
Fore
SplineSet
24 415 m 0x70
 32 415 57 412 106 412 c 0
 156 412 181 415 189 415 c 0
 199 415 201 408 201 401 c 2
 201 399 l 2
 201 395 202 393 202 390 c 0
 202 378 195 379 166 376 c 0
 159 375 150 372 150 362 c 0
 150 354 159 345 164 338 c 0
 222 264 220 263 224 263 c 0
 226 263 227 264 229 266 c 0
 290 347 299 358 299 364 c 0
 299 386 250 366 250 390 c 0
 250 407 253 415 263 415 c 0
 270 415 291 412 334 412 c 2
 337 412 l 2
 381 412 403 415 410 415 c 0
 420 415 423 407 423 400 c 0
 423 379 416 380 386 376 c 0
 357 372 350 364 334 345 c 1
 249 233 249 235 249 231 c 0
 249 228 249 229 387 54 c 0
 402 34 404 36 424 32 c 0
 429 31 434 30 434 20 c 0
 434 6 433 -4 419 -4 c 0
 411 -4 387 0 338 0 c 0
 289 0 265 -4 257 -4 c 0
 246 -4 245 5 245 13 c 0
 245 37 266 30 295 38 c 0xb0
 304 41 307 46 307 51 c 0
 307 55 304 59 303 61 c 0
 211 175 212 174 210 176 c 0
 209 176 208 177 207 177 c 0
 202 177 203 176 129 76 c 0
 116 59 115 57 115 51 c 0
 115 26 164 39 174 26 c 0
 176 23 176 19 176 16 c 0
 176 4 174 -4 163 -4 c 0
 156 -4 135 0 91 0 c 0
 48 0 26 -5 19 -5 c 0
 9 -5 9 6 9 16 c 0
 9 42 40 30 55 42 c 0
 59 45 61 49 64 53 c 0
 181 206 181 203 181 209 c 0
 181 212 179 214 177 216 c 0
 41 385 56 372 29 376 c 0
 13 378 11 385 11 398 c 0
 11 413 19 415 24 415 c 0x70
EndSplineSet
EndChar

StartChar: y
Encoding: 121 121 90
Width: 468
GlyphClass: 2
Flags: W
HStem: -223 21G<81 106.5> 376 39<136.006 187.914 277.065 343.956 405.081 462.995>
LayerCount: 2
Fore
SplineSet
92 -223 m 0
 70 -223 53 -207 53 -187 c 0
 53 -147 104 -135 141 -100 c 0
 167 -76 208 -13 208 15 c 0
 208 37 179 99 97 263 c 0
 79 297 44 362 42 365 c 0
 26 386 4 365 4 398 c 0
 4 408 7 415 18 415 c 0
 25 415 49 412 96 412 c 0
 143 412 167 415 175 415 c 0
 186 415 188 407 188 399 c 0
 188 377 181 379 151 376 c 0
 144 375 136 373 136 362 c 0
 136 353 177 244 245 116 c 0
 245 114 247 110 252 110 c 0
 258 110 260 118 262 120 c 1
 314 244 344 322 344 355 c 0
 344 379 329 375 296 378 c 0
 287 379 277 382 277 397 c 0
 277 408 284 415 296 415 c 0
 303 415 327 412 374 412 c 2
 375 412 l 2
 421 412 444 415 451 415 c 0
 463 415 463 406 463 395 c 0
 463 379 456 380 424 376 c 0
 403 373 415 373 345 199 c 1
 300 90 239 -50 166 -161 c 0
 142 -198 121 -223 92 -223 c 0
EndSplineSet
EndChar

StartChar: z
Encoding: 122 122 91
Width: 361
GlyphClass: 2
Flags: W
HStem: 0 65<106.006 290.69> 355 62<83.8823 234.993>
VStem: 39 35<294.02 354.03> 291 47<-92.6147 -3.0012e-08> 309 41<65.8229 140.75>
LayerCount: 2
Fore
SplineSet
65 454 m 2xf0
 71 454 l 2
 94 454 74 417 99 417 c 2
 317 417 l 2
 329 417 339 413 339 402 c 0
 339 396 335 392 333 388 c 0
 107 81 106 83 106 76 c 0
 106 66 114 65 122 65 c 2
 267 65 l 2
 273 65 279 64 282 64 c 0
 301 64 299 74 309 125 c 0
 310 128 312 141 326 141 c 0
 333 141 350 138 350 124 c 0xe8
 350 120 337 61 337 -19 c 0
 337 -51 338 -67 338 -73 c 0
 338 -88 328 -93 308 -93 c 0
 294 -93 291 -85 291 -75 c 2
 291 -15 l 2
 291 -1 283 0 274 0 c 2
 42 0 l 2
 16 0 12 14 12 23 c 0
 12 35 20 45 25 53 c 2
 229 328 l 2
 232 331 235 336 235 341 c 0
 235 352 225 355 215 355 c 2
 96 355 l 2
 82 355 83 349 74 310 c 0
 73 307 71 294 57 294 c 0
 52 294 39 297 39 307 c 0
 39 310 49 351 49 409 c 2
 49 439 l 2
 49 451 57 454 65 454 c 2xf0
EndSplineSet
EndChar

StartChar: braceleft
Encoding: 123 123 92
Width: 251
GlyphClass: 2
Flags: W
HStem: 700 20G<162.5 189>
VStem: 45 77<240.115 270.308> 73 64<-147.001 59.8049 494.524 665.89> 105 60<24.5381 215.922 297.492 513.796>
LayerCount: 2
Fore
SplineSet
45 256 m 0xc0
 45 263 104 271 104 359 c 0
 104 436 77 505 77 586 c 0
 77 691 141 720 184 720 c 0
 194 720 208 719 208 715 c 0
 208 711 166 701 148 650 c 0
 143 635 141 620 141 604 c 0
 141 546 168 488 168 411 c 0
 168 315 122 263 122 254 c 0xc0
 122 244 165 206 165 120 c 0x90
 165 55 137 -7 137 -70 c 0
 137 -162 201 -192 201 -195 c 0
 201 -197 198 -198 185 -198 c 0
 140 -198 73 -167 73 -57 c 0xa0
 73 20 105 84 105 148 c 0x90
 105 229 49 251 46 254 c 0
 45 255 45 255 45 256 c 0xc0
EndSplineSet
EndChar

StartChar: bar
Encoding: 124 124 93
Width: 153
GlyphClass: 2
Flags: W
HStem: 698 20G<68.5 86.5>
VStem: 50 53<-197.934 717.913>
LayerCount: 2
Fore
SplineSet
77 -198 m 2
 73 -198 l 2
 63 -198 50 -197 50 -185 c 2
 50 705 l 2
 50 717 63 718 74 718 c 2
 76 718 l 2
 97 718 103 715 103 705 c 2
 103 -185 l 2
 103 -193 100 -198 77 -198 c 2
EndSplineSet
EndChar

StartChar: braceright
Encoding: 125 125 94
Width: 251
GlyphClass: 2
Flags: W
HStem: 700 20G<65.5 91.5>
VStem: 89 60<24.5381 215.905 296.882 513.796> 117 64<-147.001 59.8049 494.524 666.135> 132 77<240.03 269.121>
LayerCount: 2
Fore
SplineSet
177 586 m 0x90
 177 505 150 436 150 359 c 0
 150 274 204 262 208 259 c 0
 209 258 209 258 209 257 c 0x90
 209 255 208 253 205 252 c 0
 172 234 149 200 149 148 c 0xc0
 149 84 181 20 181 -57 c 0
 181 -167 114 -198 69 -198 c 0
 56 -198 53 -197 53 -195 c 0
 53 -192 117 -162 117 -70 c 0xa0
 117 -7 89 55 89 120 c 0xc0
 89 207 132 244 132 254 c 0
 132 258 129 262 128 264 c 0
 96 314 86 367 86 411 c 0
 86 488 113 546 113 604 c 0
 113 693 46 710 46 715 c 0
 46 719 61 720 70 720 c 0
 113 720 177 691 177 586 c 0x90
EndSplineSet
EndChar

StartChar: asciitilde
Encoding: 126 126 95
Width: 451
GlyphClass: 2
Flags: W
HStem: 183 71<236.303 342.652> 242 70<92.9183 188.615>
LayerCount: 2
Fore
SplineSet
40 173 m 0x40
 35 173 24 187 24 193 c 0
 24 197 61 259 83 281 c 0
 97 296 120 312 149 312 c 0x40
 208 312 240 254 299 254 c 0
 355 254 388 309 397 314 c 0
 399 315 401 316 403 316 c 0
 408 316 427 308 427 298 c 0
 427 291 361 183 277 183 c 0x80
 209 183 187 242 133 242 c 0
 98 242 73 218 47 178 c 0
 46 176 44 173 40 173 c 0x40
EndSplineSet
EndChar

StartChar: exclamdown
Encoding: 161 161 97
Width: 325
GlyphClass: 2
Flags: W
HStem: -16 21G<127.5 134.5> 572 102<117.887 201.265>
VStem: 108 103<582.181 664.265> 122 95<20.366 289.904> 166 33<367.851 461.971>
LayerCount: 2
Fore
SplineSet
132 -16 m 0xd0
 123 -16 122 -9 122 9 c 2
 122 32 l 2xd0
 122 246 160 425 166 446 c 0
 168 452 173 462 183 462 c 0
 197 462 199 445 199 429 c 2
 199 416 l 1xc8
 204 193 217 47 217 46 c 0
 217 33 212 28 204 24 c 0
 136 -16 137 -16 132 -16 c 0xd0
160 572 m 0
 132 572 108 595 108 623 c 0
 108 650 130 674 159 674 c 0
 186 674 211 653 211 623 c 0xe0
 211 592 187 572 160 572 c 0
EndSplineSet
EndChar

StartChar: dieresis
Encoding: 168 168 98
Width: 255
GlyphClass: 2
Flags: W
HStem: 571 94<20.332 99.9316 155.332 234.932>
VStem: 12 96<579.068 656.984> 147 96<579.068 656.984>
LayerCount: 2
Fore
SplineSet
147 618 m 0
 147 644 170 665 195 665 c 0
 222 665 243 644 243 619 c 0
 243 592 221 571 195 571 c 0
 169 571 147 591 147 618 c 0
12 618 m 0
 12 644 35 665 60 665 c 0
 87 665 108 644 108 619 c 0
 108 592 86 571 60 571 c 0
 34 571 12 591 12 618 c 0
EndSplineSet
EndChar

StartChar: copyright
Encoding: 169 169 99
Width: 772
GlyphClass: 2
Flags: W
HStem: -24 51<278.469 494.439> 88 38<321.097 470.988> 520 34<316.956 457.544> 637 52<275.379 496.213>
VStem: 30 51<221.604 443.858> 151 66<234.315 415.614> 559 25<222.277 259.891> 691 51<218.952 443.657>
LayerCount: 2
Fore
SplineSet
386 27 m 0
 548 27 691 157 691 333 c 0
 691 495 560 637 385 637 c 0
 214 637 81 498 81 332 c 0
 81 160 222 27 386 27 c 0
30 332 m 0
 30 525 185 689 386 689 c 0
 585 689 742 526 742 332 c 0
 742 141 589 -24 385 -24 c 0
 193 -24 30 131 30 332 c 0
550 384 m 0
 520 384 543 422 515 458 c 0
 489 490 444 520 386 520 c 0
 302 520 217 451 217 332 c 0
 217 216 297 126 395 126 c 0
 464 126 535 172 559 250 c 0
 562 257 568 260 573 260 c 0
 580 260 584 256 584 250 c 2
 584 250 570 167 569 152 c 0
 568 141 565 134 551 134 c 2
 533 134 l 2
 519 134 522 131 504 121 c 0
 463 97 420 88 385 88 c 0
 254 88 151 194 151 320 c 0
 151 447 256 554 388 554 c 0
 472 554 501 521 514 521 c 0
 522 521 518 544 538 544 c 0
 543 544 548 543 550 534 c 0
 562 452 567 417 567 401 c 0
 567 391 566 384 550 384 c 0
EndSplineSet
EndChar

StartChar: guillemotleft
Encoding: 171 171 100
Width: 365
GlyphClass: 2
Flags: W
HStem: 52 282<180 192 320 333>
VStem: 22 80<171.745 215.713> 163 79<171.745 215.713>
LayerCount: 2
Fore
SplineSet
185 334 m 0
 193 334 202 322 202 315 c 0
 202 309 202 310 105 201 c 0
 104 199 102 197 102 194 c 0
 102 188 105 186 197 79 c 0
 199 77 201 74 201 71 c 0
 201 63 192 52 184 52 c 0
 179 52 180 52 28 184 c 0
 25 186 22 189 22 193 c 0
 22 198 26 201 29 204 c 0
 181 334 180 334 185 334 c 0
326 334 m 0
 334 334 343 322 343 315 c 0
 343 309 343 310 246 201 c 0
 244 199 242 197 242 194 c 0
 242 188 246 186 337 79 c 0
 340 77 341 74 341 71 c 0
 341 63 333 52 325 52 c 0
 319 52 321 52 169 184 c 0
 166 186 163 189 163 193 c 0
 163 198 166 201 170 204 c 0
 322 334 320 334 326 334 c 0
EndSplineSet
EndChar

StartChar: logicalnot
Encoding: 172 172 101
Width: 701
GlyphClass: 2
Flags: W
HStem: 231 57<53 592>
VStem: 592 57<41.0781 231>
LayerCount: 2
Fore
SplineSet
76 231 m 2
 61 231 53 235 53 253 c 2
 53 266 l 2
 53 287 66 288 77 288 c 2
 641 288 l 2
 648 288 649 285 649 279 c 2
 649 61 l 2
 649 48 646 41 630 41 c 2
 616 41 l 2
 595 41 592 53 592 67 c 2
 592 231 l 1
 76 231 l 2
EndSplineSet
EndChar

StartChar: registered
Encoding: 174 174 102
Width: 519
GlyphClass: 2
Flags: W
HStem: 335 37<185.27 334.574> 419 27<146.018 178 349.745 384.28> 542 18<216.119 253.266> 657 19<142.608 175.333 213.002 267.187> 719 36<185.27 332.161>
VStem: 50 35<471.505 618.161> 178 36<445.157 542 560 650 651 652.047> 291 37<568.344 643.871> 433 36<471.505 618.161>
DStem2: 286 548 252 537 0.587113 -0.809505<0 131.605>
LayerCount: 2
Fore
SplineSet
242 676 m 0
 308 676 328 637 328 610 c 0
 328 573 296 552 286 548 c 1
 314 516 326 497 344 468 c 0
 350 457 360 446 370 446 c 0
 378 446 378 454 386 454 c 0
 388 454 392 451 392 447 c 0
 392 442 380 419 358 419 c 0
 342 419 328 431 318 446 c 2
 252 537 l 2
 250 541 250 542 244 542 c 2
 218 542 l 2
 216 542 216 542 216 539 c 2
 216 456 l 2
 216 455 215 454 215 454 c 1
 215 437 258 454 258 432 c 0
 258 425 254 421 248 421 c 0
 242 421 230 423 202 423 c 0
 174 423 160 421 156 421 c 0
 148 421 146 427 146 433 c 0
 146 443 152 442 170 445 c 1
 178 445 178 449 178 455 c 2
 178 641 l 2
 178 651 169 650 150 654 c 0
 146 654 142 657 142 662 c 0
 142 668 144 671 150 671 c 2
 162 671 l 2
 194 671 218 676 242 676 c 0
291 604 m 0
 291 632 270 657 234 657 c 0
 215 657 213 653 213 651 c 1
 214 650 l 1
 214 564 l 2
 214 560 216 560 234 560 c 0
 286 560 291 587 291 604 c 0
258 372 m 0
 354 372 433 451 433 544 c 0
 433 640 354 719 258 719 c 0
 165 719 85 640 85 544 c 0
 85 451 165 372 258 372 c 0
258 335 m 0
 143 335 50 430 50 544 c 0
 50 661 143 755 258 755 c 0
 375 755 469 661 469 544 c 0
 469 430 375 335 258 335 c 0
EndSplineSet
EndChar

StartChar: degree
Encoding: 176 176 103
Width: 212
GlyphClass: 2
Flags: W
HStem: 496 38<67.3347 146.833> 653 37<67.5418 145.575>
VStem: 12 40<548.199 639.382> 162 38<548.7 637.058>
LayerCount: 2
Fore
SplineSet
106 690 m 0
 159 690 200 645 200 593 c 0
 200 540 158 496 106 496 c 0
 55 496 12 539 12 593 c 0
 12 647 55 690 106 690 c 0
106 653 m 0
 75 653 52 626 52 594 c 0
 52 561 76 534 107 534 c 0
 140 534 162 563 162 593 c 0
 162 624 138 653 106 653 c 0
EndSplineSet
EndChar

StartChar: plusminus
Encoding: 177 177 104
Width: 701
GlyphClass: 2
Flags: W
HStem: -12 57<53 648.948> 280 58<53 322 379 648.948>
VStem: 322 57<71 280 338 546.977>
LayerCount: 2
Fore
SplineSet
76 280 m 2
 61 280 53 285 53 302 c 2
 53 316 l 2
 53 336 66 338 77 338 c 2
 322 338 l 1
 322 531 l 2
 322 545 330 547 342 547 c 2
 356 547 l 2
 376 547 379 539 379 526 c 2
 379 338 l 1
 629 338 l 2
 641 338 649 334 649 318 c 2
 649 304 l 2
 649 281 635 280 622 280 c 2
 379 280 l 1
 379 89 l 2
 379 73 371 71 358 71 c 2
 344 71 l 2
 325 71 322 78 322 90 c 2
 322 280 l 1
 76 280 l 2
76 -12 m 2
 62 -12 53 -9 53 10 c 2
 53 23 l 2
 53 44 66 45 77 45 c 2
 629 45 l 2
 641 45 649 42 649 26 c 2
 649 12 l 2
 649 -11 635 -12 622 -12 c 2
 76 -12 l 2
EndSplineSet
EndChar

StartChar: acute
Encoding: 180 180 105
Width: 227
GlyphClass: 2
Flags: W
HStem: 474 227
VStem: 15 197
LayerCount: 2
Fore
SplineSet
175 701 m 0
 195 701 212 686 212 664 c 0
 212 646 201 633 188 619 c 0
 142 572 54 483 49 479 c 0
 45 476 40 474 34 474 c 0
 22 474 15 484 15 494 c 0
 15 507 17 507 120 659 c 0
 129 673 146 701 175 701 c 0
EndSplineSet
EndChar

StartChar: paragraph
Encoding: 182 182 106
Width: 750
GlyphClass: 2
Flags: W
HStem: -204 53<606.812 684.35> -18 36<300.806 410.564> 679 31<341.197 437.5> 694 39<593.204 669.63>
VStem: 26 172<173.297 423.162> 365 26<175.738 468.644> 444 37<128.563 491.261> 670 54<640.104 693.031>
LayerCount: 2
Fore
SplineSet
444 315 m 0xcf
 444 498 497 599 497 607 c 0
 497 620 476 653 466 653 c 0
 464 653 463 651 461 649 c 0
 416 560 391 457 391 323 c 0
 391 196 426 52 438 52 c 0
 444 52 462 76 468 91 c 1
 460 135 444 225 444 315 c 0xcf
439 665 m 0
 439 674 409 679 396 679 c 0xef
 310 679 252 576 226 500 c 0
 207 443 198 382 198 321 c 2
 198 320 l 2
 198 147 263 18 359 18 c 0
 380 18 412 28 412 39 c 0
 412 48 365 142 365 313 c 0
 365 541 439 653 439 665 c 0
647 633 m 0
 647 652 670 658 670 674 c 0
 670 682 663 694 642 694 c 0xdf
 595 694 556 645 543 618 c 0
 491 513 481 410 481 321 c 2
 481 317 l 1
 482 125 532 -24 574 -89 c 0
 593 -117 618 -143 632 -151 c 0
 648 -160 685 -151 685 -177 c 0
 685 -193 667 -204 647 -204 c 2
 643 -204 l 2
 632 -204 613 -202 585 -175 c 0
 560 -151 544 -120 528 -90 c 0
 497 -30 492 -11 477 42 c 1
 448 17 426 -11 328 -17 c 0
 321 -17 315 -18 308 -18 c 0
 139 -18 26 122 26 295 c 0
 26 537 222 710 390 710 c 0xef
 482 710 518 656 525 656 c 0
 534 656 540 682 588 711 c 0
 609 724 632 733 657 733 c 0xdf
 703 733 724 700 724 673 c 0
 724 636 691 612 670 612 c 0
 658 612 647 620 647 633 c 0
EndSplineSet
EndChar

StartChar: periodcentered
Encoding: 183 183 107
Width: 227
GlyphClass: 2
Flags: W
HStem: 201 117<67.9846 158.932>
VStem: 54 119<214.578 303.753>
LayerCount: 2
Fore
SplineSet
113 318 m 0
 145 318 173 292 173 259 c 0
 173 228 148 201 114 201 c 0
 83 201 54 225 54 260 c 0
 54 295 82 318 113 318 c 0
EndSplineSet
EndChar

StartChar: cedilla
Encoding: 184 184 108
Width: 199
GlyphClass: 2
Flags: W
HStem: -199 36<27.665 118.434>
VStem: 46 47<-77.5 -20.3329> 122 61<-160.177 -95.2734>
LayerCount: 2
Fore
SplineSet
101 -199 m 0
 69 -199 27 -190 22 -186 c 0
 20 -184 19 -182 19 -179 c 0
 19 -178 22 -155 33 -155 c 0
 34 -155 65 -163 84 -163 c 0
 107 -163 122 -150 122 -130 c 0
 122 -104 93 -82 51 -79 c 0
 50 -79 46 -79 46 -76 c 0
 46 -74 67 -22 78 5 c 1
 109 5 l 1
 104 -11 93 -43 93 -44 c 0
 93 -46 93 -47 97 -47 c 2
 99 -47 l 2
 147 -47 183 -73 183 -123 c 0
 183 -156 167 -199 101 -199 c 0
EndSplineSet
EndChar

StartChar: guillemotright
Encoding: 187 187 109
Width: 365
GlyphClass: 2
Flags: W
HStem: 52 282<32 45 174 186>
VStem: 123 79<171.321 215.498> 263 79<171.129 215.713>
LayerCount: 2
Fore
SplineSet
180 334 m 0
 186 334 183 334 336 204 c 0
 340 201 342 198 342 193 c 0
 342 189 340 186 336 184 c 1
 185 52 186 52 180 52 c 0
 174 52 164 61 164 70 c 0
 164 76 165 75 260 185 c 0
 262 188 263 190 263 193 c 0
 263 195 262 198 260 201 c 0
 163 310 162 309 162 315 c 0
 162 324 172 334 180 334 c 0
40 334 m 0
 45 334 49 329 194 204 c 0
 200 200 202 196 202 193 c 0
 202 190 200 187 196 184 c 0
 45 52 46 52 40 52 c 0
 32 52 24 61 24 70 c 0
 24 76 26 78 118 185 c 0
 121 188 123 191 123 194 c 0
 123 196 122 198 120 201 c 2
 26 305 l 2
 24 308 22 311 22 315 c 0
 22 324 32 334 40 334 c 0
EndSplineSet
EndChar

StartChar: questiondown
Encoding: 191 191 110
Width: 380
GlyphClass: 2
Flags: W
HStem: -16 38<137.806 231.719> -7 103<256.943 320.057> 572 118<147.34 238.609>
VStem: 15 85<60.8065 202.07> 133 120<586.247 675.996> 181 52<345.138 480.296>
LayerCount: 2
Fore
SplineSet
193 572 m 0x38
 161 572 133 598 133 631 c 0
 133 662 159 690 193 690 c 0
 224 690 253 665 253 630 c 0
 253 595 224 572 193 572 c 0x38
192 -16 m 0xb4
 64 -16 15 72 15 131 c 0
 15 256 181 283 181 423 c 0
 181 432 180 438 180 445 c 0
 180 472 196 481 206 481 c 0
 217 481 233 473 233 426 c 0
 233 295 100 241 100 126 c 0
 100 69 138 22 187 22 c 0xb4
 251 22 245 96 295 96 c 0
 319 96 337 76 337 52 c 0
 337 40 334 6 273 -7 c 0x74
 247 -13 219 -16 192 -16 c 0xb4
EndSplineSet
EndChar

StartChar: AE
Encoding: 198 198 117
Width: 1010
GlyphClass: 2
Flags: MW
HStem: -6 45<-3.94116 79.1425 181.881 269.971> 0 62<607.348 730.546> 0 55<639.454 874.356> 300 52<322.58 517> 369 58<608.877 817.602> 638 54<609.095 872.107>
VStem: 517 89<65 300 352 366.058 427 630.512> 819 54<271.329 368.925 428.417 512.682> 909 44<525.207 582.383>
LayerCount: 2
Back
SplineSet
508 352 m 6x3980
 512 352 517 354 517 361 c 6
 517 619 l 5
 516 627 512 631 507 631 c 4
 503 631 499 629 496 626 c 4
 452 581 321 366 321 356 c 4
 321 352 326 352 330 352 c 6
 508 352 l 6x3980
308 675 m 4
 308 680 311 701 322 701 c 4xb380
 331 701 359 697 459 693 c 4x3980
 510 691 903 693 912 691 c 4
 921 688 923 682 924 675 c 4
 931 631 953 548 953 544 c 4
 953 533 940 525 928 525 c 4
 920 525 913 528 909 535 c 4
 902 547 869 618 862 629 c 4
 856 638 849 638 830 638 c 6
 639 638 l 6
 608 638 608 618 608 596 c 6
 608 449 l 6
 608 439 609 427 628 427 c 6
 781 427 l 6
 817 427 819 440 819 473 c 6
 819 491 l 6
 819 501 822 513 846 513 c 4
 872 513 873 495 873 484 c 6
 873 300 l 6
 873 289 872 271 846 271 c 4
 820 271 819 284 819 293 c 6
 819 332 l 6
 819 363 816 369 793 369 c 6
 655 369 l 6
 631 369 606 367 606 329 c 6
 606 108 l 6
 606 78 607 66 638 62 c 4
 669 57 701 55 732 55 c 4
 802 55 862 66 875 76 c 4
 893 90 928 173 944 183 c 4
 947 185 951 186 954 186 c 4
 963 186 972 178 972 163 c 4
 972 156 970 148 941 20 c 4
 937 0 926 0 906 0 c 6
 571 0 l 6x7580
 462 0 448 -6 434 -6 c 4
 423 -6 417 5 417 15 c 4
 417 60 495 25 513 65 c 4
 517 73 517 83 517 94 c 6
 517 291 l 5
 516 299 510 300 506 300 c 6
 340 300 l 6
 287 300 289 299 283 289 c 4
 226 200 180 91 180 72 c 4
 180 44 206 46 252 39 c 4
 260 38 270 35 270 16 c 4
 270 7 267 -6 253 -6 c 4xb180
 249 -6 196 0 132 0 c 4x7180
 67 0 16 -6 12 -6 c 4
 1 -6 -4 5 -4 15 c 4
 -4 24 -1 33 7 36 c 4
 22 41 56 41 77 59 c 4
 100 79 117 140 253 360 c 4
 389 580 425 609 425 625 c 4
 425 643 399 642 328 653 c 4xb380
 312 655 308 665 308 675 c 4
EndSplineSet
Fore
SplineSet
517 352 m 1x1f80
 517 631 l 1
 513 631 499 629 496 626 c 0
 452 581 321 362 321 352 c 1
 517 352 l 1x1f80
308 675 m 0
 308 680 311 701 322 701 c 0
 331 701 359 697 459 693 c 0
 484 692 595 692 701 692 c 0
 807 692 907 692 912 691 c 0
 921 688 923 682 924 675 c 0
 931 631 953 548 953 544 c 0
 953 533 940 525 928 525 c 0
 920 525 913 528 909 535 c 0
 902 547 869 627 862 638 c 1
 639 638 l 2
 608 638 608 618 608 596 c 2
 608 449 l 2
 608 439 609 427 628 427 c 2
 781 427 l 2
 817 427 819 440 819 473 c 2
 819 491 l 2
 819 501 822 513 846 513 c 0
 872 513 873 495 873 484 c 2
 873 300 l 2
 873 289 872 271 846 271 c 0
 820 271 819 284 819 293 c 2
 819 332 l 2
 819 363 816 369 793 369 c 2
 655 369 l 2
 631 369 606 367 606 329 c 2
 606 108 l 2
 606 78 607 66 638 62 c 0x5f80
 669 57 701 55 732 55 c 0
 802 55 862 66 875 76 c 0
 893 90 928 173 944 183 c 0
 947 185 951 186 954 186 c 0
 963 186 972 178 972 163 c 0
 972 156 970 148 941 20 c 0
 937 0 926 0 906 0 c 2
 434 0 l 2x3f80
 423 0 417 5 417 15 c 0
 417 60 499 25 517 65 c 1
 517 300 l 1
 340 300 l 2
 287 300 289 299 283 289 c 0
 226 200 180 91 180 72 c 0
 180 44 206 46 252 39 c 0
 260 38 270 35 270 16 c 0
 270 7 267 -6 253 -6 c 0x9f80
 249 -6 196 0 132 0 c 0x3f80
 67 0 16 -6 12 -6 c 0x9f80
 1 -6 -4 5 -4 15 c 0
 -4 24 -1 33 7 36 c 0
 22 41 56 41 77 59 c 0
 100 79 117 140 253 360 c 0
 389 580 425 609 425 625 c 0
 425 643 399 642 328 653 c 0
 312 655 308 665 308 675 c 0
EndSplineSet
EndChar

StartChar: Ccedilla
Encoding: 199 199 118
Width: 700
GlyphClass: 2
Flags: W
HStem: -195 36<325.143 416.233> -23 50<300.541 363 390.001 498.99> 439 21G<629 650.5> 650 46<283.328 486.406>
VStem: 19 96<229.101 451.697> 420 61<-156.256 -91.5187> 613 49<439.285 545.701>
LayerCount: 2
Fore
SplineSet
363 -23 m 1
 167 -14 19 147 19 335 c 0
 19 436 65 531 130 594 c 0
 198 659 292 696 385 696 c 2
 386 696 l 2
 507 696 569 643 582 643 c 0
 599 643 592 674 611 679 c 0
 614 679 620 680 622 680 c 0
 632 680 634 674 635 668 c 0
 635 667 662 466 662 456 c 0
 662 449 659 439 642 439 c 0
 616 439 618 446 613 486 c 0
 609 513 605 529 587 552 c 0
 546 604 475 650 383 650 c 0
 246 650 115 539 115 354 c 0
 115 170 240 27 396 27 c 0
 511 27 620 104 657 224 c 0
 658 227 660 237 672 237 c 0
 679 237 688 234 688 226 c 1
 688 226 666 70 663 63 c 1
 659 48 646 47 641 47 c 2
 640 47 l 1
 612 47 l 2
 588 47 586 39 565 26 c 0
 513 -4 455 -21 396 -24 c 1
 391 -37 390 -39 390 -40 c 0
 390 -42 391 -43 394 -43 c 2
 397 -43 l 2
 445 -43 481 -69 481 -119 c 2
 481 -120 l 2
 481 -152 464 -195 399 -195 c 0
 367 -195 324 -186 320 -182 c 0
 317 -180 316 -178 316 -175 c 0
 316 -174 319 -151 330 -151 c 0
 331 -151 363 -159 382 -159 c 0
 404 -159 420 -146 420 -127 c 0
 420 -100 391 -78 349 -75 c 0
 347 -75 344 -75 344 -72 c 0
 344 -71 356 -40 363 -23 c 1
EndSplineSet
EndChar

StartChar: multiply
Encoding: 215 215 133
Width: 552
GlyphClass: 2
Flags: W
DStem2: 63 86 277 219 0.707107 0.707107<23.0541 245.366 302.642 523.883> 277 300 237 259 0.707107 -0.707107<-220.441 0.0306047 57.9828 280.295>
LayerCount: 2
Fore
SplineSet
54 69 m 0
 54 76 58 81 63 86 c 2
 237 259 l 1
 65 432 53 439 53 450 c 0
 53 458 73 482 87 482 c 2
 88 482 l 2
 99 482 100 478 277 300 c 1
 463 485 457 483 467 484 c 1
 468 484 l 2
 476 484 500 463 500 450 c 2
 500 449 l 2
 500 438 496 437 318 259 c 1
 500 77 501 80 501 69 c 0
 501 59 480 36 468 36 c 0
 461 36 456 40 451 45 c 2
 277 219 l 1
 95 37 98 36 87 36 c 0
 77 36 54 57 54 69 c 0
EndSplineSet
EndChar

StartChar: Oslash
Encoding: 216 216 134
Width: 778
GlyphClass: 2
Flags: W
HStem: -24 58<292.657 500.654> 667 53<268.469 479.38>
VStem: 18 95<244.676 473.525> 661 99<215.912 457.417>
DStem2: 183 44 196 -39 0.482254 0.876032<-79.7358 0 70.7106 665.33 734.538 805.635>
LayerCount: 2
Fore
SplineSet
760 337 m 0
 760 127 596 -24 401 -24 c 0
 341 -24 282 -9 228 18 c 1
 197 -39 199 -36 196 -39 c 0
 193 -41 188 -44 177 -44 c 0
 158 -44 143 -42 143 -31 c 2
 143 -30 l 2
 143 -27 144 -28 183 44 c 1
 82 113 19 230 18 353 c 1
 18 556 186 720 387 720 c 0
 438 720 489 709 536 689 c 1
 566 745 563 745 581 745 c 0
 611 745 617 735 617 729 c 0
 617 723 611 715 583 664 c 1
 693 595 760 469 760 337 c 0
113 384 m 0
 113 293 140 180 217 106 c 1
 505 633 l 1
 464 655 418 667 371 667 c 0
 247 667 113 582 113 384 c 0
397 34 m 0
 511 34 661 109 661 319 c 0
 661 419 630 531 549 602 c 1
 258 73 l 1
 296 50 342 34 397 34 c 0
EndSplineSet
EndChar

StartChar: germandbls
Encoding: 223 223 140
Width: 529
GlyphClass: 2
Flags: W
HStem: -19 56<332.655 442.874> -6 45<18.1294 80.4949 152.236 217.996> 360 47<9.65625 81.9186> 659 60<213.74 316.602>
VStem: 82 71<38.5658 359.712 410.048 563.25> 252 57<345.337 432.51> 258 41<68.2012 148.863> 340 81<533.904 634.935> 460 61<54.6943 152.155>
LayerCount: 2
Fore
SplineSet
30 -6 m 0x7d80
 23 -6 18 -1 18 13 c 0
 18 36 27 34 65 39 c 0
 84 41 80 61 82 101 c 0
 83 126 84 301 84 351 c 0
 84 362 77 359 31 360 c 1
 30 360 l 2
 24 360 9 361 9 379 c 0
 9 384 11 403 23 407 c 0
 32 410 75 408 79 410 c 0
 82 411 82 414 82 417 c 2
 82 419 l 1
 83 521 109 618 170 670 c 0
 211 704 264 719 304 719 c 0
 371 719 421 675 421 607 c 0
 421 502 309 473 309 399 c 0x7d80
 309 338 376 315 459 225 c 0
 484 198 521 153 521 97 c 0
 521 28 465 -19 397 -19 c 0
 323 -19 276 18 264 38 c 0
 259 47 258 54 258 65 c 2
 258 131 l 2
 258 148 258 146 260 149 c 0
 261 150 266 156 275 156 c 0
 300 156 280 125 299 91 c 0
 307 78 345 37 390 37 c 0xbb80
 427 37 460 62 460 100 c 0
 460 159 391 186 292 288 c 0
 268 312 252 336 252 368 c 0
 252 441 340 490 340 575 c 0
 340 621 310 659 265 659 c 0
 244 659 175 648 158 508 c 0
 153 469 153 430 153 390 c 2
 153 380 l 2
 153 131 152 99 152 68 c 0
 152 53 153 38 184 35 c 0
 212 33 218 34 218 17 c 0
 218 6 218 -6 207 -6 c 0
 205 -6 166 0 119 0 c 0
 71 0 33 -6 30 -6 c 0x7d80
EndSplineSet
EndChar

StartChar: ae
Encoding: 230 230 147
Width: 645
GlyphClass: 2
Flags: W
HStem: -22 54<120.893 227.079 414.939 541.487> 191 37<159.882 257.94> 376 56<370.172 486.763> 385 47<124.393 228.628>
VStem: 32 74<46.7656 152.973> 259 74<115.787 190.367 228.097 337.5> 529 98<298.142 339.608>
LayerCount: 2
Fore
SplineSet
424 376 m 0xee
 367 376 328 321 328 233 c 0
 328 228 330 226 333 226 c 0
 336 226 517 296 521 298 c 0
 527 301 529 306 529 310 c 0
 529 324 479 376 424 376 c 0xee
106 101 m 0
 106 73 118 32 169 32 c 0
 192 32 218 42 235 56 c 0
 256 73 259 76 259 115 c 2
 259 144 l 2
 259 191 258 191 249 191 c 2
 247 191 l 1
 189 187 106 173 106 101 c 0
447 432 m 0
 541 432 627 343 627 313 c 2
 627 312 l 1
 626 282 574 272 545 262 c 0
 339 191 333 192 333 183 c 0
 333 171 355 38 481 38 c 0
 525 38 568 56 600 87 c 0
 604 92 612 101 623 101 c 0
 632 101 638 95 638 87 c 0
 638 82 636 76 632 70 c 0
 587 12 519 -19 454 -19 c 0
 349 -19 309 54 303 54 c 0
 298 54 232 -22 146 -22 c 0
 78 -22 32 29 32 90 c 2
 32 91 l 2
 32 129 50 161 74 180 c 0
 126 222 250 228 250 228 c 2
 257 230 258 236 258 250 c 2
 258 278 l 2
 258 310 254 335 234 358 c 0
 218 376 197 385 176 385 c 0
 119 385 94 324 90 318 c 0
 84 311 76 307 67 307 c 0
 49 307 28 321 28 343 c 0
 28 378 96 432 183 432 c 0xde
 286 432 300 375 315 375 c 0
 318 375 321 377 324 380 c 0
 340 395 384 432 447 432 c 0
EndSplineSet
EndChar

StartChar: ccedilla
Encoding: 231 231 148
Width: 381
GlyphClass: 2
Flags: W
HStem: -195 36<133.143 224.233> -18 64<199.932 299.226> 376 52<142.345 251.426>
VStem: 17 66<132.437 305.205> 228 61<-156.256 -91.5187>
LayerCount: 2
Fore
SplineSet
289 -120 m 2
 289 -152 272 -195 207 -195 c 0
 175 -195 132 -186 128 -182 c 0
 125 -180 124 -178 124 -175 c 0
 124 -174 127 -151 138 -151 c 0
 139 -151 171 -159 190 -159 c 0
 212 -159 228 -146 228 -127 c 0
 228 -100 199 -78 157 -75 c 0
 155 -75 152 -75 152 -72 c 0
 152 -71 167 -34 174 -14 c 1
 80 2 17 84 17 197 c 0
 17 333 103 428 231 428 c 0
 303 428 358 392 358 354 c 0
 358 331 339 316 318 316 c 0
 272 316 255 376 197 376 c 0
 136 376 83 306 83 222 c 0
 83 129 149 46 241 46 c 0
 319 46 340 100 363 100 c 0
 372 100 380 93 380 83 c 0
 380 77 377 71 374 67 c 0
 342 23 284 -18 209 -18 c 2
 206 -18 l 1
 200 -36 198 -38 198 -40 c 0
 198 -42 199 -43 202 -43 c 2
 205 -43 l 2
 253 -43 289 -69 289 -119 c 2
 289 -120 l 2
EndSplineSet
EndChar

StartChar: divide
Encoding: 247 247 163
Width: 701
GlyphClass: 2
Flags: W
HStem: 67 103<302.248 386.752> 231 57<53 647.954> 349 103<295.609 380.752>
VStem: 285 106<359.248 440.996> 292 105<76.9539 159.752>
CounterMasks: 1 e0
LayerCount: 2
Fore
SplineSet
76 231 m 2xe0
 60 231 53 235 53 253 c 2
 53 266 l 2
 53 287 65 288 76 288 c 2
 628 288 l 2
 641 288 648 285 648 269 c 2
 648 255 l 2
 648 232 634 231 622 231 c 2
 76 231 l 2xe0
285 400 m 0xf0
 285 429 310 452 339 452 c 0
 368 452 391 429 391 401 c 0
 391 372 367 349 338 349 c 0
 309 349 285 371 285 400 c 0xf0
345 67 m 0
 317 67 292 89 292 119 c 0
 292 148 315 170 344 170 c 0
 373 170 397 147 397 118 c 0xe8
 397 89 374 67 345 67 c 0
EndSplineSet
EndChar

StartChar: oslash
Encoding: 248 248 164
Width: 467
GlyphClass: 2
Flags: W
HStem: -19 49<173.958 305.289> 385 47<165.676 294.523>
VStem: 21 78<108.789 304.389> 378 68<109.681 294.771>
DStem2: 105 23 146 -1 0.485263 0.874368<-42.3314 1.97359 66.2418 380.82 443.734 502.726>
LayerCount: 2
Fore
SplineSet
446 204 m 0
 446 61 345 -19 233 -19 c 0
 203 -19 174 -13 146 -1 c 1
 137 -18 132 -33 118 -33 c 0
 86 -33 83 -27 83 -20 c 0
 83 -15 89 -6 105 23 c 1
 56 60 21 125 21 204 c 0
 21 343 125 432 237 432 c 0
 266 432 295 425 322 414 c 1
 340 448 343 459 356 459 c 0
 377 459 392 456 392 442 c 0
 392 436 385 425 364 388 c 1
 420 345 446 273 446 204 c 0
236 30 m 0
 321 30 378 111 378 200 c 0
 378 240 366 292 333 332 c 1
 173 47 l 1
 195 34 217 30 236 30 c 0
230 385 m 0
 178 385 99 343 99 209 c 0
 99 171 107 120 137 81 c 1
 295 365 l 1
 278 376 256 385 230 385 c 0
EndSplineSet
EndChar

StartChar: dotlessi
Encoding: 305 305 203
Width: 243
GlyphClass: 2
Flags: W
HStem: -6 44<18.136 93.0582 163.719 228.991> 421 20G<149.5 156>
VStem: 94 67<39.1511 336.573>
LayerCount: 2
Fore
SplineSet
94 121 m 2
 94 237 95 295 95 314 c 0
 95 330 91 329 27 355 c 0
 22 357 15 360 15 368 c 0
 15 380 31 384 42 389 c 0
 146 439 147 441 152 441 c 2
 153 441 l 2
 159 441 167 437 167 425 c 0
 167 417 161 320 161 198 c 2
 161 165 l 2
 161 43 162 40 184 37 c 0
 217 32 229 33 229 16 c 0
 229 8 228 -6 217 -6 c 0
 214 -6 174 0 125 0 c 0
 75 0 36 -6 33 -6 c 0
 23 -6 18 1 18 11 c 0
 18 34 22 32 67 38 c 0
 92 42 94 56 94 74 c 2
 94 121 l 2
EndSplineSet
EndChar

StartChar: OE
Encoding: 338 338 224
Width: 1018
GlyphClass: 2
Flags: W
HStem: -24 58<295.027 503.146> 0 55<642.732 907.982> 369 58<639.607 848.8> 638 53<639.128 894.672> 667 53<268.839 477.071>
VStem: 18 94<249.63 473.331> 548 90<67.3145 365.5 427 617.33> 850 55<271.316 368.907 428.208 513.367>
LayerCount: 2
Fore
SplineSet
638 97 m 2x37
 638 70 646 55 762 55 c 0
 794 55 886 61 907 76 c 0
 914 82 920 94 964 169 c 0
 970 180 979 186 986 186 c 0
 996 186 1003 177 1003 163 c 2
 1003 162 l 2
 1003 156 1002 153 973 20 c 0
 968 1 958 0 941 0 c 2
 663 0 l 2x77
 512 0 453 -24 401 -24 c 0
 191 -24 18 147 18 353 c 0
 18 555 185 720 386 720 c 0xaf
 449 720 490 708 529 701 c 0
 573 693 631 691 631 691 c 1
 936 691 l 2
 952 691 954 682 956 675 c 2
 984 549 l 1
 984 546 l 2
 984 532 972 525 960 525 c 0
 941 525 940 538 937 545 c 2
 894 618 l 2
 884 635 880 638 864 638 c 2
 670 638 l 2
 650 638 639 626 639 614 c 2
 639 449 l 2
 639 442 642 427 654 427 c 2
 812 427 l 2
 829 427 850 428 850 460 c 2
 850 491 l 2
 850 506 863 514 876 514 c 0
 899 514 905 500 905 484 c 2
 905 300 l 2
 905 282 898 271 878 271 c 0
 855 271 850 280 850 293 c 2
 850 347 l 2
 850 367 838 369 824 369 c 2
 712 369 l 2
 648 369 638 365 638 329 c 2
 638 97 l 2x37
371 667 m 2xaf
 370 667 l 2
 247 667 112 582 112 384 c 0
 112 211 208 34 397 34 c 0
 442 34 489 44 533 71 c 0
 547 79 548 79 548 104 c 2
 548 601 l 1
 495 648 431 667 371 667 c 2xaf
EndSplineSet
EndChar

StartChar: oe
Encoding: 339 339 225
Width: 763
GlyphClass: 2
Flags: W
HStem: -19 57<522.033 664.959> -19 49<167.083 306.865> 376 55<487.022 605.717> 385 47<165.676 298.48>
VStem: 21 78<107.025 304.389> 378 72<117.554 196.704 226.001 294.23> 647 97<292.942 337.386>
LayerCount: 2
Fore
SplineSet
564 431 m 0x2e
 633 431 699 386 735 335 c 0
 739 330 744 322 744 313 c 2
 744 312 l 1
 743 282 691 272 662 262 c 0
 456 191 450 192 450 183 c 0
 450 171 472 38 598 38 c 0
 642 38 686 57 717 87 c 0
 721 92 730 101 740 101 c 0
 749 101 756 95 756 86 c 0
 756 82 754 76 749 70 c 0
 708 17 642 -19 572 -19 c 0xae
 497 -19 440 20 410 72 c 1
 372 14 304 -19 233 -19 c 0
 106 -19 21 81 21 204 c 0
 21 343 125 432 237 432 c 0x5e
 304 432 371 399 410 337 c 1
 438 386 491 431 564 431 c 0x2e
647 310 m 0
 647 322 598 376 542 376 c 0
 484 376 446 322 446 233 c 0
 446 227 449 226 451 226 c 0
 453 226 636 297 638 298 c 0
 644 301 647 306 647 310 c 0
236 30 m 0x5e
 321 30 378 111 378 200 c 0
 378 307 306 385 230 385 c 0
 178 385 99 343 99 209 c 0
 99 105 154 30 236 30 c 0x5e
EndSplineSet
EndChar

StartChar: Scedilla
Encoding: 350 350 236
Width: 492
GlyphClass: 2
Flags: W
HStem: -195 36<189.143 280.233> -16 55<175.012 229 254.519 327.705> 635 50<138.512 269.954>
VStem: 32 72<479.18 595.956> 48 50<112.089 247.636> 284 61<-156.256 -91.5187> 398 73<105.358 250.11>
LayerCount: 2
Fore
SplineSet
345 -120 m 2xf6
 345 -152 328 -195 263 -195 c 0
 231 -195 188 -186 184 -182 c 0
 181 -180 180 -178 180 -175 c 0
 180 -174 183 -151 194 -151 c 0
 195 -151 227 -159 246 -159 c 0
 268 -159 284 -146 284 -127 c 0
 284 -100 255 -78 213 -75 c 0
 211 -75 208 -75 208 -72 c 0
 208 -71 222 -35 229 -16 c 1
 142 -8 100 41 85 48 c 0
 80 51 74 52 69 52 c 0
 59 52 52 49 43 49 c 0
 29 49 25 58 25 64 c 0
 25 76 39 113 48 227 c 0
 49 238 53 248 70 248 c 0
 91 248 92 239 98 190 c 1xee
 105 120 94 145 124 105 c 0
 149 71 194 39 253 39 c 0
 332 39 398 100 398 178 c 0
 398 222 376 262 340 288 c 0
 282 330 218 327 151 354 c 0
 69 386 32 451 32 516 c 0
 32 605 106 685 211 685 c 0
 292 685 327 645 340 645 c 0
 355 645 358 685 382 685 c 0
 391 685 398 677 398 666 c 0
 398 658 394 633 394 583 c 0
 394 534 398 510 398 502 c 0
 398 492 391 487 381 487 c 2
 380 487 l 1
 348 488 359 524 311 579 c 0
 284 609 245 635 201 635 c 0
 145 635 104 593 104 541 c 0
 104 504 124 472 155 450 c 0
 209 411 281 412 345 385 c 0
 417 354 471 289 471 198 c 0
 471 89 387 -12 262 -17 c 1
 256 -36 254 -38 254 -40 c 0
 254 -42 255 -43 258 -43 c 2
 261 -43 l 2
 309 -43 345 -69 345 -119 c 2
 345 -120 l 2xf6
EndSplineSet
EndChar

StartChar: scedilla
Encoding: 351 351 237
Width: 338
GlyphClass: 2
Flags: W
HStem: -195 36<101.143 192.233> -19 54<106 141 166.004 238.939> 380 47<98.6701 211.868> 412 20G<244 256>
VStem: 27 40<71.0105 155.76> 31 54<283.553 367.539> 196 61<-156.256 -91.5187> 230 55<295.352 359.134> 262 67<56.0454 149.045>
LayerCount: 2
Back
SplineSet
27 104 m 6x9f
 27 141 24 156 44 156 c 4x9f
 69 156 53 122 67 94 c 4
 77 73 123 35 181 35 c 4
 226 35 262 62 262 102 c 4
 262 168 174 178 142 187 c 4
 61 210 31 260 31 309 c 4
 31 369 85 427 175 427 c 4
 205 427 220 422 225 422 c 4
 234 422 238 432 250 432 c 4
 262 432 265 418 266 413 c 4
 272 378 285 312 285 308 c 4
 285 295 270 292 262 292 c 4
 241 292 244 321 230 341 c 4
 217 359 181 380 148 380 c 4
 114 380 85 359 85 327 c 4
 85 313 90 276 164 255 c 4
 215 241 262 238 299 195 c 4
 325 165 329 132 329 116 c 4
 329 52 276 -19 177 -19 c 6
 173 -19 l 5
 167 -36 166 -38 166 -40 c 4
 166 -42 167 -43 170 -43 c 6
 173 -43 l 6
 221 -43 257 -69 257 -119 c 6
 257 -120 l 6
 257 -152 240 -195 175 -195 c 4xaf
 143 -195 100 -186 96 -182 c 4
 93 -180 92 -178 92 -175 c 4
 92 -174 95 -151 106 -151 c 4x4f
 107 -151 139 -159 158 -159 c 4
 180 -159 196 -146 196 -127 c 4
 196 -100 167 -78 125 -75 c 4
 123 -75 120 -75 120 -72 c 4
 120 -71 134 -35 141 -16 c 5
 103 -11 41 11 29 47 c 4
 27 53 27 59 27 65 c 6
 27 104 l 6x9f
EndSplineSet
Fore
SplineSet
27 126 m 2xea80
 27 147 29 156 44 156 c 0
 69 156 53 122 67 94 c 0xea80
 77 73 123 35 181 35 c 0
 226 35 262 62 262 102 c 0
 262 168 174 178 142 187 c 0
 61 210 31 260 31 309 c 0
 31 369 85 427 175 427 c 0xe480
 205 427 220 422 225 422 c 0
 234 422 238 432 250 432 c 0
 262 432 265 418 266 413 c 0
 272 378 285 312 285 308 c 0xd5
 285 295 270 292 262 292 c 0xd080
 241 292 244 321 230 341 c 0
 217 359 181 380 148 380 c 0
 114 380 85 359 85 327 c 0xe5
 85 313 90 276 164 255 c 0
 215 241 262 238 299 195 c 0
 325 165 329 132 329 116 c 0
 329 52 276 -19 177 -19 c 1
 171 -36 166 -38 166 -40 c 0
 166 -42 167 -43 170 -43 c 0
 218 -43 257 -69 257 -119 c 2
 257 -120 l 2
 257 -152 240 -195 175 -195 c 0
 143 -195 100 -186 96 -182 c 0
 93 -180 92 -178 92 -175 c 0
 92 -174 95 -151 106 -151 c 0
 107 -151 139 -159 158 -159 c 0
 180 -159 196 -146 196 -127 c 0
 196 -100 167 -78 125 -75 c 0
 123 -75 120 -75 120 -72 c 0
 120 -71 134 -35 141 -16 c 1
 112 -12 68 2 44 25 c 0
 33 36 27 45 27 65 c 2
 27 126 l 2xea80
EndSplineSet
EndChar

StartChar: Tcommaaccent
Encoding: 354 354 240
Width: 692
GlyphClass: 2
Flags: W
HStem: -195 36<285.143 376.233> -6 53<202.22 307.561 402.04 510.545> 622 66<95.0021 308.605 402.112 608.482>
VStem: 309 93<49.375 621.698> 380 61<-156.256 -91.5187>
LayerCount: 2
Fore
SplineSet
441 -120 m 2xe8
 441 -152 424 -195 359 -195 c 0
 327 -195 284 -186 280 -182 c 0
 277 -180 276 -178 276 -175 c 0
 276 -174 279 -151 290 -151 c 0
 291 -151 323 -159 342 -159 c 0
 364 -159 380 -146 380 -127 c 0xe8
 380 -100 351 -78 309 -75 c 0
 307 -75 304 -75 304 -72 c 0
 304 -71 322 -24 332 0 c 1
 266 -1 233 -6 222 -6 c 0
 206 -6 202 6 202 20 c 0
 202 45 213 41 275 47 c 0
 305 50 309 64 309 84 c 2
 309 591 l 2
 309 605 308 622 282 622 c 2
 133 622 l 2
 106 622 102 616 95 602 c 0
 54 521 53 509 34 509 c 0
 21 509 12 520 12 534 c 2
 12 535 l 2
 12 541 13 544 41 673 c 0
 44 687 54 688 62 688 c 2
 645 688 l 2
 661 688 663 678 665 665 c 0
 685 563 689 543 689 537 c 0
 689 525 681 515 670 515 c 0
 657 515 651 527 647 534 c 0
 600 616 602 622 571 622 c 2
 424 622 l 2
 403 622 402 608 402 595 c 2
 402 71 l 2xf0
 402 45 415 49 493 42 c 0
 509 40 511 34 511 14 c 0
 511 4 507 -6 494 -6 c 0
 489 -6 433 0 364 0 c 1
 359 -14 350 -39 350 -40 c 0
 350 -42 351 -43 354 -43 c 2
 357 -43 l 2
 405 -43 441 -69 441 -119 c 2
 441 -120 l 2xe8
EndSplineSet
EndChar

StartChar: tcommaaccent
Encoding: 355 355 241
Width: 333
GlyphClass: 2
Flags: W
HStem: -195 36<113.143 204.233> -18 64<178.638 241.831> 363 54<156.006 290.812>
VStem: 76 69<55.2482 362.954> 208 61<-156.256 -91.5187>
LayerCount: 2
Fore
SplineSet
269 -120 m 2
 269 -152 252 -195 187 -195 c 0
 155 -195 112 -186 108 -182 c 0
 105 -180 104 -178 104 -175 c 0
 104 -174 107 -151 118 -151 c 0
 119 -151 151 -159 170 -159 c 0
 192 -159 208 -146 208 -127 c 0
 208 -100 179 -78 137 -75 c 0
 135 -75 132 -75 132 -72 c 0
 132 -71 146 -35 154 -16 c 1
 106 -3 81 41 76 103 c 0
 75 114 75 124 75 135 c 0
 75 179 79 334 79 356 c 0
 79 361 78 365 72 365 c 2
 40 365 l 2
 31 365 20 366 20 378 c 0
 20 395 70 413 124 505 c 0
 127 510 133 523 144 523 c 0
 150 523 157 520 157 507 c 0
 157 493 156 451 156 437 c 0
 156 420 164 417 176 417 c 2
 266 417 l 2
 269 417 271 416 274 416 c 0
 283 416 300 416 300 397 c 0
 300 391 296 374 291 368 c 0
 287 364 282 363 273 363 c 2
 156 363 l 2
 149 363 146 361 146 354 c 0
 145 167 145 144 145 120 c 0
 145 85 154 46 196 46 c 0
 244 46 283 106 305 106 c 0
 316 106 323 97 323 88 c 0
 323 80 318 74 316 71 c 0
 254 -1 213 -16 185 -18 c 1
 180 -36 178 -38 178 -40 c 0
 178 -42 179 -43 182 -43 c 2
 185 -43 l 2
 233 -43 269 -69 269 -119 c 2
 269 -120 l 2
EndSplineSet
EndChar

StartChar: longs
Encoding: 383 383 261
Width: 240
GlyphClass: 2
Flags: W
HStem: -6 45<18.0677 79.8315 153 229.988> 360 48<10.5069 82.2295> 653 67<224.432 344.919>
VStem: 84 69<38.7292 359.683 408.753 564.612>
LayerCount: 2
Fore
SplineSet
33 -6 m 0
 20 -6 18 8 18 19 c 0
 18 35 28 33 65 39 c 0
 80 41 79 51 80 63 c 0
 82 88 84 156 84 350 c 0
 84 362 79 359 31 360 c 0
 25 360 10 360 10 378 c 0
 10 401 18 408 31 408 c 0
 81 410 82 406 82 418 c 2
 82 419 l 1
 83 458 88 546 125 611 c 1
 165 679 247 720 308 720 c 0
 362 720 380 689 380 668 c 0
 380 649 365 629 338 629 c 0
 310 629 286 653 255 653 c 0
 184 653 152 553 152 436 c 0
 152 421 153 407 153 365 c 2
 153 64 l 1
 153 61 l 2
 153 51 154 38 173 37 c 0
 219 33 230 39 230 16 c 0
 230 4 226 -6 214 -6 c 0
 211 -6 172 0 124 0 c 0
 75 0 36 -6 33 -6 c 0
EndSplineSet
EndChar

StartChar: uni0237
Encoding: 567 567 262
Width: 232
GlyphClass: 2
Flags: W
HStem: -231 77<-30.0167 54.2285> 422 20G<152.5 158>
VStem: 95 71<-117.424 346.052>
LayerCount: 2
Fore
SplineSet
94 102 m 0
 94 229 96 293 96 314 c 0
 96 336 90 336 36 369 c 0
 32 371 27 375 27 381 c 0
 27 391 28 389 147 440 c 0
 149 441 151 442 154 442 c 0
 162 442 164 435 164 426 c 0
 164 407 162 350 162 235 c 0
 162 55 166 -35 166 -65 c 0
 166 -84 161 -94 151 -109 c 0
 138 -127 61 -231 2 -231 c 0
 -19 -231 -36 -217 -36 -197 c 0
 -36 -178 -21 -154 8 -154 c 0
 19 -154 28 -157 38 -157 c 0
 55 -157 95 -147 95 -78 c 0
 95 -60 94 -6 94 102 c 0
EndSplineSet
EndChar

StartChar: circumflex
Encoding: 710 710 263
Width: 215
GlyphClass: 2
Flags: W
HStem: 479 221
VStem: 16 183<482 499>
LayerCount: 2
Fore
SplineSet
31 479 m 0
 26 479 16 482 16 494 c 0
 16 501 60 631 78 671 c 0
 81 678 90 700 107 700 c 0
 134 700 150 639 196 506 c 0
 197 503 199 499 199 495 c 0
 199 482 188 479 184 479 c 0
 173 479 167 487 158 502 c 0
 118 572 117 577 108 577 c 0
 97 577 95 569 55 500 c 0
 47 487 40 479 31 479 c 0
EndSplineSet
EndChar

StartChar: caron
Encoding: 711 711 264
Width: 215
GlyphClass: 2
Flags: W
HStem: 479 221
VStem: 16 183<680 697>
LayerCount: 2
Fore
SplineSet
184 700 m 0
 189 700 199 697 199 685 c 0
 199 678 155 547 137 508 c 0
 134 501 125 479 108 479 c 0
 81 479 65 540 19 673 c 0
 18 676 16 680 16 684 c 0
 16 697 27 700 31 700 c 0
 42 700 48 692 57 677 c 0
 70 654 96 609 97 607 c 0
 101 602 105 602 107 602 c 0
 118 602 120 610 160 678 c 0
 168 692 175 700 184 700 c 0
EndSplineSet
EndChar

StartChar: breve
Encoding: 728 728 265
Width: 272
GlyphClass: 2
Flags: W
HStem: 481 68<83.8293 182.514>
VStem: 15 57<564.065 630.344>
LayerCount: 2
Fore
SplineSet
15 633 m 2
 15 641 29 643 37 643 c 0
 56 643 43 622 72 583 c 0
 88 563 108 549 132 549 c 2
 133 549 l 2
 193 549 223 629 227 635 c 0
 229 638 232 642 239 642 c 0
 247 642 257 641 257 635 c 0
 257 627 227 481 128 481 c 0
 83 481 35 511 15 630 c 1
 15 633 l 2
EndSplineSet
EndChar

StartChar: dotaccent
Encoding: 729 729 266
Width: 146
GlyphClass: 2
Flags: W
HStem: 479 112<28.2549 118.311>
VStem: 15 116<492.202 577.369>
LayerCount: 2
Fore
SplineSet
15 534 m 0
 15 566 43 591 73 591 c 0
 105 591 131 566 131 535 c 0
 131 504 104 479 73 479 c 0
 41 479 15 503 15 534 c 0
EndSplineSet
EndChar

StartChar: ring
Encoding: 730 730 267
Width: 196
GlyphClass: 2
Flags: W
HStem: 474 39<63.0263 133.711> 612 38<63.3267 133.209>
VStem: 13 40<522.079 602.575> 144 39<521.969 601.702>
LayerCount: 2
Fore
SplineSet
98 650 m 0
 146 650 183 609 183 562 c 0
 183 513 145 474 98 474 c 0
 52 474 13 513 13 562 c 0
 13 610 52 650 98 650 c 0
98 612 m 0
 73 612 53 589 53 563 c 0
 53 536 73 513 99 513 c 0
 126 513 144 538 144 562 c 0
 144 587 124 612 98 612 c 0
EndSplineSet
EndChar

StartChar: tilde
Encoding: 732 732 268
Width: 336
GlyphClass: 2
Flags: W
HStem: 568 54<166.82 263.676> 613 52<62.1629 146.569>
VStem: 16 304
LayerCount: 2
Fore
SplineSet
223 622 m 0xa0
 269 622 289 668 301 668 c 0
 305 668 320 662 320 655 c 0
 320 647 288 608 264 590 c 0
 250 579 230 568 206 568 c 0xa0
 155 568 139 613 99 613 c 0
 55 613 37 561 29 561 c 0
 25 561 16 571 16 576 c 0
 16 580 47 628 61 642 c 0
 73 654 88 665 111 665 c 0x60
 156 665 178 622 223 622 c 0xa0
EndSplineSet
EndChar

StartChar: emdash
Encoding: 8212 8212 270
Width: 1068
GlyphClass: 2
Flags: W
HStem: 224 55<27.0354 1041.88>
LayerCount: 2
Fore
SplineSet
27 250 m 2
 27 254 l 2
 27 266 28 279 41 279 c 2
 1028 279 l 2
 1041 279 1042 264 1042 254 c 2
 1042 252 l 2
 1042 230 1039 224 1028 224 c 2
 41 224 l 2
 27 224 27 238 27 250 c 2
EndSplineSet
EndChar

StartChar: quoteleft
Encoding: 8216 8216 271
Width: 227
GlyphClass: 2
Flags: W
HStem: 464 98<82.4082 175.109>
VStem: 39 39<567.528 642.282>
LayerCount: 2
Fore
SplineSet
125 464 m 0
 90 464 39 492 39 576 c 0
 39 656 81 687 95 687 c 1
 106 686 114 677 114 667 c 0
 114 652 78 637 78 600 c 0
 78 585 86 562 121 562 c 0
 127 562 133 563 139 563 c 0
 179 563 189 536 189 520 c 0
 189 495 166 464 125 464 c 0
EndSplineSet
EndChar

StartChar: quoteright
Encoding: 8217 8217 272
Width: 227
GlyphClass: 2
Flags: W
HStem: 586 98<52.2751 144.908>
VStem: 149 40<505.811 580.483>
LayerCount: 2
Fore
SplineSet
102 684 m 0
 137 684 189 656 189 572 c 0
 189 492 147 462 132 462 c 0
 121 462 113 471 113 481 c 0
 113 497 149 512 149 549 c 0
 149 563 141 586 106 586 c 0
 100 586 94 585 88 585 c 0
 48 585 39 612 39 628 c 0
 39 653 61 684 102 684 c 0
EndSplineSet
EndChar

StartChar: quotesinglbase
Encoding: 8218 8218 273
Width: 227
GlyphClass: 2
Flags: W
HStem: -44 98<51.8914 144.152>
VStem: 148 40<-124.657 -49.5172>
LayerCount: 2
Fore
SplineSet
102 54 m 0
 136 54 188 26 188 -58 c 0
 188 -138 146 -168 132 -168 c 0
 121 -168 113 -159 113 -149 c 0
 113 -133 148 -118 148 -81 c 0
 148 -67 141 -44 105 -44 c 0
 99 -44 94 -45 88 -45 c 0
 48 -45 38 -18 38 -2 c 0
 38 23 61 54 102 54 c 0
EndSplineSet
EndChar

StartChar: quotedblleft
Encoding: 8220 8220 274
Width: 416
GlyphClass: 2
Flags: W
HStem: 464 98<82.0918 174.725 272.092 364.725>
VStem: 38 40<567.528 642.751> 228 40<567.528 642.751>
LayerCount: 2
Fore
SplineSet
315 464 m 0
 280 464 228 492 228 576 c 0
 228 656 270 687 285 687 c 1
 296 686 304 677 304 667 c 0
 304 652 268 637 268 600 c 0
 268 585 275 562 311 562 c 0
 317 562 323 563 329 563 c 0
 369 563 378 536 378 520 c 0
 378 495 356 464 315 464 c 0
125 464 m 0
 90 464 38 492 38 576 c 0
 38 656 80 687 95 687 c 1
 106 686 114 677 114 667 c 0
 114 652 78 637 78 600 c 0
 78 585 85 562 121 562 c 0
 127 562 133 563 139 563 c 0
 179 563 188 536 188 520 c 0
 188 495 166 464 125 464 c 0
EndSplineSet
Substitution2: "'ss01' Style Set 1 in Latin lookup 0 subtable" quotedblleft.001
EndChar

StartChar: quotedblright
Encoding: 8221 8221 275
Width: 416
GlyphClass: 2
Flags: W
HStem: 586 98<51.8914 144.152 241.891 334.152>
VStem: 148 40<505.343 580.483> 338 40<505.343 580.483>
LayerCount: 2
Fore
SplineSet
102 684 m 0
 136 684 188 656 188 572 c 0
 188 492 146 462 132 462 c 2
 131 462 l 2
 121 462 113 472 113 481 c 0
 113 497 148 512 148 549 c 0
 148 563 141 586 105 586 c 0
 99 586 94 585 88 585 c 0
 48 585 38 612 38 628 c 0
 38 653 61 684 102 684 c 0
292 684 m 0
 326 684 378 656 378 572 c 0
 378 492 336 462 322 462 c 2
 321 462 l 2
 311 462 303 472 303 481 c 0
 303 497 338 512 338 549 c 0
 338 563 331 586 295 586 c 0
 289 586 284 585 278 585 c 0
 238 585 228 612 228 628 c 0
 228 653 251 684 292 684 c 0
EndSplineSet
Substitution2: "'ss01' Style Set 1 in Latin lookup 0 subtable" quotedblright.001
EndChar

StartChar: bullet
Encoding: 8226 8226 277
Width: 286
GlyphClass: 2
Flags: W
HStem: 188 160<89.0344 196.966>
VStem: 63 160<214.034 321.966>
LayerCount: 2
Fore
SplineSet
143 188 m 0
 97 188 63 227 63 268 c 0
 63 314 102 348 143 348 c 0
 189 348 223 309 223 268 c 0
 223 222 184 188 143 188 c 0
EndSplineSet
EndChar

StartChar: guilsinglleft
Encoding: 8249 8249 280
Width: 223
GlyphClass: 2
Flags: W
HStem: 52 282<179 192>
VStem: 22 79<170.963 215.713>
LayerCount: 2
Fore
SplineSet
185 334 m 0
 193 334 201 322 201 315 c 0
 201 309 201 310 105 201 c 0
 103 199 101 197 101 194 c 0
 101 188 104 186 196 79 c 0
 198 77 200 74 200 71 c 0
 200 63 192 52 184 52 c 0
 178 52 179 52 27 184 c 0
 25 186 22 189 22 193 c 0
 22 198 25 201 29 204 c 0
 180 334 179 334 185 334 c 0
EndSplineSet
EndChar

StartChar: guilsinglright
Encoding: 8250 8250 281
Width: 223
GlyphClass: 2
Flags: W
HStem: 52 282<32 43>
VStem: 122 79<170.161 215.625>
LayerCount: 2
Fore
SplineSet
38 334 m 0
 44 334 42 334 194 204 c 0
 198 201 201 198 201 193 c 2
 201 192 l 2
 201 186 198 186 49 57 c 0
 46 54 43 52 39 52 c 0
 32 52 23 61 23 70 c 0
 23 73 24 76 27 79 c 0
 119 186 122 189 122 193 c 0
 122 196 121 198 118 201 c 2
 26 305 l 2
 23 308 22 311 22 315 c 0
 22 324 32 334 38 334 c 0
EndSplineSet
EndChar

StartChar: fraction
Encoding: 8260 8260 282
Width: 435
GlyphClass: 2
Flags: W
LayerCount: 2
Fore
SplineSet
35 -187 m 0
 28 -187 6 -186 6 -173 c 0
 6 -168 6 -169 383 571 c 0
 386 576 389 580 398 580 c 0
 406 580 429 577 429 562 c 0
 429 558 427 555 426 552 c 0
 50 -183 52 -179 48 -183 c 0
 45 -186 41 -187 35 -187 c 0
EndSplineSet
EndChar

StartChar: Euro
Encoding: 8364 8364 283
Width: 713
GlyphClass: 2
Flags: W
HStem: -14 60<351.543 560.238> 234 62<49 119 193 558> 345 61<45 119 193 605> 594 60<346.586 559.047>
VStem: 119 61<296 345>
LayerCount: 2
Fore
SplineSet
451 594 m 0
 365 594 245 549 193 406 c 1
 630 406 l 1
 605 345 l 1
 180 345 l 1
 180 340 179 332 179 321 c 0
 179 309 180 301 180 296 c 1
 584 296 l 1
 558 234 l 1
 193 234 l 1
 238 100 362 46 449 46 c 0
 589 46 661 140 664 143 c 1
 668 142 l 1
 668 64 l 1
 608 16 539 -14 453 -14 c 0
 342 -14 188 43 129 234 c 1
 24 234 l 1
 49 296 l 1
 119 296 l 1
 119 345 l 1
 20 345 l 1
 45 406 l 1
 129 406 l 1
 185 598 353 654 445 654 c 0
 544 654 617 626 693 554 c 1
 676 512 665 491 665 491 c 1
 652 512 580 594 451 594 c 0
EndSplineSet
EndChar

StartChar: trademark
Encoding: 8482 8482 284
Width: 919
GlyphClass: 2
Flags: W
HStem: 370 31<134.007 186 236 287.974 398.207 447.5 489.25 535.771 730.098 781.808 830.118 877.847> 675 36<81.2008 186 236 336.799> 682 23<400.046 440.89>
VStem: 42 26<620.051 656.362> 186 50<400.096 675> 456 32<401.858 605> 782 48<398.694 604.998>
LayerCount: 2
Fore
SplineSet
830 421 m 2xbe
 830 398 836 399 866 397 c 0
 872 397 878 394 878 383 c 0
 878 375 874 370 866 370 c 0
 860 370 842 373 806 373 c 2
 804 373 l 2
 766 373 748 370 742 370 c 0
 732 370 730 378 730 384 c 0
 730 397 745 397 764 399 c 0
 780 401 782 407 782 423 c 2
 782 526 l 2
 782 603 782 605 780 605 c 1
 780 605 772 600 730 521 c 0
 645 365 647 365 636 365 c 2
 634 365 l 1
 614 366 610 424 492 604 c 0
 492 605 492 605 490 605 c 1
 490 595 488 544 488 504 c 0
 488 405 488 401 498 401 c 1
 516 399 536 401 536 383 c 0
 536 375 532 370 526 370 c 0
 520 370 502 373 468 373 c 0
 432 373 414 370 408 370 c 0
 402 370 398 375 398 383 c 0
 398 400 416 399 436 401 c 0
 448 403 448 399 456 522 c 0
 460 570 462 630 462 642 c 0
 462 646 444 681 412 682 c 0
 406 682 400 684 400 692 c 0
 400 702 404 705 410 705 c 2
 480 705 l 2
 488 705 491 703 494 698 c 2
 586 545 l 1
 646 449 646 449 650 449 c 0
 652 449 654 452 654 454 c 2
 782 691 l 2
 786 699 786 705 796 705 c 2
 868 705 l 2
 874 705 878 703 878 692 c 0
 878 668 828 686 828 661 c 0
 828 637 828 614 830 427 c 1
 830 421 l 2xbe
278 370 m 0
 272 370 252 373 214 373 c 2
 212 373 l 2
 172 373 152 370 146 370 c 0
 142 370 134 372 134 385 c 0
 134 400 144 398 172 400 c 1
 184 402 186 407 186 416 c 2
 186 662 l 2
 186 670 186 675 176 675 c 2
 102 675 l 2
 88 675 90 675 68 631 c 1
 68 628 64 620 54 620 c 0
 50 620 42 624 42 635 c 0
 42 638 56 703 56 703 c 2
 58 709 60 711 68 711 c 2
 352 711 l 2
 365 711 363 707 374 641 c 0
 374 640 376 638 376 636 c 0
 376 627 368 623 364 623 c 0
 356 623 352 631 350 633 c 0
 328 673 330 675 316 675 c 2
 244 675 l 2xde
 236 675 236 671 236 664 c 2
 236 410 l 2
 236 400 239 400 278 398 c 0
 288 397 288 393 288 382 c 0
 288 375 284 370 278 370 c 0
EndSplineSet
EndChar

StartChar: minus
Encoding: 8722 8722 285
Width: 701
GlyphClass: 2
Flags: W
HStem: 231 57<53 648.954>
LayerCount: 2
Fore
SplineSet
76 231 m 2
 61 231 53 235 53 253 c 2
 53 266 l 2
 53 287 66 288 77 288 c 2
 629 288 l 2
 642 288 649 284 649 269 c 2
 649 255 l 2
 649 232 635 231 622 231 c 2
 76 231 l 2
EndSplineSet
EndChar

StartChar: f_f
Encoding: 65537 -1 287
Width: 499
GlyphClass: 3
Flags: W
HStem: 0 37<9.03824 67.2429 141.056 214.72 227.414 291.805 365.069 440.754> 360 51<20.6325 69.1224 141.007 293.875 365.055 485.331> 630 90<476.137 567.731> 643 62<206.359 301.352>
VStem: 71 70<38.2926 360 411 549.4> 294 70<38.1114 358.995 411 571.372> 332 32<608 615>
LayerCount: 2
Fore
SplineSet
325 617 m 2xda
 292 617 272 643 237 643 c 0
 160 643 140 514 140 441 c 2
 140 424 l 2
 140 416 142 411 151 411 c 2
 279 411 l 2
 288 411 294 412 294 423 c 2
 294 431 l 2xdc
 294 550 332 608 332 613 c 0
 332 615 331 617 328 617 c 2
 325 617 l 2xda
62 411 m 2
 68 411 69 414 69 420 c 2
 69 421 l 2
 69 480 86 634 220 690 c 0
 241 699 264 705 287 705 c 0xdc
 348 705 362 667 368 667 c 0
 373 667 425 720 510 720 c 0
 562 720 579 690 579 670 c 0
 579 648 562 630 538 630 c 0xec
 508 630 485 655 453 655 c 0
 419 655 386 633 369 528 c 0
 365 504 364 479 364 454 c 2
 364 422 l 2
 364 414 366 411 374 411 c 2
 471 411 l 2
 483 411 487 406 487 396 c 0
 487 390 485 366 473 360 c 0
 469 359 466 359 462 359 c 2
 374 359 l 2
 366 359 365 355 365 348 c 2
 365 58 l 2
 365 36 375 38 425 34 c 0
 438 33 441 26 441 13 c 0
 441 3 438 -5 427 -5 c 0
 418 -5 390 0 333 0 c 0
 283 0 243 -5 240 -5 c 0
 230 -5 227 3 227 11 c 0
 227 32 233 31 266 37 c 0
 285 41 295 32 295 101 c 2
 296 350 l 2
 296 356 294 360 285 360 c 2
 155 360 l 2
 147 360 141 359 141 349 c 2
 141 60 l 1
 141 58 l 2
 141 50 142 39 159 37 c 0
 200 34 215 38 215 14 c 0
 215 3 213 -6 203 -6 c 0
 200 -6 161 0 112 0 c 0
 63 0 25 -6 22 -6 c 0
 12 -6 9 3 9 17 c 0
 9 38 22 31 53 39 c 0
 69 43 71 46 71 166 c 2
 71 350 l 2
 71 359 67 360 59 360 c 2
 40 360 l 2
 29 360 20 364 20 379 c 0
 20 403 28 411 40 411 c 2
 62 411 l 2
EndSplineSet
Ligature2: "'liga' Standard Ligatures in Latin lookup 1 per glyph data 1" f f
EndChar

StartChar: f_i
Encoding: 65538 -1 288
Width: 475
GlyphClass: 3
Flags: W
HStem: -6 43<18.1213 79.6467 153.04 229.992 251.092 325.612 397.141 452.929> 359 52<20.0811 82.5469 153.06 326.485> 402 20G<374.5 383.5> 656 65<235.164 360.933>
VStem: 82 71<38.4601 358.944 411.009 541.351> 327 67<40.9917 355.634>
LayerCount: 2
Fore
SplineSet
327 721 m 0xdc
 371 721 402 700 402 669 c 0
 402 646 383 629 359 629 c 2
 358 629 l 2
 325 629 302 656 265 656 c 0
 175 656 156 508 153 469 c 0
 152 459 152 449 152 438 c 2
 152 429 l 2
 152 414 153 411 162 411 c 2
 289 411 l 1xdc
 343 414 370 422 379 422 c 0xbc
 388 422 401 418 401 395 c 0
 401 389 394 299 394 184 c 0
 394 166 396 58 397 53 c 0
 400 43 404 43 435 37 c 0
 442 36 453 33 453 17 c 0
 453 10 450 -5 437 -5 c 0
 429 -5 405 0 356 0 c 0
 308 0 269 -6 266 -6 c 0
 256 -6 251 1 251 11 c 0
 251 34 255 32 300 38 c 0
 325 42 327 57 327 74 c 2
 327 120 l 2
 327 252 328 319 328 341 c 0
 328 353 324 354 301 356 c 0
 289 358 277 359 264 359 c 2
 162 359 l 2
 156 359 153 358 153 351 c 2
 153 64 l 1
 153 61 l 2
 153 51 154 38 173 37 c 0
 219 33 230 39 230 16 c 0
 230 4 226 -6 214 -6 c 0
 211 -6 172 0 124 0 c 0
 75 0 36 -6 33 -6 c 0
 20 -6 18 8 18 19 c 0
 18 35 28 33 65 39 c 0
 80 41 79 51 80 63 c 0
 82 88 84 156 84 350 c 0
 84 362 77 359 40 360 c 0
 30 360 19 364 19 378 c 0
 19 407 35 408 39 408 c 2
 40 408 l 1
 80 410 82 408 82 417 c 2
 82 419 l 1
 85 497 107 573 146 626 c 0
 211 715 304 721 327 721 c 0xdc
EndSplineSet
Ligature2: "'liga' Standard Ligatures in Latin lookup 1 per glyph data 1" f i
EndChar

StartChar: f_l
Encoding: 65539 -1 289
Width: 460
GlyphClass: 3
Flags: W
HStem: -6 45<11.1216 72.8318 146 222.988 241.024 309.036 383.553 451.843> 359 52<17.1307 74.8379 146.023 258.046> 656 64<200.436 288.606>
VStem: 77 69<39.0996 358.944 411.009 577.529> 310 73<39.4059 634.46>
LayerCount: 2
Fore
SplineSet
75 417 m 2
 75 425 l 2
 75 461 79 542 110 605 c 0
 135 655 195 720 286 720 c 0
 315 720 326 712 337 712 c 0
 350 712 360 723 369 723 c 0
 380 723 383 714 383 704 c 2
 383 71 l 2
 383 39 394 41 435 34 c 0
 446 32 452 27 452 14 c 0
 452 3 450 -6 439 -6 c 0
 437 -6 396 0 345 0 c 0
 297 0 258 -5 256 -5 c 0
 241 -5 241 9 241 16 c 0
 241 35 249 34 282 38 c 0
 308 41 310 56 310 76 c 2
 310 558 l 1
 310 566 l 2
 310 591 308 637 258 652 c 0
 251 655 244 656 237 656 c 0
 155 656 145 512 145 434 c 0
 145 414 145 411 156 411 c 2
 237 411 l 2
 248 411 259 407 259 391 c 2
 259 390 l 2
 259 381 256 359 233 359 c 2
 155 359 l 2
 149 359 146 358 146 351 c 2
 146 64 l 1
 146 59 l 2
 146 50 147 38 166 37 c 0
 212 33 223 39 223 16 c 0
 223 4 219 -6 207 -6 c 0
 205 -6 165 0 117 0 c 0
 68 0 29 -6 26 -6 c 0
 14 -6 11 8 11 19 c 0
 11 35 21 33 59 39 c 0
 73 41 72 51 73 63 c 0
 75 88 77 156 77 350 c 0
 77 362 71 359 37 360 c 0
 26 360 16 364 16 378 c 0
 16 408 33 408 37 408 c 0
 71 410 75 408 75 417 c 2
EndSplineSet
Ligature2: "'liga' Standard Ligatures in Latin lookup 1 per glyph data 1" f l
EndChar

StartChar: f_f_i
Encoding: 65540 -1 290
Width: 712
GlyphClass: 3
Flags: W
HStem: 0 37<8.03824 65.9997 140.056 213.72 236.405 300.805 374.075 449.754 490.232 563.602 636.141 691.923> 360 51<19.6325 68.1602 140.007 302.875 374.055 566.311> 402 20G<613.5 622.5> 644 61<208.918 307.215> 668 59<432.573 543.301>
VStem: 70 70<38.2926 360 411 552.357> 303 70<38.1114 358.995 411 572.813> 565 71<40.3151 74 77 355.724>
LayerCount: 2
Fore
SplineSet
243 644 m 0xd7
 160 644 139 525 139 441 c 2
 139 424 l 2
 139 416 141 411 150 411 c 2
 288 411 l 2
 297 411 303 412 303 423 c 2
 303 431 l 2
 303 550 341 608 341 613 c 0
 341 615 340 617 337 617 c 2
 334 617 l 2
 301 617 281 644 243 644 c 0xd7
535 727 m 0x8f
 619 727 636 693 636 671 c 0
 636 646 615 630 592 630 c 0
 553 630 527 668 481 668 c 0
 438 668 373 633 373 454 c 2
 373 422 l 2xaf
 373 414 375 411 383 411 c 2
 529 411 l 1xc7
 583 414 609 422 618 422 c 0xa7
 627 422 640 418 640 395 c 0
 640 389 633 299 633 184 c 0
 633 166 634 58 636 53 c 0
 639 43 642 43 674 37 c 0
 680 36 692 33 692 17 c 0
 692 10 689 -5 676 -5 c 0
 668 -5 644 0 595 0 c 0
 546 0 507 -6 504 -6 c 0
 495 -6 490 1 490 11 c 0
 490 34 493 32 539 38 c 0
 564 42 566 57 566 74 c 1
 565 77 l 1
 565 120 l 2
 565 252 567 319 567 341 c 0
 567 353 563 354 540 356 c 1
 529 358 517 359 506 359 c 2
 383 359 l 2
 375 359 374 355 374 348 c 2
 374 58 l 2
 374 36 385 38 434 34 c 0
 447 33 450 26 450 13 c 0
 450 3 447 -5 436 -5 c 0
 427 -5 399 0 342 0 c 0
 292 0 252 -5 249 -5 c 0
 239 -5 236 3 236 11 c 0
 236 32 241 30 275 37 c 0
 294 41 304 32 304 101 c 2
 305 350 l 2
 305 356 303 360 294 360 c 2
 154 360 l 2
 146 360 140 359 140 349 c 2
 140 60 l 1
 140 58 l 2
 140 50 141 39 158 37 c 0
 199 34 214 38 214 14 c 0
 214 3 212 -6 202 -6 c 0
 199 -6 160 0 111 0 c 0
 62 0 24 -6 21 -6 c 0
 11 -6 8 3 8 17 c 0
 8 38 21 31 52 39 c 0
 62 41 65 46 66 55 c 0
 70 79 70 109 70 203 c 2
 70 350 l 2
 70 359 66 360 58 360 c 2
 39 360 l 2
 28 360 19 364 19 379 c 0
 19 403 27 411 39 411 c 2
 61 411 l 2
 67 411 68 415 68 420 c 2
 68 421 l 2
 68 500 92 595 159 652 c 0
 188 677 241 705 295 705 c 2
 296 705 l 2xd7
 359 705 370 666 377 666 c 0
 384 667 425 727 535 727 c 0x8f
EndSplineSet
Ligature2: "'liga' Standard Ligatures in Latin lookup 1 per glyph data 0" f f i
EndChar

StartChar: f_f_l
Encoding: 65541 -1 291
Width: 708
GlyphClass: 3
Flags: W
HStem: 0 37<18.0354 75.6759 150.056 223.72 253.473 316.765 392.069 467.692 487.057 554.494 630.521 697.75> 360 51<9.66742 78.3494 150.007 320.875 392.055 511.948> 645 60<218.947 322.472> 703 20G<611.5 621.5>
VStem: 80 70<38.2926 360 411 552.477> 321 70<50.4385 358.995 411 574.152> 557 73<39.238 633.094>
LayerCount: 2
Fore
SplineSet
351 617 m 2xee
 318 617 297 645 253 645 c 0
 213 645 173 621 154 511 c 0
 150 488 149 464 149 441 c 2
 149 424 l 2
 149 416 151 411 160 411 c 2
 306 411 l 2
 314 411 321 412 321 423 c 2
 321 431 l 2
 321 550 358 608 358 613 c 0
 358 615 357 617 354 617 c 2
 351 617 l 2xee
395 667 m 2
 401 667 448 720 536 720 c 0
 562 720 573 712 583 712 c 2
 584 712 l 2
 597 712 607 723 616 723 c 0xde
 627 723 630 713 630 704 c 2
 630 80 l 2
 630 77 629 74 629 71 c 0
 629 39 640 41 681 34 c 0
 693 32 698 27 698 14 c 0
 698 3 696 -6 686 -6 c 0
 683 -6 642 0 592 0 c 0
 544 0 505 -5 502 -5 c 0
 487 -5 487 9 487 16 c 0
 487 35 495 34 529 38 c 0
 554 41 557 56 557 76 c 2
 557 567 l 2
 557 614 544 630 519 645 c 1
 504 652 491 655 480 655 c 0
 408 655 391 537 391 454 c 2
 391 422 l 2
 391 414 393 411 401 411 c 2
 498 411 l 2
 509 411 514 406 514 396 c 0
 514 390 511 366 499 360 c 0
 496 359 492 359 489 359 c 2
 400 359 l 2
 393 359 392 355 392 348 c 2
 392 58 l 2
 392 36 402 38 452 34 c 0
 464 33 468 26 468 13 c 0
 468 3 464 -5 454 -5 c 0
 444 -5 416 0 360 0 c 0
 309 0 269 -5 266 -5 c 0
 256 -5 253 3 253 11 c 0
 253 32 260 31 293 37 c 0
 306 40 312 37 317 50 c 0
 320 59 322 91 322 101 c 2
 323 350 l 2
 323 356 321 360 312 360 c 2
 163 360 l 2
 155 360 150 359 150 349 c 2
 150 60 l 1
 150 58 l 2
 150 50 151 39 168 37 c 0
 209 34 224 38 224 14 c 0
 224 3 221 -6 211 -6 c 0
 209 -6 169 0 121 0 c 0
 71 0 34 -6 31 -6 c 0
 19 -6 18 5 18 17 c 0
 18 38 30 31 62 39 c 0
 78 43 80 46 80 190 c 2
 80 350 l 2
 80 359 75 360 68 360 c 2
 29 360 l 2
 21 360 9 362 9 379 c 0
 9 403 17 411 29 411 c 2
 71 411 l 2
 83 411 75 419 81 472 c 1
 91 547 120 614 170 654 c 0
 214 690 276 705 312 705 c 0
 370 705 390 669 392 667 c 1
 395 667 l 2
EndSplineSet
Ligature2: "'liga' Standard Ligatures in Latin lookup 1 per glyph data 0" f f l
EndChar

StartChar: circumflex.cap
Encoding: 65542 -1 292
Width: 271
GlyphClass: 2
Flags: W
HStem: 804 79<102.094 167.759>
VStem: 14 243<742 755>
LayerCount: 2
Fore
SplineSet
29 732 m 0
 17 732 14 742 14 746 c 0
 14 755 14 752 100 859 c 0
 106 867 119 883 138 883 c 0
 148 883 154 879 163 869 c 0
 256 754 257 756 257 747 c 0
 257 741 252 732 241 732 c 0
 231 732 221 740 215 746 c 0
 160 792 150 804 136 804 c 0
 110 804 53 732 29 732 c 0
EndSplineSet
EndChar

StartChar: acute.cap
Encoding: 65543 -1 293
Width: 282
GlyphClass: 2
Flags: W
HStem: 730 169
VStem: 17 248
LayerCount: 2
Fore
SplineSet
225 899 m 0
 246 899 265 884 265 863 c 0
 265 834 238 823 224 816 c 0
 45 731 46 730 37 730 c 0
 27 730 17 738 17 750 c 0
 17 760 24 768 36 776 c 2
 174 876 l 2
 187 886 205 899 225 899 c 0
EndSplineSet
EndChar

StartChar: grave.cap
Encoding: 65544 -1 294
Width: 282
GlyphClass: 2
Flags: W
HStem: 730 169
VStem: 17 248
LayerCount: 2
Fore
SplineSet
17 863 m 0
 17 885 35 899 56 899 c 0
 77 899 95 886 108 876 c 0
 261 765 257 768 261 762 c 0
 263 758 265 754 265 749 c 0
 265 737 255 730 245 730 c 2
 244 730 l 2
 236 730 236 731 58 816 c 0
 48 821 17 833 17 863 c 0
EndSplineSet
EndChar

StartChar: breve.cap
Encoding: 65545 -1 295
Width: 324
GlyphClass: 2
Flags: W
HStem: 728 65<98.8173 225.357>
VStem: 16 293<834 848>
LayerCount: 2
Fore
SplineSet
162 793 m 0
 228 793 273 861 284 861 c 0
 295 861 309 849 309 839 c 0
 309 834 248 728 164 728 c 2
 160 728 l 2
 76 728 16 834 16 839 c 0
 16 848 27 861 40 861 c 0
 52 861 96 793 162 793 c 0
EndSplineSet
EndChar

StartChar: longs_i
Encoding: 65546 -1 296
Width: 476
GlyphClass: 3
Flags: W
HStem: -6 44<252.136 327.058 397.719 462.991> -6 45<18.0865 79.5371 152.472 229.856> 360 50<20.8714 82.6363> 421 20<383.5 390> 656 65<236.537 360.933>
VStem: 84 68<115.416 360> 328 67<39.1511 336.573>
LayerCount: 2
Fore
SplineSet
152 436 m 0x7e
 152 421 153 428 153 362 c 2
 153 120 l 2
 153 103 152 89 152 78 c 0
 152 44 155 38 173 37 c 2
 218 33 l 2
 226 33 230 24 230 14 c 0
 230 4 225 -6 214 -6 c 0
 211 -6 172 0 124 0 c 0
 75 0 36 -6 33 -6 c 0
 20 -6 18 8 18 19 c 0
 18 34 31 33 65 39 c 0
 85 42 83 52 84 348 c 0
 84 357 84 359 72 360 c 1
 40 360 l 2
 25 360 20 367 20 378 c 0
 20 408 36 408 40 408 c 2
 76 410 l 2
 89 410 74 439 98 525 c 0
 145 688 267 721 327 721 c 0
 371 721 402 700 402 669 c 0
 402 646 382 629 359 629 c 2
 358 629 l 2
 325 629 302 656 265 656 c 0
 183 656 152 525 152 436 c 0x7e
EndSplineSet
Refer: 203 305 S 1 0 0 1 234 0 2
Ligature2: "'liga' Standard Ligatures in Latin lookup 1 per glyph data 3" longs i
EndChar

StartChar: caron.cap
Encoding: 65547 -1 297
Width: 271
GlyphClass: 2
Flags: W
HStem: 732 79<103.114 168.906>
VStem: 14 243<860 874>
LayerCount: 2
Fore
SplineSet
242 883 m 0
 249 883 257 877 257 869 c 0
 257 860 257 863 171 756 c 0
 165 748 152 732 133 732 c 0
 123 732 117 736 108 746 c 0
 19 856 14 859 14 868 c 0
 14 874 19 883 30 883 c 0
 40 883 50 875 56 869 c 0
 110 823 121 811 135 811 c 0
 161 811 218 883 242 883 c 0
EndSplineSet
EndChar

StartChar: longs_longs
Encoding: 65548 -1 298
Width: 439
GlyphClass: 3
Flags: W
HStem: -6 43<9.02019 67.0701 141.012 215.867 227.199 292.504 365 441.867> 360 51<20.0274 69.0488 245.027 294.027> 630 90<473.298 567.731> 643 62<205.947 301.638> 655 12<371 373>
VStem: 71 70<37.75 360 411 549.823> 244 121<360 411> 296 69<38.4201 360 411 581.069>
LayerCount: 2
Fore
SplineSet
294 421 m 0xce
 294 564 331 603 331 614 c 0
 331 616 330 617 327 617 c 2
 324 617 l 2
 294 617 272 643 237 643 c 0
 160 643 140 515 140 441 c 2
 140 424 l 2
 140 416 141 359 141 349 c 2
 141 59 l 2
 141 34 157 36 199 33 c 0
 211 32 216 23 216 13 c 0
 216 4 211 -6 203 -6 c 0
 200 -6 161 0 112 0 c 0
 63 0 25 -6 22 -6 c 0
 12 -6 9 3 9 17 c 0
 9 33 15 32 46 37 c 0
 68 41 71 38 71 169 c 2
 71 350 l 2
 71 359 66 360 59 360 c 2
 40 360 l 2
 25 360 19 370 19 381 c 0
 19 387 22 411 40 411 c 2
 62 411 l 2
 69 411 69 415 69 421 c 0
 69 596 178 705 287 705 c 0xd6
 349 705 359 667 369 667 c 0xce
 373 667 427 720 510 720 c 0
 562 720 579 690 579 670 c 0
 579 651 567 630 539 630 c 0xe6
 507 630 485 655 453 655 c 0
 371 655 364 503 364 454 c 2
 364 422 l 2
 364 397 365 373 365 348 c 2
 365 58 l 2
 365 37 373 38 425 34 c 0
 437 33 442 23 442 13 c 0
 442 6 439 -5 427 -5 c 0
 416 -5 392 0 333 0 c 0
 289 0 261 -5 245 -5 c 0
 232 -5 227 -2 227 10 c 0
 227 33 234 31 266 37 c 0
 287 41 295 34 295 101 c 0
 296 300 296 325 296 350 c 0xcd
 296 359 291 360 284 360 c 2
 265 360 l 2
 250 360 244 370 244 381 c 0
 244 387 247 411 265 411 c 2
 287 411 l 2
 294 411 294 415 294 421 c 0xce
EndSplineSet
Ligature2: "'liga' Standard Ligatures in Latin lookup 1 per glyph data 3" longs longs
EndChar

StartChar: longs_l
Encoding: 65549 -1 299
Width: 460
GlyphClass: 3
Flags: W
HStem: -5 43<11.0803 72.4618 146.51 223.93 241.027 308.863 383.512 451.907> 360 50<16.7383 74.9686> 656 64<201.444 312.041>
VStem: 77 69<114.998 360 409.156 575.581> 310 73<39.4737 633.725>
LayerCount: 2
Fore
SplineSet
146 366 m 2
 146 78 l 2
 146 45 148 38 166 37 c 2
 211 33 l 2
 219 33 224 24 224 15 c 0
 224 5 218 -6 207 -6 c 0
 205 -6 165 0 117 0 c 0
 68 0 29 -6 26 -6 c 0
 14 -6 11 8 11 19 c 0
 11 35 23 33 59 39 c 0
 78 42 76 50 77 350 c 0
 77 357 76 359 65 360 c 1
 37 360 l 2
 21 360 16 367 16 379 c 0
 16 408 33 408 37 408 c 2
 69 410 l 2
 75 410 75 413 75 417 c 2
 75 419 l 2
 75 494 84 652 216 706 c 0
 231 712 259 720 286 720 c 0
 318 720 325 713 337 713 c 0
 350 713 360 723 369 723 c 0
 380 723 383 714 383 704 c 2
 383 69 l 2
 383 40 393 41 435 34 c 0
 447 32 452 26 452 14 c 0
 452 -1 450 -5 438 -5 c 0
 424 -5 397 0 345 0 c 0
 299 0 272 -5 258 -5 c 0
 244 -5 241 -1 241 15 c 0
 241 36 250 34 282 38 c 0
 310 41 310 58 310 79 c 2
 310 558 l 2
 310 590 309 636 258 652 c 0
 251 655 244 656 237 656 c 0
 164 656 145 540 145 434 c 2
 145 429 l 2
 145 414 146 427 146 366 c 2
EndSplineSet
Ligature2: "'liga' Standard Ligatures in Latin lookup 1 per glyph data 3" longs l
EndChar

StartChar: longs_longs_i
Encoding: 65550 -1 300
Width: 713
GlyphClass: 3
Flags: W
HStem: -6 40<8.05684 65.9898 140.298 214.967 236.134 300.668 374.231 450.967> -6 44<489.136 564.058 634.719 699.991> 360 51<19.0274 68.0488 254.808 303.998> 421 20<620.5 627> 644 61<210.678 307.358> 668 59<432.47 542.929>
VStem: 70 70<37.6372 360 411 551.625> 254 120<360 411> 304 70<38.1504 360 411 573.284> 565 67<39.1511 336.573>
LayerCount: 2
Fore
SplineSet
293 360 m 2xb6c0
 275 360 l 2
 259 360 254 370 254 381 c 0xb740
 254 387 256 411 275 411 c 2
 296 411 l 2
 303 411 304 415 304 421 c 2
 304 444 l 2
 304 550 340 603 340 614 c 0
 340 616 339 617 336 617 c 2
 333 617 l 2
 303 617 279 644 243 644 c 0
 201 644 139 605 139 441 c 2
 139 424 l 2
 139 416 140 359 140 349 c 2
 140 59 l 2
 140 33 156 37 198 34 c 0
 210 33 215 23 215 13 c 0
 215 4 210 -6 202 -6 c 0
 199 -6 160 0 111 0 c 0
 62 0 24 -6 21 -6 c 0
 11 -6 8 3 8 17 c 0
 8 35 16 33 45 37 c 0
 65 40 70 41 70 122 c 2
 70 350 l 2
 70 359 65 360 58 360 c 2
 39 360 l 2
 24 360 18 370 18 381 c 0
 18 387 21 411 39 411 c 2
 61 411 l 2
 68 411 68 415 68 421 c 0
 68 490 88 637 223 690 c 0
 246 699 271 705 295 705 c 2
 296 705 l 2xbac0
 360 705 368 667 378 667 c 0
 386 667 423 727 535 727 c 0
 619 727 636 693 636 671 c 0
 636 650 620 630 592 630 c 0
 552 630 526 668 481 668 c 0
 438 668 373 633 373 454 c 2
 373 422 l 2
 373 415 374 422 374 348 c 2
 374 58 l 2x36c0
 374 36 386 38 434 34 c 0
 446 33 451 23 451 13 c 0
 451 6 448 -5 436 -5 c 0
 425 -5 401 0 342 0 c 0
 297 0 270 -5 254 -5 c 0xb740
 241 -5 236 -2 236 10 c 0
 236 33 244 31 275 37 c 0
 296 41 304 34 304 101 c 2
 305 350 l 2
 305 359 300 360 293 360 c 2xb6c0
EndSplineSet
Refer: 203 305 S 1 0 0 1 471 0 2
Ligature2: "'liga' Standard Ligatures in Latin lookup 1 per glyph data 2" longs longs i
EndChar

StartChar: longs_longs_l
Encoding: 65551 -1 301
Width: 708
GlyphClass: 3
Flags: W
HStem: -6 40<17.0102 75.5599 150.298 224.967 253.087 318.226 392.096 467.967 487.1 554.395 630.89 697.996> 360 51<9.66742 78.3494 252.616 320.83> 645 60<218.528 321.227> 656 11<395 480> 703 20G<611 621.5>
VStem: 80 70<37.7056 360 411 549.021> 322 70<38.1504 360 411 574.119> 557 73<39.2047 632.074>
LayerCount: 2
Fore
SplineSet
480 656 m 0xdf
 405 656 391 526 391 454 c 2
 391 422 l 2
 391 414 392 355 392 348 c 2
 392 58 l 2
 392 38 396 39 452 34 c 0
 463 33 468 23 468 13 c 0
 468 6 465 -5 453 -5 c 0
 442 -5 418 0 360 0 c 0
 316 0 288 -5 272 -5 c 0
 259 -5 253 -2 253 11 c 0
 253 33 260 31 293 37 c 0
 314 41 321 34 322 101 c 2
 323 350 l 2
 323 359 318 360 310 360 c 2
 272 360 l 2
 263 360 252 362 252 379 c 0
 252 403 260 411 272 411 c 2
 313 411 l 2
 321 411 321 417 321 442 c 0
 321 554 358 601 358 614 c 0
 358 616 357 617 351 617 c 2
 346 617 l 2
 321 617 295 645 253 645 c 0
 213 645 173 621 154 511 c 0
 150 488 149 464 149 441 c 2
 149 424 l 2
 149 416 150 359 150 349 c 2
 150 59 l 2
 150 33 166 37 208 34 c 0
 220 33 225 23 225 13 c 0
 225 4 220 -6 211 -6 c 0
 209 -6 169 0 121 0 c 0
 71 0 34 -6 31 -6 c 0
 22 -6 17 4 17 14 c 0
 17 35 31 34 54 37 c 0
 74 40 80 41 80 122 c 2
 80 350 l 2
 80 359 75 360 68 360 c 2
 29 360 l 2
 21 360 9 362 9 379 c 0
 9 403 17 411 29 411 c 2
 71 411 l 2
 83 411 75 419 81 472 c 0
 108 679 261 705 312 705 c 0xe7
 376 705 385 667 395 667 c 0
 400 667 451 720 536 720 c 0
 564 720 571 712 583 712 c 0
 596 712 606 723 616 723 c 0
 627 723 630 713 630 704 c 2
 630 80 l 2
 630 76 629 73 629 69 c 0
 629 39 641 41 681 34 c 0
 693 32 698 26 698 14 c 0
 698 2 696 -6 686 -6 c 0
 683 -6 642 0 592 0 c 0
 545 0 519 -5 504 -5 c 0
 491 -5 488 -1 487 15 c 1
 487 36 497 34 529 38 c 0
 557 41 557 58 557 79 c 2
 557 567 l 2
 557 651 493 656 480 656 c 0xdf
EndSplineSet
Ligature2: "'liga' Standard Ligatures in Latin lookup 1 per glyph data 2" longs longs l
EndChar

StartChar: quotedblleft.001
Encoding: 65552 -1 302
Width: 476
GlyphClass: 2
Flags: W
HStem: 464 98<82.0918 174.725 332.092 424.725>
VStem: 38 40<567.528 642.751> 288 40<567.528 642.751>
LayerCount: 2
Fore
SplineSet
375 464 m 0
 340 464 288 492 288 576 c 0
 288 656 330 687 345 687 c 1
 356 686 364 677 364 667 c 0
 364 652 328 637 328 600 c 0
 328 585 335 562 371 562 c 0
 377 562 383 563 389 563 c 0
 429 563 438 536 438 520 c 0
 438 495 416 464 375 464 c 0
125 464 m 0
 90 464 38 492 38 576 c 0
 38 656 80 687 95 687 c 1
 106 686 114 677 114 667 c 0
 114 652 78 637 78 600 c 0
 78 585 85 562 121 562 c 0
 127 562 133 563 139 563 c 0
 179 563 188 536 188 520 c 0
 188 495 166 464 125 464 c 0
EndSplineSet
EndChar

StartChar: quotedblright.001
Encoding: 65553 -1 303
Width: 476
GlyphClass: 2
Flags: W
HStem: 586 98<51.8914 144.152 301.891 394.152>
VStem: 148 40<505.343 580.483> 398 40<505.343 580.483>
LayerCount: 2
Fore
SplineSet
102 684 m 0
 136 684 188 656 188 572 c 0
 188 492 146 462 132 462 c 2
 131 462 l 2
 121 462 113 472 113 481 c 0
 113 497 148 512 148 549 c 0
 148 563 141 586 105 586 c 0
 99 586 94 585 88 585 c 0
 48 585 38 612 38 628 c 0
 38 653 61 684 102 684 c 0
352 684 m 0
 386 684 438 656 438 572 c 0
 438 492 396 462 382 462 c 2
 381 462 l 2
 371 462 363 472 363 481 c 0
 363 497 398 512 398 549 c 0
 398 563 391 586 355 586 c 0
 349 586 344 585 338 585 c 0
 298 585 288 612 288 628 c 0
 288 653 311 684 352 684 c 0
EndSplineSet
EndChar

